<?xml version="1.0" encoding="UTF-8"?>
<svg version="1.1" xmlns="http://www.w3.org/2000/svg" width="427" height="626">
<path d="M0 0 C140.91 0 281.82 0 427 0 C427 206.58 427 413.16 427 626 C286.09 626 145.18 626 0 626 C0 419.42 0 212.84 0 0 Z " fill="#FEFEFE" transform="translate(0,0)"/>
<path d="M0 0 C140.91 0 281.82 0 427 0 C427 206.58 427 413.16 427 626 C286.09 626 145.18 626 0 626 C0 419.42 0 212.84 0 0 Z M71 55 C69.38006821 58.23986358 69.86565118 61.79216295 69.87695217 65.351511 C69.87579833 66.23008463 69.87464448 67.10865826 69.87345567 68.01385534 C69.87078548 70.99050745 69.87531448 73.96710667 69.87974548 76.9437561 C69.87930986 79.08625373 69.87843513 81.22875131 69.87715632 83.3712486 C69.87490954 89.28415345 69.87893514 95.19704035 69.88393438 101.10994291 C69.88823608 107.47670207 69.88679266 113.84346014 69.8860321 120.21022034 C69.88550669 131.24953075 69.88862055 142.28883517 69.89426994 153.32814407 C69.90018157 164.90950168 69.9040348 176.49085693 69.90512276 188.07221603 C69.9051915 188.79159253 69.90526024 189.51096903 69.90533106 190.25214482 C69.90566938 193.90531021 69.90597077 197.5584756 69.90625793 201.211641 C69.90835984 227.10496279 69.91510135 252.9982815 69.92456055 278.89160156 C69.93374096 304.05078109 69.94080964 329.20995977 69.94506836 354.36914062 C69.945339 355.95050232 69.94560971 357.53186401 69.94588047 359.1132257 C69.94806916 371.96190048 69.95011177 384.81057529 69.95211896 397.65925011 C69.96151098 457.10616965 69.98158017 516.55308118 70 576 C165.37 576 260.74 576 359 576 C359.02869469 485.72315574 359.02869469 485.72315574 359.04816496 395.44631064 C359.05020628 382.38491773 359.05229426 369.32352483 359.05452599 356.26213195 C359.05479583 354.68215522 359.0550642 353.10217849 359.05533109 351.52220175 C359.0596018 326.31146532 359.06710846 301.10073113 359.07629722 275.88999605 C359.08571998 249.99037844 359.09188316 224.09076208 359.09391499 198.19114279 C359.09420317 194.53726879 359.0945288 190.88339479 359.09487724 187.2295208 C359.09494467 186.51034997 359.09501209 185.79117914 359.09508156 185.05021526 C359.09626561 173.44981282 359.10090996 161.84941419 359.10683203 150.24901331 C359.11270512 138.60107779 359.11489029 126.95314699 359.11350138 115.30520994 C359.11285765 108.98827546 359.11387942 102.67135222 359.11920547 96.35441971 C359.12403749 90.58165876 359.12433997 84.8089167 359.12089889 79.03615492 C359.120473 76.93790028 359.1217704 74.83964451 359.12488318 72.74139214 C359.12884383 69.90893118 359.12676548 67.07654022 359.12304783 64.24408054 C359.12567484 63.41244793 359.12830186 62.58081531 359.13100848 61.72398171 C359.46822798 58.06177356 359.46822798 58.06177356 358 55 C356.4674343 54.90310659 354.93039225 54.87628305 353.39476681 54.87695217 C352.39304123 54.87496112 351.39131565 54.87297007 350.35923475 54.87091869 C349.24544543 54.87383153 348.13165611 54.87674437 346.9841156 54.87974548 C345.81128165 54.87889106 344.6384477 54.87803663 343.43007332 54.87715632 C340.16006641 54.87578815 336.8900986 54.87893557 333.62009633 54.88393438 C330.09929026 54.88823561 326.57848617 54.88679269 323.05767822 54.8860321 C316.9527944 54.88550666 310.84792123 54.88865558 304.74304008 54.89426994 C295.91630668 54.90238219 287.08957844 54.90499988 278.26284171 54.90625793 C263.94353543 54.90844889 249.62423483 54.91511015 235.30493164 54.92456055 C221.39152047 54.93373354 207.47811085 54.94081493 193.56469727 54.94506836 C192.27918975 54.94546244 192.27918975 54.94546244 190.96771239 54.94586449 C186.66855459 54.94716949 182.36939677 54.94843321 178.07023895 54.94967639 C142.38015525 54.96005036 106.69007815 54.97766985 71 55 Z " fill="#FEFEFE" transform="translate(0,0)"/>
<path d="M0 0 C105.93 0 211.86 0 321 0 C321.76384628 3.05538513 322.12505204 5.02023194 322.12534916 8.04790753 C322.12785268 8.85075361 322.1303562 9.65359969 322.13293558 10.48077443 C322.13059442 11.3587879 322.12825325 12.23680138 322.12584114 13.14142132 C322.12729458 14.08109612 322.12874802 15.02077092 322.13024551 15.98892072 C322.13391678 19.16138693 322.13041386 22.33380544 322.12698364 25.50627136 C322.12813501 27.79415055 322.12972264 30.08202954 322.13171089 32.36990815 C322.13590196 38.67541701 322.13381451 44.98091082 322.13072467 51.28641975 C322.12821474 57.38219028 322.13135585 63.47795925 322.13387203 69.57372935 C322.13914372 82.81412637 322.13867907 96.05451856 322.13579312 109.29491604 C322.13328032 120.87974529 322.13261958 132.46457277 322.13381577 144.04940224 C322.13393034 145.20082629 322.13393034 145.20082629 322.13404724 146.37551143 C322.13435856 149.49126373 322.13467696 152.60701603 322.135007 155.72276833 C322.13806759 184.96413365 322.13528985 214.2054959 322.1299101 243.44686074 C322.1251629 269.44789253 322.12559013 295.44891942 322.13037109 321.44995117 C322.13572072 350.64141344 322.13785198 379.83287299 322.13475883 409.02433568 C322.1344381 412.13357214 322.13412526 415.2428086 322.13381577 418.35204506 C322.13373669 419.117657 322.13365761 419.88326894 322.13357614 420.67208125 C322.13243673 432.25405148 322.1337725 443.83601976 322.13629532 455.41798973 C322.13914786 468.57953383 322.13845407 481.74107235 322.13301457 494.90261575 C322.13032841 501.62463044 322.12937462 508.34663454 322.13266373 515.06864929 C322.13562405 521.21133622 322.13403834 527.35400385 322.12868617 533.496689 C322.12756087 535.72941211 322.12815565 537.96213683 322.13056196 540.19485893 C322.13356313 543.20863048 322.13052441 546.22233422 322.12584114 549.2361021 C322.12818231 550.12113907 322.13052347 551.00617605 322.13293558 551.91803232 C322.11415038 557.88584962 322.11415038 557.88584962 321 559 C319.30872103 559.09996084 317.61323726 559.12923705 315.91900826 559.13142776 C314.25721714 559.13718948 314.25721714 559.13718948 312.56185448 559.1430676 C310.71331095 559.14176787 310.71331095 559.14176787 308.8274231 559.14044189 C306.88146203 559.14489858 306.88146203 559.14489858 304.89618862 559.1494453 C301.2785354 559.15754408 297.66090199 559.15930646 294.04324079 559.16004276 C290.14813529 559.16188833 286.25304019 559.16943313 282.35794067 559.17617798 C273.83327836 559.18978217 265.30862074 559.19578924 256.78394938 559.20018864 C251.46531861 559.2029475 246.14668968 559.20718419 240.82806015 559.21169281 C226.11442491 559.22388813 211.40079114 559.23418697 196.68715096 559.2375679 C195.2735351 559.23789725 195.2735351 559.23789725 193.83136135 559.23823325 C192.41428287 559.23856067 192.41428287 559.23856067 190.96857655 559.2388947 C189.05408359 559.23933817 187.13959062 559.23978474 185.22509766 559.24023438 C184.27543459 559.2404558 183.32577153 559.24067723 182.34733079 559.24090537 C166.95259972 559.24485503 151.55791593 559.26231299 136.16320314 559.2855939 C120.37349182 559.30928024 104.58380427 559.32176851 88.79407489 559.32293582 C79.92233321 559.32385411 71.05065314 559.32964491 62.17892838 559.34775543 C54.62559536 559.36311981 47.07234298 559.36829865 39.51899733 559.36001733 C35.6624505 559.35609777 31.80606624 559.35710354 27.94953918 559.37107468 C23.77508875 559.38605978 19.60100815 559.37798588 15.42654419 559.36749268 C14.19864328 559.37554908 12.97074236 559.38360548 11.70563233 559.39190602 C10.59255609 559.38531618 9.47947985 559.37872633 8.33267403 559.3719368 C7.36834674 559.37253389 6.40401945 559.37313097 5.41047013 559.37374616 C2.50335636 558.92299483 1.80700126 558.26790755 0 556 C-0.29187933 552.91534507 -0.39664921 550.0333297 -0.36914349 546.94759846 C-0.37260502 546.00540116 -0.37606655 545.06320385 -0.37963298 544.09245512 C-0.38763364 540.90525593 -0.3740654 537.71850279 -0.36076355 534.53132629 C-0.36207062 532.23534704 -0.36469521 529.93936821 -0.36853105 527.64339179 C-0.37526733 521.31083804 -0.36320023 514.97843533 -0.34819686 508.64590085 C-0.33514646 502.52551582 -0.33907545 496.40512988 -0.34124239 490.28473519 C-0.34518802 477.76109529 -0.33514501 465.23750281 -0.31719017 452.71387672 C-0.29945247 440.30997292 -0.28789504 427.90608886 -0.28463173 415.50217247 C-0.28442551 414.73156988 -0.28421929 413.96096729 -0.28400682 413.1670131 C-0.28299185 409.25367503 -0.28208769 405.34033693 -0.2812262 401.42699882 C-0.27492127 373.69293693 -0.2546989 345.95890086 -0.22631836 318.22485352 C-0.19877506 291.27791478 -0.17757004 264.33098315 -0.16479492 237.3840332 C-0.163983 235.69016685 -0.16317088 233.9963005 -0.16235858 232.30243415 C-0.15579248 218.53954833 -0.14966466 204.77666232 -0.14364313 191.01377625 C-0.11546955 127.34249305 -0.05526132 63.67127717 0 0 Z M18 20 C16.38006821 23.23986358 16.86565118 26.79216295 16.87695217 30.351511 C16.87579833 31.23008463 16.87464448 32.10865826 16.87345567 33.01385534 C16.87078548 35.99050745 16.87531448 38.96710667 16.87974548 41.9437561 C16.87930986 44.08625373 16.87843513 46.22875131 16.87715632 48.3712486 C16.87490954 54.28415345 16.87893514 60.19704035 16.88393438 66.10994291 C16.88823608 72.47670207 16.88679266 78.84346014 16.8860321 85.21022034 C16.88550669 96.24953075 16.88862055 107.28883517 16.89426994 118.32814407 C16.90018157 129.90950168 16.9040348 141.49085693 16.90512276 153.07221603 C16.9051915 153.79159253 16.90526024 154.51096903 16.90533106 155.25214482 C16.90566938 158.90531021 16.90597077 162.5584756 16.90625793 166.211641 C16.90835984 192.10496279 16.91510135 217.9982815 16.92456055 243.89160156 C16.93374096 269.05078109 16.94080964 294.20995977 16.94506836 319.36914062 C16.945339 320.95050232 16.94560971 322.53186401 16.94588047 324.1132257 C16.94806916 336.96190048 16.95011177 349.81057529 16.95211896 362.65925011 C16.96151098 422.10616965 16.98158017 481.55308118 17 541 C112.37 541 207.74 541 306 541 C306.02869469 450.72315574 306.02869469 450.72315574 306.04816496 360.44631064 C306.05020628 347.38491773 306.05229426 334.32352483 306.05452599 321.26213195 C306.05479583 319.68215522 306.0550642 318.10217849 306.05533109 316.52220175 C306.0596018 291.31146532 306.06710846 266.10073113 306.07629722 240.88999605 C306.08571998 214.99037844 306.09188316 189.09076208 306.09391499 163.19114279 C306.09420317 159.53726879 306.0945288 155.88339479 306.09487724 152.2295208 C306.09494467 151.51034997 306.09501209 150.79117914 306.09508156 150.05021526 C306.09626561 138.44981282 306.10090996 126.84941419 306.10683203 115.24901331 C306.11270512 103.60107779 306.11489029 91.95314699 306.11350138 80.30520994 C306.11285765 73.98827546 306.11387942 67.67135222 306.11920547 61.35441971 C306.12403749 55.58165876 306.12433997 49.8089167 306.12089889 44.03615492 C306.120473 41.93790028 306.1217704 39.83964451 306.12488318 37.74139214 C306.12884383 34.90893118 306.12676548 32.07654022 306.12304783 29.24408054 C306.12567484 28.41244793 306.12830186 27.58081531 306.13100848 26.72398171 C306.46822798 23.06177356 306.46822798 23.06177356 305 20 C303.4674343 19.90310659 301.93039225 19.87628305 300.39476681 19.87695217 C299.39304123 19.87496112 298.39131565 19.87297007 297.35923475 19.87091869 C296.24544543 19.87383153 295.13165611 19.87674437 293.9841156 19.87974548 C292.81128165 19.87889106 291.6384477 19.87803663 290.43007332 19.87715632 C287.16006641 19.87578815 283.8900986 19.87893557 280.62009633 19.88393438 C277.09929026 19.88823561 273.57848617 19.88679269 270.05767822 19.8860321 C263.9527944 19.88550666 257.84792123 19.88865558 251.74304008 19.89426994 C242.91630668 19.90238219 234.08957844 19.90499988 225.26284171 19.90625793 C210.94353543 19.90844889 196.62423483 19.91511015 182.30493164 19.92456055 C168.39152047 19.93373354 154.47811085 19.94081493 140.56469727 19.94506836 C139.27918975 19.94546244 139.27918975 19.94546244 137.96771239 19.94586449 C133.66855459 19.94716949 129.36939677 19.94843321 125.07023895 19.94967639 C89.38015525 19.96005036 53.69007815 19.97766985 18 20 Z " fill="#2C211D" transform="translate(53,35)"/>
<path d="M0 0 C8.30998987 -0.06942922 16.6198591 -0.12277489 24.93006706 -0.15543652 C28.78860575 -0.17111039 32.6469464 -0.19237955 36.50537109 -0.22631836 C40.22713296 -0.25885119 43.94870403 -0.27684004 47.67059708 -0.28463173 C49.0924289 -0.29018625 50.51424996 -0.30103261 51.93600082 -0.31719017 C53.92321387 -0.33888117 55.91061783 -0.34022469 57.89794922 -0.34057617 C59.03046112 -0.34723801 60.16297302 -0.35389984 61.32980347 -0.36076355 C62.21096832 -0.24171158 63.09213318 -0.12265961 64 0 C66.64955891 3.97433836 66.27491373 7.40532499 66.24888897 12.01837349 C66.25149625 12.95689445 66.25410354 13.89541541 66.25678983 14.86237639 C66.26313345 18.03698993 66.25509977 21.21140892 66.24723816 24.38601685 C66.248825 26.67303347 66.25128735 28.96004963 66.25455457 31.24706447 C66.26099405 37.55485033 66.25487991 43.86257243 66.24679029 50.17035413 C66.23993166 56.26689727 66.24438039 62.36343747 66.2476195 68.45998189 C66.25390222 80.93505032 66.25071446 93.41009987 66.24202538 105.88516617 C66.2334206 118.24162089 66.22850499 130.59806714 66.22869301 142.95452499 C66.22870448 144.10605215 66.22870448 144.10605215 66.22871618 145.28084249 C66.22875708 148.39684611 66.22882269 151.51284973 66.22892199 154.62885334 C66.22982865 183.87666755 66.21987404 213.12446881 66.20449232 242.37227852 C66.19086512 268.37986074 66.18463113 294.38743377 66.18530273 320.39501953 C66.18534315 322.06516294 66.18538351 323.73530635 66.18542381 325.40544976 C66.18545434 326.64395779 66.18545434 326.64395779 66.18548548 327.90748618 C66.18558627 332.06346209 66.18567686 336.21943799 66.18575573 340.37541389 C66.18577244 341.19525374 66.18578916 342.01509358 66.18580638 342.85977706 C66.18617121 364.56774053 66.18163659 386.27570284 66.17542917 407.98366535 C66.17520889 408.75543854 66.17498862 409.52721173 66.17476168 410.32237199 C66.1738734 413.42611022 66.17298502 416.52984845 66.17207072 419.63358666 C66.16890622 430.44949034 66.16740087 441.26539311 66.16695923 452.08129722 C66.16636318 466.01523595 66.16238958 479.94916708 66.15252777 493.88310255 C66.14785144 500.60713476 66.14486971 507.33115698 66.14612198 514.05519104 C66.14721089 520.19976966 66.1437365 526.34432745 66.13647345 532.48890172 C66.13464874 534.72232712 66.13454076 536.95575465 66.13624074 539.18918015 C66.13828284 542.20391501 66.13428308 545.21858005 66.12863445 548.23330879 C66.13068977 549.11863161 66.13274509 550.00395443 66.13486269 550.91610521 C66.1141549 556.8858451 66.1141549 556.8858451 65 558 C63.30583697 558.09726802 61.60758117 558.12371513 59.91062832 558.12304783 C58.80091748 558.12503888 57.69120664 558.12702993 56.54786819 558.12908131 C54.69625512 558.12471205 54.69625512 558.12471205 52.80723572 558.12025452 C51.50781164 558.12110894 50.20838757 558.12196337 48.869587 558.12284368 C45.24613488 558.1250911 41.62271203 558.12106402 37.99926364 558.11606562 C34.09808593 558.11176482 30.19691 558.11320728 26.29573059 558.1139679 C19.53113854 558.11449337 12.76655611 558.11134416 6.00196648 558.10573006 C-3.77860866 558.09761818 -13.55917912 558.09500016 -23.33975726 558.09374207 C-39.20640656 558.09155105 -55.07305074 558.08488964 -70.93969727 558.07543945 C-86.35668919 558.06626661 -101.77367973 558.05918515 -117.19067383 558.05493164 C-118.1402757 558.05466892 -119.08987757 558.05440619 -120.06825525 558.05413551 C-124.83191927 558.05283051 -129.59558329 558.0515668 -134.35924733 558.05032361 C-173.90616848 558.03994946 -213.4530839 558.02232981 -253 558 C-253.495 556.515 -253.495 556.515 -254 555 C-148.73 555 -43.46 555 65 555 C64.505 390.66 64.505 390.66 64 223 C61.24170299 226.67772934 60.38255171 228.46979314 59.3125 232.75 C59.06113281 233.73484375 58.80976563 234.7196875 58.55078125 235.734375 C58.36902344 236.48203125 58.18726563 237.2296875 58 238 C57.34 237.67 56.68 237.34 56 237 C56.08378906 236.24074219 56.16757812 235.48148438 56.25390625 234.69921875 C56.35574219 233.70535156 56.45757812 232.71148437 56.5625 231.6875 C56.66691406 230.70136719 56.77132813 229.71523438 56.87890625 228.69921875 C57.16602527 225.90069653 57.16602527 225.90069653 56 223 C55.34 223.66 54.68 224.32 54 225 C53.74484081 217.47280398 54.71702277 210.41148455 56 203 C55.34 203 54.68 203 54 203 C54.0309375 204.423125 54.0309375 204.423125 54.0625 205.875 C54 209 54 209 53 211 C52.77049681 213.204364 52.58924067 215.41392173 52.4375 217.625 C52.35371094 218.81351563 52.26992188 220.00203125 52.18359375 221.2265625 C52.12300781 222.14179688 52.06242187 223.05703125 52 224 C51.67 224 51.34 224 51 224 C50.97527641 219.49764405 50.95712881 214.99532764 50.94506836 210.49291992 C50.9400404 208.9613374 50.93321716 207.42975967 50.92456055 205.89819336 C50.91242771 203.69643978 50.90675633 201.49474967 50.90234375 199.29296875 C50.89460182 198.26625313 50.89460182 198.26625313 50.88670349 197.21879578 C50.8863464 194.19093758 51.03383381 191.89849858 52 189 C52.66 189 53.32 189 54 189 C53.67 188.34 53.34 187.68 53 187 C52.82471826 181.82918872 53.26772261 177.12594175 54 172 C54 169.36 54 166.72 54 164 C53.34 169.94 52.68 175.88 52 182 C51.67 182 51.34 182 51 182 C49.41233023 128.01922797 49.42189427 74.00246707 49 20 C-45.71 19.67 -140.42 19.34 -238 19 C-238.33 190.93 -238.66 362.86 -239 540 C-239.66 540 -240.32 540 -241 540 C-241.33 423.51 -241.66 307.02 -242 187 C-242.33 187 -242.66 187 -243 187 C-243.33 198.22 -243.66 209.44 -244 221 C-244.33 221 -244.66 221 -245 221 C-245.06058594 220.30132812 -245.12117188 219.60265625 -245.18359375 218.8828125 C-245.26738281 217.97273437 -245.35117188 217.06265625 -245.4375 216.125 C-245.51871094 215.22007812 -245.59992188 214.31515625 -245.68359375 213.3828125 C-245.86989285 210.98889139 -245.86989285 210.98889139 -247 209 C-247.99 209 -248.98 209 -250 209 C-250.33 209.99 -250.66 210.98 -251 212 C-251.33 212 -251.66 212 -252 212 C-252 206.39 -252 200.78 -252 195 C-252.66 195 -253.32 195 -254 195 C-254.495 195.99 -254.495 195.99 -255 197 C-255 152.78 -255 108.56 -255 63 C-254.67 63 -254.34 63 -254 63 C-253.505 60.03 -253.505 60.03 -253 57 C-250 58 -250 58 -249 60 C-248.8198457 62.78081427 -248.69408744 65.5440744 -248.60546875 68.328125 C-248.53908112 70.08287674 -248.47182482 71.83759579 -248.40380859 73.59228516 C-248.3689032 74.51648254 -248.3339978 75.44067993 -248.29803467 76.3928833 C-247.57262309 95.14343072 -245.97879446 113.46383358 -243 132 C-242.97534378 127.74585377 -242.95716101 123.49174502 -242.94506836 119.23754883 C-242.94002899 117.78929927 -242.93319747 116.34105483 -242.92456055 114.89282227 C-242.91247753 112.81525412 -242.90676789 110.73775303 -242.90234375 108.66015625 C-242.89710693 107.40855713 -242.89187012 106.15695801 -242.88647461 104.86743164 C-242.67112965 102.10267706 -242.67112965 102.10267706 -244 101 C-245.72988821 89.22143716 -245.11312328 77.05340652 -245.0625 65.1875 C-245.05747388 63.12695422 -245.05291295 61.06640724 -245.04882812 59.00585938 C-245.0379131 54.00387639 -245.02071004 49.00195163 -245 44 C-244.67 44 -244.34 44 -244 44 C-243.67 33.77 -243.34 23.54 -243 13 C-146.31 13 -49.62 13 50 13 C49.67 12.34 49.34 11.68 49 11 C47.20097057 10.4558047 47.20097057 10.4558047 45.03515625 10.18359375 C44.23529297 10.05919922 43.43542969 9.93480469 42.61132812 9.80664062 C41.3496582 9.62391602 41.3496582 9.62391602 40.0625 9.4375 C38.40712855 9.18900313 36.75215671 8.93782512 35.09765625 8.68359375 C34.36039307 8.57587646 33.62312988 8.46815918 32.86352539 8.35717773 C31 8 31 8 29 7 C27.18963178 6.77866002 25.37287901 6.60838518 23.5546875 6.46484375 C21.94013672 6.33432617 21.94013672 6.33432617 20.29296875 6.20117188 C19.16503906 6.11416016 18.03710938 6.02714844 16.875 5.9375 C15.17150391 5.80118164 15.17150391 5.80118164 13.43359375 5.66210938 C10.62266799 5.43770774 7.81149234 5.21716834 5 5 C5.33 4.01 5.66 3.02 6 2 C4.02 1.67 2.04 1.34 0 1 C0 0.67 0 0.34 0 0 Z " fill="#46312B" transform="translate(309,36)"/>
<path d="M0 0 C32.33229569 -0.02282223 64.66458909 -0.04051466 96.99689096 -0.05106533 C100.81571703 -0.05231601 104.63454309 -0.05361033 108.45336914 -0.05493164 C109.21361511 -0.05519395 109.97386109 -0.05545626 110.75714482 -0.05572652 C123.06010032 -0.0600755 135.36305115 -0.06795881 147.66600388 -0.0771528 C160.29393562 -0.0865108 172.92186491 -0.09206016 185.54979998 -0.09408849 C193.3392355 -0.09545926 201.12865778 -0.09978569 208.91808922 -0.10791647 C214.8952831 -0.11383703 220.87246563 -0.11445352 226.84966278 -0.11310768 C229.29858291 -0.11338263 231.74750353 -0.11536965 234.19642067 -0.11920547 C237.54327319 -0.12419033 240.89006936 -0.12298059 244.23692322 -0.12025452 C245.20289946 -0.12316736 246.1688757 -0.1260802 247.16412395 -0.12908131 C252.85435104 -0.11657888 258.35501789 0.27362415 264 1 C262.68 2.32 261.36 3.64 260 5 C260.72703125 4.98839844 261.4540625 4.97679687 262.203125 4.96484375 C271.83482178 4.87840545 281.31310228 5.13178921 290.6953125 7.46875 C294.33066041 8.3067285 298.02401596 8.80516687 301.71484375 9.33984375 C304 10 304 10 306 13 C305 14 305 14 303.00348896 14.1241985 C302.11684199 14.12381878 301.23019502 14.12343906 300.31667995 14.12304783 C299.2975374 14.12503888 298.27839484 14.12702993 297.22836918 14.12908131 C296.09512512 14.12616847 294.96188105 14.12325563 293.79429626 14.12025452 C292.60104455 14.12110894 291.40779284 14.12196337 290.17838198 14.12284368 C286.85136008 14.12421188 283.52439628 14.12106437 280.19738138 14.11606562 C276.61522505 14.11176446 273.03307066 14.11320731 269.45091248 14.1139679 C263.23962411 14.11449334 257.02834621 14.11134437 250.81706047 14.10573006 C241.83648162 14.09761787 232.85590786 14.09500013 223.87532575 14.09374207 C209.30644802 14.0915511 194.73757587 14.08488982 180.16870117 14.07543945 C166.01277698 14.06626648 151.8568543 14.05918509 137.70092773 14.05493164 C136.82898775 14.05466892 135.95704776 14.05440619 135.05868535 14.05413551 C130.68460719 14.05283051 126.31052902 14.05156679 121.93645084 14.05032361 C85.62429646 14.03994961 49.31214903 14.02205571 13 14 C12.67 24.23 12.34 34.46 12 45 C11.67 45 11.34 45 11 45 C10.97451322 51.52871867 10.95707593 58.05742437 10.94506836 64.58618164 C10.94005916 66.80428548 10.93324995 69.02238604 10.92456055 71.24047852 C10.91234484 74.44027517 10.9067374 77.64002792 10.90234375 80.83984375 C10.89718246 81.82145981 10.89202118 82.80307587 10.88670349 83.81443787 C10.88623684 89.62378397 11.17159647 95.24552156 12 101 C12.33 101.33 12.66 101.66 13 102 C13.08868299 104.95705321 13.11520296 107.89065056 13.09765625 110.84765625 C13.0962413 111.7340831 13.09482635 112.62050995 13.09336853 113.53379822 C13.08775215 116.37673254 13.07519691 119.21958931 13.0625 122.0625 C13.05748711 123.98502491 13.05292384 125.90755104 13.04882812 127.83007812 C13.03777741 132.55341549 13.02050183 137.27669458 13 142 C12.67 142 12.34 142 12 142 C11.88406494 140.96593018 11.76812988 139.93186035 11.64868164 138.86645508 C11.21660517 135.01773882 10.78169695 131.16934688 10.34594727 127.32104492 C10.15800371 125.65772018 9.97082079 123.99430931 9.78442383 122.33081055 C9.51585219 119.93515153 9.24451652 117.53981902 8.97265625 115.14453125 C8.89032242 114.4047554 8.80798859 113.66497955 8.72315979 112.90278625 C8.40321128 110.10210411 8.07600476 107.34318565 7.46606445 104.58911133 C6.74070735 100.55956073 6.70525591 96.51604589 6.5703125 92.4296875 C6.49671123 90.54554869 6.42247343 88.66143466 6.34765625 86.77734375 C6.23385577 83.81705344 6.12439566 80.85683697 6.02587891 77.89599609 C5.92857866 75.03157178 5.81339104 72.16832036 5.6953125 69.3046875 C5.67018585 68.4171579 5.6450592 67.5296283 5.61917114 66.61520386 C5.58258392 65.79069733 5.5459967 64.9661908 5.50830078 64.11669922 C5.46952316 63.03012527 5.46952316 63.03012527 5.42996216 61.92160034 C5.07766362 59.54201827 5.07766362 59.54201827 2 57 C2 66.57 2 76.14 2 86 C1.67 86 1.34 86 1 86 C-0.00260981 68.06718751 -0.12571278 50.16954052 -0.06866455 32.21630859 C-0.05822261 28.56803998 -0.05382343 24.91976379 -0.04882812 21.27148438 C-0.038273 14.18097193 -0.02132936 7.09048895 0 0 Z " fill="#2D231F" transform="translate(54,36)"/>
<path d="M0 0 C106.59 0 213.18 0 323 0 C323 1.32 323 2.64 323 4 C324.98 4.99 324.98 4.99 327 6 C327.05133464 58.86963741 327.09909913 111.73927699 327.12702942 164.6089325 C327.12744359 165.39092266 327.12785776 166.17291282 327.12828448 166.97859966 C327.13726237 183.97172081 327.14557304 200.96484222 327.15319599 217.95796402 C327.15693813 226.29090511 327.16082777 234.62384613 327.16479492 242.95678711 C327.1651872 243.78603253 327.16557948 244.61527794 327.16598364 245.46965201 C327.17877679 272.36719701 327.20131749 299.26472314 327.22889166 326.1622567 C327.25716695 353.79376679 327.2756511 381.42526644 327.28174497 409.05679075 C327.28260949 412.95597868 327.2835864 416.85516658 327.28463173 420.75435448 C327.284834 421.52180072 327.28503627 422.28924697 327.28524467 423.07994917 C327.28879532 435.45359112 327.3027243 447.82720086 327.3204961 460.20082965 C327.33812538 472.62846976 327.3449121 485.05607781 327.34050413 497.48373 C327.33841762 504.22220205 327.34162249 510.96057354 327.35761642 517.69902992 C327.372132 523.85929547 327.37300702 530.01940167 327.36269668 536.17967429 C327.36142095 538.41659358 327.36529684 540.65352251 327.37464955 542.89042262 C327.38656701 545.91488605 327.38027495 548.93876277 327.36914349 551.96321583 C327.38096505 553.28701185 327.38096505 553.28701185 327.39302543 554.63755122 C327.34317995 560.56919795 327.34317995 560.56919795 325.62802484 562.72227343 C323.29118319 564.55630237 321.58959128 564.37489743 318.64167786 564.37473011 C316.96346341 564.38553992 316.96346341 564.38553992 315.25134563 564.39656812 C314.01702706 564.38919383 312.78270849 564.38181955 311.51098633 564.3742218 C310.203803 564.37819621 308.89661966 564.38217061 307.54982471 564.38626546 C303.9138059 564.39688268 300.27803182 564.38870384 296.64202356 564.37751496 C292.72377086 564.36869376 288.80555091 564.37711042 284.88729858 564.38337708 C277.20841794 564.3928793 269.52963107 564.3862528 261.85075736 564.37411413 C252.91459469 564.36051266 243.97845452 564.36213035 235.04228413 564.36424746 C219.10141231 564.36743943 203.16058514 564.35575774 187.21972656 564.33618164 C171.73989502 564.3171766 156.26011581 564.31009384 140.78027344 564.31567383 C123.93710735 564.32172727 107.0939643 564.32156254 90.25080013 564.310188 C88.45588621 564.30898066 86.66097228 564.30777468 84.86605835 564.30657005 C83.98285016 564.30596651 83.09964198 564.30536298 82.18966991 564.30474115 C75.95584053 564.30085659 69.7220197 564.3012577 63.4881897 564.3031559 C55.89465063 564.30527479 48.30115747 564.30007706 40.70763135 564.28554235 C36.83085831 564.27828282 32.95415224 564.27423455 29.0773735 564.27878571 C24.881187 564.28359212 20.68518489 564.27297675 16.48901367 564.26069641 C15.2546951 564.26447573 14.02037653 564.26825506 12.74865437 564.27214891 C11.62984473 564.26631671 10.5110351 564.26048452 9.35832214 564.25447559 C8.38900348 564.25360882 7.41968481 564.25274204 6.42099285 564.251849 C4 564 4 564 1 562 C-0.51876287 557.43602763 -0.13725026 552.44605684 -0.12304783 547.68588543 C-0.12420167 546.73969207 -0.12535552 545.7934987 -0.12654433 544.81863281 C-0.12920317 541.63002218 -0.12469479 538.44146147 -0.12025452 535.25285339 C-0.12069037 532.95102419 -0.12156553 530.64919504 -0.12284368 528.34736615 C-0.12508591 522.00797999 -0.12107104 515.66861063 -0.11606562 509.32922661 C-0.11171041 503.19937183 -0.1130255 497.06951694 -0.11374746 490.93966108 C-0.11506184 478.39884535 -0.11171816 465.85803489 -0.10573006 453.31722069 C-0.09981531 440.89822552 -0.09596457 428.47923254 -0.09487724 416.06023598 C-0.0948085 415.28838452 -0.09473976 414.51653306 -0.09466894 413.72129216 C-0.09433061 409.80153194 -0.09402923 405.88177172 -0.09374207 401.96201149 C-0.09164103 374.19024901 -0.08490192 346.41848939 -0.07543945 318.64672852 C-0.06625676 291.66495783 -0.0591892 264.68318794 -0.05493164 237.70141602 C-0.054661 236.00504309 -0.05439029 234.30867016 -0.05411953 232.61229724 C-0.05193079 218.82880566 -0.0498882 205.04531407 -0.04788104 191.26182247 C-0.03849178 127.50787893 -0.01842185 63.75394287 0 0 Z M1 1 C0.91391096 97.48027879 0.91391096 97.48027879 0.85550511 193.96056473 C0.84938124 207.92211412 0.84311733 221.88366344 0.83642202 235.84521257 C0.8356125 237.53405416 0.83480739 239.22289574 0.83400673 240.91173733 C0.8211971 267.85434765 0.79867898 294.79693913 0.77110834 321.73953805 C0.74283307 349.42086639 0.7243489 377.10218431 0.71825503 404.78352685 C0.71739051 408.68974208 0.7164136 412.59595728 0.71536827 416.50217247 C0.715166 417.27100187 0.71496373 418.03983127 0.71475533 418.83195853 C0.71120467 431.22791644 0.69727568 443.62384221 0.6795039 456.01978699 C0.66187465 468.46983124 0.65508789 480.91984349 0.65949587 493.36989979 C0.66158238 500.12052337 0.65837746 506.87104657 0.64238358 513.62165451 C0.62786805 519.7930225 0.62699294 525.96423143 0.63730332 532.13560649 C0.63857906 534.37656344 0.63470312 536.61753 0.62535045 538.85846779 C0.61343309 541.88837669 0.61972499 544.91769992 0.63085651 547.94759846 C0.62297547 548.83173348 0.61509443 549.71586851 0.60697457 550.6267955 C0.50109093 554.97329708 0.50109093 554.97329708 2.37263284 558.7227461 C4.70375105 560.55234541 6.39172407 560.37375776 9.33267403 560.3719368 C10.44575027 560.37852664 11.55882651 560.38511649 12.70563233 560.39190602 C13.93353324 560.38384962 15.16143416 560.37579321 16.42654419 560.36749268 C17.72697155 560.37076152 19.02739891 560.37403036 20.36723316 560.37739825 C23.98431757 560.38606955 27.60114637 560.37595953 31.21820855 560.36285591 C35.11596746 560.35198211 39.01370211 560.35836696 42.91146851 560.36264038 C50.54957773 560.36828152 58.18758681 560.35794463 65.82567896 560.34235242 C74.71236458 560.32484309 83.59903057 560.32339381 92.48573075 560.32273683 C108.33572371 560.32104774 124.18567093 560.30521939 140.03564453 560.28125 C155.43213277 560.25798316 170.82859198 560.24382433 186.22509766 560.24023438 C187.17360868 560.24001161 188.1221197 560.23978884 189.09937347 560.23955932 C191.0100361 560.23911674 192.92069872 560.23867471 194.83136135 560.23823325 C196.2449772 560.2379039 196.2449772 560.2379039 197.68715096 560.2375679 C199.09709196 560.23724392 199.09709196 560.23724392 200.53551663 560.2369134 C215.18653078 560.23321651 229.83754022 560.22185721 244.48854921 560.2094375 C249.80733422 560.20499593 255.12611879 560.20156029 260.44490494 560.19881538 C268.87895668 560.19439089 277.31299105 560.18664556 285.74703182 560.17204097 C289.6032871 560.16541552 293.45952698 560.1603651 297.31578827 560.15958023 C301.48635467 560.15865377 305.65686754 560.14999339 309.8274231 560.14044189 C311.67596663 560.14174162 311.67596663 560.14174162 313.56185448 560.1430676 C315.2236456 560.13730588 315.2236456 560.13730588 316.91900826 560.13142776 C317.88301084 560.13018127 318.84701342 560.12893477 319.8402282 560.1276505 C321.98031592 560.24106912 321.98031592 560.24106912 323 559 C323.09998856 556.0710295 323.1335904 553.16557574 323.12584114 550.2361021 C323.12729458 549.30078762 323.12874802 548.36547314 323.13024551 547.4018158 C323.13393336 544.22608792 323.13040628 541.0504072 323.12698364 537.87467957 C323.12813437 535.59152763 323.12972156 533.30837587 323.13171089 531.02522451 C323.13591099 524.71872945 323.13381046 518.41224939 323.13072467 512.10575426 C323.12821913 506.01313108 323.13135403 499.92050949 323.13387203 493.82788675 C323.13914926 480.58941082 323.13867677 467.35093971 323.13579312 454.11246333 C323.13328153 442.52565672 323.132619 430.93885188 323.13381577 419.35204506 C323.13389215 418.58465818 323.13396854 417.8172713 323.13404724 417.02663028 C323.13435856 413.91183774 323.13467695 410.7970452 323.135007 407.68225266 C323.13806908 378.43579045 323.13528782 349.18933131 323.1299101 319.94286957 C323.12516558 293.94229877 323.12558758 267.94173287 323.13037109 241.94116211 C323.13572285 212.75408758 323.13785053 183.56701576 323.13475883 154.37994081 C323.1344381 151.26976128 323.13412526 148.15958176 323.13381577 145.04940224 C323.13373669 144.28355306 323.13365761 143.51770389 323.13357614 142.72864716 C323.13243734 131.14939611 323.13377144 119.57014701 323.13629532 107.99089622 C323.13915043 94.82607138 323.13844869 81.66125212 323.13301457 68.49642798 C323.13033148 61.77406244 323.12936961 55.05170748 323.13266373 48.32934189 C323.13563025 42.18267743 323.13402784 36.03603222 323.12868617 29.88936953 C323.12756351 27.6585222 323.12814987 25.42767326 323.13056196 23.19682696 C323.13357684 20.17833487 323.13050998 17.15990983 323.12584114 14.14142132 C323.12818231 13.26340785 323.13052347 12.38539437 323.13293558 11.48077443 C323.13043207 10.67792836 323.12792855 9.87508228 323.12534916 9.04790753 C323.1252814 8.35744907 323.12521365 7.6669906 323.12514383 6.95560915 C323.0353278 4.63106846 323.0353278 4.63106846 322 1 C216.07 1 110.14 1 1 1 Z " fill="#BFBDBB" transform="translate(52,34)"/>
<path d="M0 0 C36.54508061 -0.0228651 73.09015996 -0.04049758 109.63524624 -0.05106533 C113.94506326 -0.05231611 118.25488027 -0.05361042 122.56469727 -0.05493164 C123.85176346 -0.05532511 123.85176346 -0.05532511 125.16483099 -0.05572652 C139.07688928 -0.06008348 152.98894346 -0.06797117 166.9009993 -0.0771528 C181.1651504 -0.08648862 195.42929934 -0.09205546 209.69345337 -0.09408849 C218.50246567 -0.09546387 227.31146634 -0.09981525 236.12047506 -0.10791647 C242.15272758 -0.11318304 248.18497405 -0.1148045 254.2172287 -0.11350138 C257.70284421 -0.11285786 261.18843935 -0.11387707 264.67405128 -0.11920547 C268.44408935 -0.12413499 272.21407651 -0.12300104 275.9841156 -0.12025452 C277.09790492 -0.12316736 278.21169424 -0.1260802 279.35923475 -0.12908131 C280.36096033 -0.12709026 281.36268591 -0.12509921 282.39476681 -0.12304783 C283.70195404 -0.12361741 283.70195404 -0.12361741 285.0355491 -0.1241985 C287 0 287 0 288 1 C288.09897987 3.7562112 288.13175586 6.48738417 288.12304783 9.24408054 C288.12420167 10.1231887 288.12535552 11.00229686 288.12654433 11.90804467 C288.12921881 14.89253666 288.12468204 17.87697612 288.12025452 20.86146545 C288.12069005 23.00722483 288.12156462 25.15298415 288.12284368 27.29874319 C288.12509218 33.22530894 288.12106254 39.15185681 288.11606562 45.07842028 C288.11176636 51.45814874 288.11320717 57.8378761 288.1139679 64.21760559 C288.11449347 75.28094286 288.11137796 86.34427417 288.10573006 97.40760994 C288.0998196 109.01491384 288.09596544 120.6222154 288.09487724 132.2295208 C288.0948085 132.95035238 288.09473976 133.67118397 288.09466894 134.41385894 C288.09433062 138.07437333 288.09402923 141.73488773 288.09374207 145.39540213 C288.09163984 171.34473908 288.08489742 197.29407297 288.07543945 223.2434082 C288.06625989 248.45792627 288.0591908 273.67244349 288.05493164 298.88696289 C288.054661 300.47164327 288.05439029 302.05632365 288.05411953 303.64100403 C288.05193086 316.51652292 288.04988824 329.39204184 288.04788104 342.26756076 C288.03848798 401.84504341 288.01841906 461.42251807 288 521 C192.63 521 97.26 521 -1 521 C-1.04037864 390.68466126 -1.04037864 390.68466126 -1.04816496 340.84178686 C-1.05020626 327.80763644 -1.05229424 314.77348602 -1.05452599 301.73933563 C-1.05479583 300.16266619 -1.0550642 298.58599676 -1.05533109 297.00932732 C-1.05960133 271.85407522 -1.06710765 246.69882536 -1.07629722 221.54357462 C-1.08572127 195.69964785 -1.09188346 169.85572233 -1.09391499 144.01179388 C-1.09420316 140.36526793 -1.0945288 136.71874198 -1.09487724 133.07221603 C-1.09494467 132.35449578 -1.09501209 131.63677553 -1.09508156 130.89730617 C-1.09626533 119.32313655 -1.10090893 107.74897075 -1.10683203 96.17480269 C-1.11270697 84.55149442 -1.11488986 72.92819091 -1.11350138 61.30488111 C-1.11285791 55.00199958 -1.11387652 48.69912932 -1.11920547 42.39624977 C-1.12404108 36.63515582 -1.12433757 30.8740808 -1.12089889 25.11298601 C-1.12047336 23.02009713 -1.12176774 20.92720711 -1.12488318 18.8343205 C-1.12885026 16.00669361 -1.12676139 13.17913663 -1.12304783 10.351511 C-1.12567484 9.52410975 -1.12830186 8.69670849 -1.13100848 7.84423447 C-1.1141458 2.2282916 -1.1141458 2.2282916 0 0 Z M3 3 C3 173.61 3 344.22 3 520 C96.72 520 190.44 520 287 520 C287.0286947 430.41777826 287.0286947 430.41777826 287.04816496 340.83555567 C287.05020628 327.87465133 287.05229426 314.91374699 287.05452599 301.95284268 C287.05479583 300.38502167 287.0550642 298.81720067 287.05533109 297.24937967 C287.05960179 272.23262572 287.06710845 247.21587403 287.07629722 222.19912144 C287.08571999 196.49877684 287.09188316 170.79843349 287.09391499 145.09808719 C287.09420317 141.47232238 287.0945288 137.84655757 287.09487724 134.22079277 C287.09494467 133.50715455 287.09501209 132.79351632 287.09508156 132.05825269 C287.09626561 120.54711422 287.10090995 109.03597959 287.10683203 97.52484269 C287.11270514 85.96652362 287.11489029 74.40820989 287.11350138 62.84988911 C287.11285765 56.58156099 287.11387939 50.31324419 287.11920547 44.04491806 C287.12403752 38.31656721 287.12433995 32.58823541 287.12089889 26.85988372 C287.12047301 24.77777971 287.12177038 22.69567457 287.12488318 20.61357284 C287.12884388 17.80289497 287.12676545 14.99228764 287.12304783 12.18161106 C287.12567484 11.35639583 287.12830186 10.53118059 287.13100848 9.68095884 C287.46440966 6.0414201 287.46440966 6.0414201 286 3 C284.4882886 2.90316071 282.9720461 2.87628279 281.45723629 2.87695217 C280.46913275 2.8749613 279.48102921 2.87297043 278.46298313 2.87091923 C277.36506915 2.87383189 276.26715517 2.87674456 275.13597107 2.87974548 C273.98227524 2.87888947 272.82857941 2.87803345 271.6399231 2.87715149 C268.41685975 2.87577821 265.19383598 2.87893747 261.97077732 2.88392727 C258.44956617 2.88827555 254.92835669 2.88683388 251.40714359 2.88610935 C244.56330582 2.88557639 237.7194811 2.89020637 230.87564668 2.89661068 C222.96401217 2.90379348 215.05238557 2.90460448 207.14074707 2.90539551 C186.23966263 2.91065193 165.33858112 2.92461295 144.4375 2.9375 C97.763125 2.958125 51.08875 2.97875 3 3 Z " fill="#E3DFDF" transform="translate(71,55)"/>
<path d="M0 0 C96.03 0 192.06 0 291 0 C291 1.65 291 3.3 291 5 C195.96 4.67 100.92 4.34 3 4 C2.67 175.93 2.34 347.86 2 525 C1.34 525 0.68 525 0 525 C0 351.75 0 178.5 0 0 Z " fill="#868584" transform="translate(68,51)"/>
<path d="M0 0 C96.69 0.33 193.38 0.66 293 1 C293 1.33 293 1.66 293 2 C196.97 2 100.94 2 2 2 C2 58.43 2 114.86 2 173 C1.34 173.33 0.68 173.66 0 174 C-0.33 185.22 -0.66 196.44 -1 208 C-1.33 208 -1.66 208 -2 208 C-2.06058594 207.30132812 -2.12117188 206.60265625 -2.18359375 205.8828125 C-2.26738281 204.97273437 -2.35117187 204.06265625 -2.4375 203.125 C-2.51871094 202.22007812 -2.59992187 201.31515625 -2.68359375 200.3828125 C-2.86989285 197.98889139 -2.86989285 197.98889139 -4 196 C-4.99 196 -5.98 196 -7 196 C-7.33 196.99 -7.66 197.98 -8 199 C-8.33 199 -8.66 199 -9 199 C-9 193.39 -9 187.78 -9 182 C-9.66 182 -10.32 182 -11 182 C-11.495 182.99 -11.495 182.99 -12 184 C-12 139.78 -12 95.56 -12 50 C-11.67 50 -11.34 50 -11 50 C-10.505 47.03 -10.505 47.03 -10 44 C-7 45 -7 45 -6 47 C-5.8198457 49.78081427 -5.69408744 52.5440744 -5.60546875 55.328125 C-5.53908112 57.08287674 -5.47182482 58.83759579 -5.40380859 60.59228516 C-5.3514505 61.97858124 -5.3514505 61.97858124 -5.29803467 63.3928833 C-4.57262309 82.14343072 -2.97879446 100.46383358 0 119 C0.02465622 114.74585377 0.04283899 110.49174502 0.05493164 106.23754883 C0.05997101 104.78929927 0.06680253 103.34105483 0.07543945 101.89282227 C0.08752247 99.81525412 0.09323211 97.73775303 0.09765625 95.66015625 C0.10289307 94.40855713 0.10812988 93.15695801 0.11352539 91.86743164 C0.32887035 89.10267706 0.32887035 89.10267706 -1 88 C-2.72988821 76.22143716 -2.11312328 64.05340652 -2.0625 52.1875 C-2.05747388 50.12695422 -2.05291295 48.06640724 -2.04882812 46.00585938 C-2.0379131 41.00387639 -2.02071004 36.00195163 -2 31 C-1.67 31 -1.34 31 -1 31 C-0.67 20.77 -0.34 10.54 0 0 Z " fill="#594138" transform="translate(66,49)"/>
<path d="M0 0 C32.33229569 -0.02282223 64.66458909 -0.04051466 96.99689096 -0.05106533 C100.81571703 -0.05231601 104.63454309 -0.05361033 108.45336914 -0.05493164 C109.21361511 -0.05519395 109.97386109 -0.05545626 110.75714482 -0.05572652 C123.06010032 -0.0600755 135.36305115 -0.06795881 147.66600388 -0.0771528 C160.29393562 -0.0865108 172.92186491 -0.09206016 185.54979998 -0.09408849 C193.3392355 -0.09545926 201.12865778 -0.09978569 208.91808922 -0.10791647 C214.8952831 -0.11383703 220.87246563 -0.11445352 226.84966278 -0.11310768 C229.29858291 -0.11338263 231.74750353 -0.11536965 234.19642067 -0.11920547 C237.54327319 -0.12419033 240.89006936 -0.12298059 244.23692322 -0.12025452 C245.20289946 -0.12316736 246.1688757 -0.1260802 247.16412395 -0.12908131 C252.85435104 -0.11657888 258.35501789 0.27362415 264 1 C262.68 2.32 261.36 3.64 260 5 C260.72703125 4.98839844 261.4540625 4.97679687 262.203125 4.96484375 C269.52631959 4.89912277 276.71366686 5.2765343 284 6 C284 6.33 284 6.66 284 7 C262.05898665 9.55446309 262.05898665 9.55446309 252 6 C249.22252318 6.28639786 249.22252318 6.28639786 247 7 C247 7.99 247 8.98 247 10 C233.47 10.33 219.94 10.66 206 11 C207.98 11.33 209.96 11.66 212 12 C212 12.33 212 12.66 212 13 C205.62796407 13.0505963 199.2559797 13.08568957 192.88378906 13.10986328 C190.71482406 13.11993789 188.54587269 13.13359798 186.37695312 13.15087891 C183.26428874 13.17506323 180.15180349 13.18646832 177.0390625 13.1953125 C176.065065 13.20563507 175.0910675 13.21595764 174.08755493 13.22659302 C172.73638077 13.22681961 172.73638077 13.22681961 171.35791016 13.22705078 C170.56293121 13.231492 169.76795227 13.23593323 168.94888306 13.24050903 C167 13 167 13 165 11 C162.93125966 10.3574765 162.93125966 10.3574765 161 10 C161 9.34 161 8.68 161 8 C160.01 8.33 159.02 8.66 158 9 C155.8125 8.0625 155.8125 8.0625 154 7 C158.17737474 5.40861915 161.53160785 4.78721942 166 5 C166 4.01 166 3.02 166 2 C111.88 1.67 57.76 1.34 2 1 C2.33 2.65 2.66 4.3 3 6 C3.99 6 4.98 6 6 6 C6.25515919 13.52719602 5.28297723 20.58851545 4 28 C3.34 28 2.68 28 2 28 C2 33.94 2 39.88 2 46 C4.3375033 42.49374505 4.58955123 39.59451798 5 35.5234375 C5.16665982 34.0338534 5.33332669 32.54427009 5.5 31.0546875 C5.75245759 28.7066347 6.00176846 26.35826875 6.25 24.00976562 C6.49243844 21.74258742 6.74581474 19.4768238 7 17.2109375 C7.07089844 16.50367523 7.14179687 15.79641296 7.21484375 15.06771851 C7.40658245 13.36911229 7.69435445 11.68184648 8 10 C8.66 9.67 9.32 9.34 10 9 C11.2062252 12.61867559 11.10816918 15.92506251 11.0625 19.6875 C11.05798828 20.38939453 11.05347656 21.09128906 11.04882812 21.81445312 C11.03706927 23.54300538 11.01913454 25.27151365 11 27 C11.33 27 11.66 27 12 27 C12 32.94 12 38.88 12 45 C11.67 45 11.34 45 11 45 C10.97451322 51.52871867 10.95707593 58.05742437 10.94506836 64.58618164 C10.94005916 66.80428548 10.93324995 69.02238604 10.92456055 71.24047852 C10.91234484 74.44027517 10.9067374 77.64002792 10.90234375 80.83984375 C10.89718246 81.82145981 10.89202118 82.80307587 10.88670349 83.81443787 C10.88623684 89.62378397 11.17159647 95.24552156 12 101 C12.33 101.33 12.66 101.66 13 102 C13.08868299 104.95705321 13.11520296 107.89065056 13.09765625 110.84765625 C13.0962413 111.7340831 13.09482635 112.62050995 13.09336853 113.53379822 C13.08775215 116.37673254 13.07519691 119.21958931 13.0625 122.0625 C13.05748711 123.98502491 13.05292384 125.90755104 13.04882812 127.83007812 C13.03777741 132.55341549 13.02050183 137.27669458 13 142 C12.67 142 12.34 142 12 142 C11.88406494 140.96593018 11.76812988 139.93186035 11.64868164 138.86645508 C11.21660517 135.01773882 10.78169695 131.16934688 10.34594727 127.32104492 C10.15800371 125.65772018 9.97082079 123.99430931 9.78442383 122.33081055 C9.51585219 119.93515153 9.24451652 117.53981902 8.97265625 115.14453125 C8.89032242 114.4047554 8.80798859 113.66497955 8.72315979 112.90278625 C8.40321128 110.10210411 8.07600476 107.34318565 7.46606445 104.58911133 C6.74070735 100.55956073 6.70525591 96.51604589 6.5703125 92.4296875 C6.49671123 90.54554869 6.42247343 88.66143466 6.34765625 86.77734375 C6.23385577 83.81705344 6.12439566 80.85683697 6.02587891 77.89599609 C5.92857866 75.03157178 5.81339104 72.16832036 5.6953125 69.3046875 C5.67018585 68.4171579 5.6450592 67.5296283 5.61917114 66.61520386 C5.58258392 65.79069733 5.5459967 64.9661908 5.50830078 64.11669922 C5.46952316 63.03012527 5.46952316 63.03012527 5.42996216 61.92160034 C5.07766362 59.54201827 5.07766362 59.54201827 2 57 C2 66.57 2 76.14 2 86 C1.67 86 1.34 86 1 86 C-0.00260981 68.06718751 -0.12571278 50.16954052 -0.06866455 32.21630859 C-0.05822261 28.56803998 -0.05382343 24.91976379 -0.04882812 21.27148438 C-0.038273 14.18097193 -0.02132936 7.09048895 0 0 Z " fill="#3C2B26" transform="translate(54,36)"/>
<path d="M0 0 C0.33 0 0.66 0 1 0 C1.33 7.92 1.66 15.84 2 24 C2.66 16.74 3.32 9.48 4 2 C4.33 2 4.66 2 5 2 C5.02927632 5.52081558 5.04689119 9.04159939 5.0625 12.5625 C5.07087891 13.55314453 5.07925781 14.54378906 5.08789062 15.56445312 C5.10537878 20.82838771 4.83366898 25.78956887 4 31 C3.9383819 32.8115721 3.91267192 34.62505032 3.9375 36.4375 C3.94652344 37.30246094 3.95554687 38.16742188 3.96484375 39.05859375 C3.97644531 39.69925781 3.98804688 40.33992188 4 41 C3.34 41 2.68 41 2 41 C2 48.26 2 55.52 2 63 C2.66 60.36 3.32 57.72 4 55 C4.66 55 5.32 55 6 55 C6.07749896 59.57243893 5.91858816 63.52188274 5 68 C4.96175377 70.33301986 4.95425716 72.66711508 5 75 C5.99 74.505 5.99 74.505 7 74 C8.0024305 79.34629602 7.84888195 83.62374766 7 89 C7.24234375 88.16855469 7.4846875 87.33710938 7.734375 86.48046875 C8.06953125 85.39378906 8.4046875 84.30710937 8.75 83.1875 C9.07484375 82.10855469 9.3996875 81.02960938 9.734375 79.91796875 C11.10864315 76.74951718 12.22619297 75.90267369 15 74 C15.0234724 83.85127692 15.0410887 93.70254687 15.05181217 103.55384636 C15.05696642 108.13128543 15.063923 112.70870498 15.07543945 117.28613281 C15.16074129 152.24147675 15.16074129 152.24147675 14.62109375 168.2578125 C14.59048355 169.29791473 14.55987335 170.33801697 14.52833557 171.40963745 C14.33870244 176.0668165 14.01299803 179.72774095 12 184 C11.81964681 187.38509071 11.72889986 190.72930289 11.78515625 194.1171875 C11.734375 196.1875 11.734375 196.1875 11 200 C9.02479948 201.69598369 7.02471313 203.36344431 5 205 C3.95842813 209.89769234 3.83094298 214.80572705 3.75390625 219.796875 C3.72101132 221.26432986 3.68779904 222.73177763 3.65429688 224.19921875 C3.60669066 226.48579725 3.56211974 228.77233848 3.52319336 231.05908203 C3.48354793 233.28444907 3.43204404 235.50929499 3.37890625 237.734375 C3.3704921 238.41876648 3.36207794 239.10315796 3.35340881 239.80828857 C3.25939237 243.4118067 3.05741329 244.91388007 1 248 C0.82602926 225.97922031 0.65993636 203.95838593 0.5 181.9375 C0.49405146 181.11969512 0.48810292 180.30189023 0.48197412 179.45930338 C0.15021612 133.78501293 -0.09806951 88.11320086 -0.0625 42.4375 C-0.06164398 41.32996746 -0.06078796 40.22243492 -0.05990601 39.08134079 C-0.04904314 26.05420824 -0.029872 13.02710272 0 0 Z " fill="#362521" transform="translate(359,184)"/>
<path d="M0 0 C0.66 0 1.32 0 2 0 C2.01711058 52.78842088 2.0330322 105.576842 2.04234314 158.36526489 C2.0424812 159.14598338 2.04261925 159.92670186 2.04276149 160.73107848 C2.04575408 177.69633465 2.04852431 194.66159084 2.05106533 211.62684708 C2.05231272 219.94605561 2.05360926 228.26526414 2.05493164 236.58447266 C2.0550624 237.41235399 2.05519316 238.24023532 2.05532788 239.09320397 C2.05959269 265.94922796 2.06710658 292.80524986 2.07629722 319.66127258 C2.08572111 347.24883812 2.09188342 374.83640251 2.09391499 402.42396964 C2.09420316 406.316451 2.0945288 410.20893237 2.09487724 414.10141373 C2.09494467 414.86754425 2.09501209 415.63367477 2.09508156 416.42302136 C2.09626537 428.7782507 2.10090906 441.13347646 2.10683203 453.48870434 C2.11270674 465.8961575 2.11497113 478.30360708 2.11350138 490.71106158 C2.11280561 497.43924897 2.11387688 504.16742516 2.11920547 510.89561081 C2.12404062 517.04529319 2.12433787 523.19495782 2.12089889 529.34464099 C2.12047332 531.57884789 2.12176807 533.81305586 2.12488318 536.04726063 C2.12884945 539.06548966 2.1267619 542.08365318 2.12304783 545.10188103 C2.12567484 545.98543437 2.12830186 546.86898772 2.13100848 547.77931541 C2.1141458 553.7717084 2.1141458 553.7717084 1 556 C-104.93 556 -210.86 556 -320 556 C-320.33 554.35 -320.66 552.7 -321 551 C-320.34 551.33 -319.68 551.66 -319 552 C-319 552.66 -319 553.32 -319 554 C-214.06 553.67 -109.12 553.34 -1 553 C-0.67 370.51 -0.34 188.02 0 0 Z " fill="#999998" transform="translate(375,40)"/>
<path d="M0 0 C94.71 0 189.42 0 287 0 C287 0.33 287 0.66 287 1 C192.95 1 98.9 1 2 1 C1.67 172.27 1.34 343.54 1 520 C95.71 520 190.42 520 288 520 C288 520.33 288 520.66 288 521 C192.63 521 97.26 521 -1 521 C-1.04037864 390.68466126 -1.04037864 390.68466126 -1.04816496 340.84178686 C-1.05020626 327.80763644 -1.05229424 314.77348602 -1.05452599 301.73933563 C-1.05479583 300.16266619 -1.0550642 298.58599676 -1.05533109 297.00932732 C-1.05960133 271.85407522 -1.06710765 246.69882536 -1.07629722 221.54357462 C-1.08572127 195.69964785 -1.09188346 169.85572233 -1.09391499 144.01179388 C-1.09420316 140.36526793 -1.0945288 136.71874198 -1.09487724 133.07221603 C-1.09494467 132.35449578 -1.09501209 131.63677553 -1.09508156 130.89730617 C-1.09626533 119.32313655 -1.10090893 107.74897075 -1.10683203 96.17480269 C-1.11270697 84.55149442 -1.11488986 72.92819091 -1.11350138 61.30488111 C-1.11285791 55.00199958 -1.11387652 48.69912932 -1.11920547 42.39624977 C-1.12404108 36.63515582 -1.12433757 30.8740808 -1.12089889 25.11298601 C-1.12047336 23.02009713 -1.12176774 20.92720711 -1.12488318 18.8343205 C-1.12885026 16.00669361 -1.12676139 13.17913663 -1.12304783 10.351511 C-1.12567484 9.52410975 -1.12830186 8.69670849 -1.13100848 7.84423447 C-1.1141458 2.2282916 -1.1141458 2.2282916 0 0 Z " fill="#BCBBBD" transform="translate(71,55)"/>
<path d="M0 0 C0.33 0 0.66 0 1 0 C1.01710961 52.80253526 1.03303135 105.60507076 1.04234314 158.40760803 C1.0424812 159.18846457 1.04261925 159.96932111 1.04276149 160.77383998 C1.04575405 177.74186409 1.04852428 194.70988823 1.05106533 211.67791241 C1.05231272 219.99840971 1.05360927 228.31890701 1.05493164 236.6394043 C1.0550624 237.46741639 1.05519316 238.29542848 1.05532788 239.14853185 C1.05959312 266.01154562 1.06710733 292.8745573 1.07629722 319.7375698 C1.0857199 347.33100793 1.09188314 374.92444491 1.09391499 402.51788463 C1.09420317 406.41068674 1.0945288 410.30348886 1.09487724 414.19629097 C1.09494467 414.96248891 1.09501209 415.72868686 1.09508156 416.51810292 C1.09626563 428.87724908 1.10091002 441.23639167 1.10683203 453.59553637 C1.11270501 466.00521264 1.11497157 478.41488535 1.11350138 490.82456296 C1.11280534 497.55465171 1.11387959 504.28472927 1.11920547 511.01481628 C1.12403727 517.16506314 1.12434011 523.31529225 1.12089889 529.46553988 C1.12047298 531.70107488 1.12177056 533.93661094 1.12488318 536.17214381 C1.12884344 539.18976113 1.12676573 542.20731274 1.12304783 545.22492886 C1.12567484 546.11110922 1.12830186 546.99728958 1.13100848 547.91032389 C1.1141458 553.8858542 1.1141458 553.8858542 0 555 C-1.69416303 555.09726802 -3.39241883 555.12371513 -5.08937168 555.12304783 C-6.19908252 555.12503888 -7.30879336 555.12702993 -8.45213181 555.12908131 C-10.30374488 555.12471205 -10.30374488 555.12471205 -12.19276428 555.12025452 C-13.49218836 555.12110894 -14.79161243 555.12196337 -16.130413 555.12284368 C-19.75386512 555.1250911 -23.37728797 555.12106402 -27.00073636 555.11606562 C-30.90191407 555.11176482 -34.80309 555.11320728 -38.70426941 555.1139679 C-45.46886146 555.11449337 -52.23344389 555.11134416 -58.99803352 555.10573006 C-68.77860866 555.09761818 -78.55917912 555.09500016 -88.33975726 555.09374207 C-104.20640656 555.09155105 -120.07305074 555.08488964 -135.93969727 555.07543945 C-151.35668919 555.06626661 -166.77367973 555.05918515 -182.19067383 555.05493164 C-183.1402757 555.05466892 -184.08987757 555.05440619 -185.06825525 555.05413551 C-189.83191927 555.05283051 -194.59558329 555.0515668 -199.35924733 555.05032361 C-238.90616848 555.03994946 -278.4530839 555.02232981 -318 555 C-318.495 553.515 -318.495 553.515 -319 552 C-213.73 552 -108.46 552 0 552 C0 369.84 0 187.68 0 0 Z " fill="#686664" transform="translate(374,39)"/>
<path d="M0 0 C0.66 0.33 1.32 0.66 2 1 C4.54080324 9.07724488 4.21977647 17.63628453 4 26 C4.66 26 5.32 26 6 26 C6.02505615 26.75095947 6.0501123 27.50191895 6.07592773 28.27563477 C6.19254942 31.70473533 6.31497417 35.13360553 6.4375 38.5625 C6.47681641 39.74392578 6.51613281 40.92535156 6.55664062 42.14257812 C6.7637504 47.83013123 7.01968432 53.38995814 8 59 C8.99 58.505 8.99 58.505 10 58 C10.07491246 61.89544769 9.95284746 65.24369036 9 69 C8.84889043 71.83388831 8.74368466 74.64860548 8.68359375 77.484375 C8.66281265 78.29996887 8.64203156 79.11556274 8.62062073 79.95587158 C8.55538703 82.55383105 8.49636232 85.15188913 8.4375 87.75 C8.39428986 89.514333 8.35067478 91.27865613 8.30664062 93.04296875 C8.19973255 97.36187884 8.09839173 101.68088784 8 106 C7.67 106 7.34 106 7 106 C6.93941406 105.30132812 6.87882812 104.60265625 6.81640625 103.8828125 C6.73261719 102.97273438 6.64882813 102.06265625 6.5625 101.125 C6.48128906 100.22007812 6.40007813 99.31515625 6.31640625 98.3828125 C6.13010715 95.98889139 6.13010715 95.98889139 5 94 C4.01 94 3.02 94 2 94 C1.67 94.99 1.34 95.98 1 97 C0.67 97 0.34 97 0 97 C0 91.39 0 85.78 0 80 C-0.66 80 -1.32 80 -2 80 C-2.495 80.99 -2.495 80.99 -3 82 C-3.0231824 72.56833969 -3.04094518 63.1366892 -3.05181217 53.7050066 C-3.05702808 49.32538152 -3.0641023 44.94577596 -3.07543945 40.56616211 C-3.08631421 36.3386637 -3.09228658 32.11118404 -3.09487724 27.88367271 C-3.09672321 26.27176302 -3.10032792 24.65985435 -3.10573006 23.04795265 C-3.11300136 20.78821224 -3.11398837 18.52854908 -3.11352539 16.26879883 C-3.115746 14.98306473 -3.11796661 13.69733063 -3.12025452 12.37263489 C-2.95363835 7.69975019 -2.27305618 4.09150112 0 0 Z " fill="#432E29" transform="translate(57,151)"/>
<path d="M0 0 C2.45391569 3.68087353 2.22802759 6.44355588 2.125 10.6875 C2.11597656 11.38939453 2.10695313 12.09128906 2.09765625 12.81445312 C2.07413704 14.54311525 2.03826713 16.27160145 2 18 C2.33 18 2.66 18 3 18 C3 23.94 3 29.88 3 36 C2.67 36 2.34 36 2 36 C1.97451322 42.52871867 1.95707593 49.05742437 1.94506836 55.58618164 C1.94005916 57.80428548 1.93324995 60.02238604 1.92456055 62.24047852 C1.91234484 65.44027517 1.9067374 68.64002792 1.90234375 71.83984375 C1.89718246 72.82145981 1.89202118 73.80307587 1.88670349 74.81443787 C1.88623684 80.62378397 2.17159647 86.24552156 3 92 C3.33 92.33 3.66 92.66 4 93 C4.08868299 95.95705321 4.11520296 98.89065056 4.09765625 101.84765625 C4.0962413 102.7340831 4.09482635 103.62050995 4.09336853 104.53379822 C4.08775215 107.37673254 4.07519691 110.21958931 4.0625 113.0625 C4.05748711 114.98502491 4.05292384 116.90755104 4.04882812 118.83007812 C4.03777741 123.55341549 4.02050183 128.27669458 4 133 C3.67 133 3.34 133 3 133 C2.88406494 131.96593018 2.76812988 130.93186035 2.64868164 129.86645508 C2.21660517 126.01773882 1.78169695 122.16934688 1.34594727 118.32104492 C1.15800371 116.65772018 0.97082079 114.99430931 0.78442383 113.33081055 C0.51585219 110.93515153 0.24451652 108.53981902 -0.02734375 106.14453125 C-0.10967758 105.4047554 -0.19201141 104.66497955 -0.27684021 103.90278625 C-0.59678872 101.10210411 -0.92399524 98.34318565 -1.53393555 95.58911133 C-2.25929265 91.55956073 -2.29474409 87.51604589 -2.4296875 83.4296875 C-2.50328877 81.54554869 -2.57752657 79.66143466 -2.65234375 77.77734375 C-2.76614423 74.81705344 -2.87560434 71.85683697 -2.97412109 68.89599609 C-3.07142134 66.03157178 -3.18660896 63.16832036 -3.3046875 60.3046875 C-3.32981415 59.4171579 -3.3549408 58.5296283 -3.38082886 57.61520386 C-3.41741608 56.79069733 -3.4540033 55.9661908 -3.49169922 55.11669922 C-3.53047684 54.03012527 -3.53047684 54.03012527 -3.57003784 52.92160034 C-3.92233638 50.54201827 -3.92233638 50.54201827 -7 48 C-7 57.57 -7 67.14 -7 77 C-7.33 77 -7.66 77 -8 77 C-9.33250764 55.34675084 -9.09858196 33.68348067 -9 12 C-8.67 12 -8.34 12 -8 12 C-7.67 20.25 -7.34 28.5 -7 37 C-4.66603692 33.49905538 -4.39284042 30.5886927 -3.96484375 26.5234375 C-3.88126114 25.79758453 -3.79767853 25.07173157 -3.71156311 24.32388306 C-3.44585843 22.00838316 -3.19095275 19.69187049 -2.9375 17.375 C-2.67916399 15.05117524 -2.41849397 12.72768037 -2.15272522 10.4046936 C-1.98778661 8.9595584 -1.82738331 7.51389724 -1.67185974 6.06771851 C-1.11186821 1.11186821 -1.11186821 1.11186821 0 0 Z " fill="#4A342E" transform="translate(63,45)"/>
<path d="M0 0 C0.66 0.33 1.32 0.66 2 1 C1.90619443 5.75090911 1.80004133 10.50132484 1.68261719 15.25170898 C1.64441928 16.8665417 1.60955055 18.48145684 1.578125 20.09643555 C1.53227391 22.42266217 1.47431416 24.74832592 1.4140625 27.07421875 C1.39673569 28.15107185 1.39673569 28.15107185 1.37905884 29.24967957 C1.26105586 33.29004063 0.61949581 36.31907273 -1 40 C-1.18035319 43.38509071 -1.27110014 46.72930289 -1.21484375 50.1171875 C-1.265625 52.1875 -1.265625 52.1875 -2 56 C-3.97520052 57.69598369 -5.97528687 59.36344431 -8 61 C-9.04157187 65.89769234 -9.16905702 70.80572705 -9.24609375 75.796875 C-9.27898868 77.26432986 -9.31220096 78.73177763 -9.34570312 80.19921875 C-9.39330934 82.48579725 -9.43788026 84.77233848 -9.47680664 87.05908203 C-9.51645207 89.28444907 -9.56795596 91.50929499 -9.62109375 93.734375 C-9.6295079 94.41876648 -9.63792206 95.10315796 -9.64659119 95.80828857 C-9.74060763 99.4118067 -9.94258671 100.91388007 -12 104 C-12 75.29 -12 46.58 -12 17 C-11.34 17 -10.68 17 -10 17 C-8.61061923 15.03852126 -7.2739589 13.03833424 -6 11 C-5.34 11.66 -4.68 12.32 -4 13 C-3.67 11.35 -3.34 9.7 -3 8 C-2.34 8 -1.68 8 -1 8 C-0.67 5.36 -0.34 2.72 0 0 Z " fill="#372823" transform="translate(372,328)"/>
<path d="M0 0 C0.33 0 0.66 0 1 0 C1 3.96 1 7.92 1 12 C1.33 12 1.66 12 2 12 C2 31.8 2 51.6 2 72 C0.68 72 -0.64 72 -2 72 C-2.12375 71.195625 -2.2475 70.39125 -2.375 69.5625 C-2.58125 68.716875 -2.7875 67.87125 -3 67 C-3.66 66.67 -4.32 66.34 -5 66 C-4.85960448 62.02062229 -4.71168681 58.04155706 -4.5625 54.0625 C-4.50352539 52.38704102 -4.50352539 52.38704102 -4.44335938 50.67773438 C-4.25325874 45.69124839 -4.02066762 40.76213219 -3.40234375 35.80859375 C-2.67539232 32.20029521 -2.67539232 32.20029521 -4 30 C-4.99 31.32 -5.98 32.64 -7 34 C-6.34 34 -5.68 34 -5 34 C-4.97112764 37.81248426 -4.95324508 41.6249407 -4.9375 45.4375 C-4.92912109 46.52611328 -4.92074219 47.61472656 -4.91210938 48.73632812 C-4.90888672 49.77080078 -4.90566406 50.80527344 -4.90234375 51.87109375 C-4.89710693 52.82943115 -4.89187012 53.78776855 -4.88647461 54.77514648 C-5 57 -5 57 -6 58 C-6.12185143 59.34983748 -6.17766831 60.70574701 -6.20532227 62.06079102 C-6.22526749 62.92160782 -6.24521271 63.78242462 -6.26576233 64.66932678 C-6.28247482 65.60473801 -6.29918732 66.54014923 -6.31640625 67.50390625 C-6.33718735 68.45692123 -6.35796844 69.40993622 -6.37937927 70.39183044 C-6.44498177 73.4486441 -6.50380918 76.50554656 -6.5625 79.5625 C-6.60567506 81.62956663 -6.64928901 83.69662414 -6.69335938 85.76367188 C-6.80067401 90.84235595 -6.90191091 95.9211297 -7 101 C-7.33 101 -7.66 101 -8 101 C-8.96826754 95.36098519 -9.11661456 89.94044311 -9.0625 84.2265625 C-9.05871338 83.30338226 -9.05492676 82.38020203 -9.05102539 81.42904663 C-9.0347944 77.50797949 -9.00666746 73.58701974 -8.97949219 69.66601562 C-8.9612919 66.79036959 -8.94927081 63.91474093 -8.9375 61.0390625 C-8.92920166 60.16690094 -8.92090332 59.29473938 -8.91235352 58.39614868 C-8.85874885 48.56248963 -8.85874885 48.56248963 -11.0625 39.0625 C-12.39588709 34.70676884 -12.16080918 30.52052477 -12 26 C-10.68 26.33 -9.36 26.66 -8 27 C-8 27.99 -8 28.98 -8 30 C-7.34 30 -6.68 30 -6 30 C-6.09539062 28.90300781 -6.19078125 27.80601563 -6.2890625 26.67578125 C-6.40165961 25.22140188 -6.51360442 23.7669719 -6.625 22.3125 C-6.68945312 21.59126953 -6.75390625 20.87003906 -6.8203125 20.12695312 C-7.12749211 15.92243225 -7.18264801 12.68233841 -5 9 C-4.01 8.67 -3.02 8.34 -2 8 C-1.19787372 6.12612784 -1.19787372 6.12612784 -0.8125 3.9375 C-0.57466797 2.83728516 -0.57466797 2.83728516 -0.33203125 1.71484375 C-0.22246094 1.14894531 -0.11289062 0.58304688 0 0 Z " fill="#543A2F" transform="translate(372,56)"/>
<path d="M0 0 C21.12 0 42.24 0 64 0 C63.67 0.66 63.34 1.32 63 2 C60.03 2 57.06 2 54 2 C56.97 2.33 59.94 2.66 63 3 C62.8125 5.3125 62.8125 5.3125 62 8 C60.33333333 9 58.66666667 10 57 11 C56.11341534 13.59122743 56.11341534 13.59122743 56 16 C54.68 16.33 53.36 16.66 52 17 C52 14.69 52 12.38 52 10 C42.38196323 7.72880035 32.70196403 7.11277131 22.875 6.375 C21.13797783 6.24013602 19.40099814 6.10472388 17.6640625 5.96875 C13.44317156 5.6395095 9.22177464 5.31769952 5 5 C5.33 4.01 5.66 3.02 6 2 C3.03 1.505 3.03 1.505 0 1 C0 0.67 0 0.34 0 0 Z " fill="#56332A" transform="translate(309,36)"/>
<path d="M0 0 C96.69 0.33 193.38 0.66 293 1 C293 1.33 293 1.66 293 2 C196.97 2 100.94 2 2 2 C2 23.45 2 44.9 2 67 C1.34 66.67 0.68 66.34 0 66 C-1 59 -1 59 0 43 C0 28.81 0 14.62 0 0 Z " fill="#56514F" transform="translate(66,49)"/>
<path d="M0 0 C1.32 0 2.64 0 4 0 C5.01109607 3.03328821 5.15024953 5.14982056 5.19287109 8.32592773 C5.20893402 9.41393173 5.22499695 10.50193573 5.24154663 11.62290955 C5.28597688 16.58364216 5.32703392 21.54424213 5.35009766 26.50512695 C5.36668845 29.12500878 5.39401888 31.74484478 5.43212891 34.36450195 C5.48674171 38.13777186 5.50874593 41.90998251 5.5234375 45.68359375 C5.54610687 46.85659531 5.56877625 48.02959686 5.59213257 49.23814392 C5.57080249 57.40451048 5.57080249 57.40451048 2.53881836 60.56762695 C1.7010083 61.04031006 0.86319824 61.51299316 0 62 C-1.23675755 65.23486197 -1.23675755 65.23486197 -1.8125 68.75 C-2.16248047 70.50570312 -2.16248047 70.50570312 -2.51953125 72.296875 C-2.75736328 73.63492188 -2.75736328 73.63492188 -3 75 C-3.33 75 -3.66 75 -4 75 C-4.2776491 70.18741552 -3.92254518 66.48324495 -2.5 61.875 C1.04667066 48.59599609 -0.5906032 33.89742032 -2.5546875 20.453125 C-3.13594794 15.94580722 -3.19620115 11.53442647 -3 7 C-2.34 7 -1.68 7 -1 7 C-0.67 4.69 -0.34 2.38 0 0 Z " fill="#362B27" transform="translate(369,139)"/>
<path d="M0 0 C0.33 0 0.66 0 1 0 C1.0997852 12.25669228 1.19563299 24.44224712 0.12109375 36.66015625 C-0.00886691 40.24455516 0.33623094 43.47894689 1 47 C1.33 47.33 1.66 47.66 2 48 C2.0953919 49.37876025 2.12188622 50.76236916 2.12025452 52.14442444 C2.12162918 53.03769943 2.12300385 53.93097443 2.12442017 54.85131836 C2.12082489 55.83890137 2.11722961 56.82648438 2.11352539 57.84399414 C2.11367142 58.87801865 2.11381744 59.91204315 2.1139679 60.97740173 C2.11326827 64.41334086 2.10547358 67.84922653 2.09765625 71.28515625 C2.09579225 73.66027293 2.09436826 76.03539 2.09336853 78.4105072 C2.08954197 84.67576144 2.0797105 90.94099267 2.06866455 97.20623779 C2.0584534 103.5938689 2.05387155 109.98150371 2.04882812 116.36914062 C2.03808836 128.91277026 2.02120127 141.45638391 2 154 C1.34 154.33 0.68 154.66 0 155 C0 150.71 0 146.42 0 142 C-0.66 142.33 -1.32 142.66 -2 143 C-2.33 138.05 -2.66 133.1 -3 128 C-2.34 128 -1.68 128 -1 128 C-1 118.76 -1 109.52 -1 100 C-0.67 100 -0.34 100 0 100 C0.02465622 95.74585377 0.04283899 91.49174502 0.05493164 87.23754883 C0.05997101 85.78929927 0.06680253 84.34105483 0.07543945 82.89282227 C0.08752247 80.81525412 0.09323211 78.73775303 0.09765625 76.66015625 C0.10289307 75.40855713 0.10812988 74.15695801 0.11352539 72.86743164 C0.32887035 70.10267706 0.32887035 70.10267706 -1 69 C-2.72988821 57.22143716 -2.11312328 45.05340652 -2.0625 33.1875 C-2.05747388 31.12695422 -2.05291295 29.06640724 -2.04882812 27.00585938 C-2.0379131 22.00387639 -2.02071004 17.00195163 -2 12 C-1.67 12 -1.34 12 -1 12 C-0.67 8.04 -0.34 4.08 0 0 Z " fill="#553A32" transform="translate(66,68)"/>
<path d="M0 0 C0.66 0.33 1.32 0.66 2 1 C1.90619443 5.75090911 1.80004133 10.50132484 1.68261719 15.25170898 C1.64441928 16.8665417 1.60955055 18.48145684 1.578125 20.09643555 C1.53227391 22.42266217 1.47431416 24.74832592 1.4140625 27.07421875 C1.40251129 27.79212082 1.39096008 28.51002289 1.37905884 29.24967957 C1.26105121 33.29019966 0.62167623 36.3196737 -1 40 C-1.24230982 43.47195352 -1.36584802 46.90279127 -1.390625 50.38085938 C-1.4609375 52.48046875 -1.4609375 52.48046875 -2 56 C-4.03369141 57.2199707 -4.03369141 57.2199707 -6 58 C-6.33108145 41.05542128 -6.3014764 24.70389845 -3 8 C-2.34 8 -1.68 8 -1 8 C-0.67 5.36 -0.34 2.72 0 0 Z " fill="#482F29" transform="translate(372,328)"/>
<path d="M0 0 C0.66 0 1.32 0 2 0 C2.66 2.97 3.32 5.94 4 9 C4.33 9 4.66 9 5 9 C5.33 23.52 5.66 38.04 6 53 C5.34 53 4.68 53 4 53 C3.67 53.99 3.34 54.98 3 56 C2.67 56 2.34 56 2 56 C2 50.39 2 44.78 2 39 C1.34 39 0.68 39 0 39 C-0.33 39.66 -0.66 40.32 -1 41 C-1.02473982 35.80387722 -1.04287892 30.60778882 -1.05493164 25.41162109 C-1.05995687 23.64436241 -1.06677809 21.87710788 -1.07543945 20.10986328 C-1.08758428 17.56802343 -1.09324645 15.0262386 -1.09765625 12.484375 C-1.10281754 11.69569031 -1.10797882 10.90700562 -1.11329651 10.09442139 C-1.11365758 6.55463597 -0.95395888 3.40499206 0 0 Z " fill="#42312B" transform="translate(55,192)"/>
<path d="M0 0 C0.33 0 0.66 0 1 0 C1.06058594 0.63808594 1.12117188 1.27617187 1.18359375 1.93359375 C1.26738281 2.75988281 1.35117187 3.58617187 1.4375 4.4375 C1.51871094 5.26121094 1.59992187 6.08492187 1.68359375 6.93359375 C1.78930815 8.98662025 1.78930815 8.98662025 3 10 C3.33 7.03 3.66 4.06 4 1 C5.70484981 4.40969962 6.28972838 5.88480923 6.6328125 9.45703125 C6.71660156 10.32392578 6.80039062 11.19082031 6.88671875 12.08398438 C6.96535156 12.98439453 7.04398438 13.88480469 7.125 14.8125 C7.21136719 15.67037109 7.29773437 16.52824219 7.38671875 17.41210938 C8.59811985 30.55484993 7.98117617 43.77017914 7.5 56.9375 C7.45158354 58.31444473 7.4034056 59.69139787 7.35546875 61.06835938 C7.23930606 64.37899603 7.12078961 67.6895295 7 71 C6.67 71 6.34 71 6 71 C5.67 58.79 5.34 46.58 5 34 C4.67 34 4.34 34 4 34 C3.67 30.7 3.34 27.4 3 24 C2.34 24 1.68 24 1 24 C0.67 25.32 0.34 26.64 0 28 C0 18.76 0 9.52 0 0 Z " fill="#543F37" transform="translate(54,168)"/>
<path d="M0 0 C1.89322796 0.00503345 3.78645724 0.00959304 5.6796875 0.01367188 C10.2448253 0.02451198 14.80989731 0.04167088 19.375 0.0625 C19.87 1.0525 19.87 1.0525 20.375 2.0625 C19.46322998 2.08755615 18.55145996 2.1126123 17.61206055 2.13842773 C14.1770761 2.23447923 10.74220918 2.33364606 7.30737305 2.43481445 C5.83051988 2.47769861 4.35363175 2.51939827 2.87670898 2.55981445 C-7.0832259 2.81261757 -7.0832259 2.81261757 -17.015625 3.5546875 C-24.19826134 4.27680876 -31.40357111 4.46208582 -38.6159668 4.67504883 C-41.08230605 4.75060677 -43.54784247 4.84110894 -46.01367188 4.93164062 C-47.59111788 4.98008559 -49.16859141 5.02764411 -50.74609375 5.07421875 C-51.47839706 5.10327805 -52.21070038 5.13233734 -52.9651947 5.16227722 C-56.7098525 5.25491294 -59.45162693 5.16591959 -62.625 3.0625 C-57.9372422 1.20632261 -53.85035221 0.84422522 -48.875 1 C-43.01630208 1.13210789 -37.24566985 0.93864958 -31.3984375 0.5703125 C-20.93035073 -0.07005512 -10.48379594 -0.04932894 0 0 Z " fill="#4E2F28" transform="translate(270.625,39.9375)"/>
<path d="M0 0 C2.4294516 3.6441774 2.16179575 5.71241272 2 10 C3.32 9.67 4.64 9.34 6 9 C6.95800425 13.82803732 7.1517331 18.41588768 7.125 23.3125 C7.12886719 24.04017578 7.13273437 24.76785156 7.13671875 25.51757812 C7.12673611 30.87326389 7.12673611 30.87326389 6 32 C5.87814857 33.34983748 5.82233169 34.70574701 5.79467773 36.06079102 C5.77473251 36.92160782 5.75478729 37.78242462 5.73423767 38.66932678 C5.71752518 39.60473801 5.70081268 40.54014923 5.68359375 41.50390625 C5.66281265 42.45692123 5.64203156 43.40993622 5.62062073 44.39183044 C5.55501823 47.4486441 5.49619082 50.50554656 5.4375 53.5625 C5.39432494 55.62956663 5.35071099 57.69662414 5.30664062 59.76367188 C5.19932599 64.84235595 5.09808909 69.9211297 5 75 C4.67 75 4.34 75 4 75 C3.03173246 69.36098519 2.88338544 63.94044311 2.9375 58.2265625 C2.94128662 57.30338226 2.94507324 56.38020203 2.94897461 55.42904663 C2.9652056 51.50797949 2.99333254 47.58701974 3.02050781 43.66601562 C3.0387081 40.79036959 3.05072919 37.91474093 3.0625 35.0390625 C3.07079834 34.16690094 3.07909668 33.29473938 3.08764648 32.39614868 C3.14125115 22.56248963 3.14125115 22.56248963 0.9375 13.0625 C-0.39588709 8.70676884 -0.16080918 4.52052477 0 0 Z " fill="#654B3D" transform="translate(360,82)"/>
<path d="M0 0 C1.51757812 1.24707031 1.51757812 1.24707031 3 3 C3.09179688 4.90136719 3.09179688 4.90136719 2.71875 7.046875 C2.21840439 10.40517297 1.86415361 13.68450871 1.71875 17.078125 C1.68136719 17.92890625 1.64398438 18.7796875 1.60546875 19.65625 C1.53452194 21.40101599 1.46422067 23.14580834 1.39453125 24.890625 C1.21190326 29.02179612 0.99996883 32.96679238 0 37 C0.99 37.33 1.98 37.66 3 38 C3 39.65 3 41.3 3 43 C4.32 43 5.64 43 7 43 C7 44.65 7 46.3 7 48 C5.515 48.495 5.515 48.495 4 49 C3.67 49.66 3.34 50.32 3 51 C2.34 51 1.68 51 1 51 C0.87625 52.299375 0.7525 53.59875 0.625 54.9375 C0.4140625 57.15234375 0.4140625 57.15234375 0 59 C-0.99 59.495 -0.99 59.495 -2 60 C-2.02465504 55.60343827 -2.04283842 51.2069128 -2.05493164 46.81030273 C-2.05997121 45.31355082 -2.06680287 43.81680384 -2.07543945 42.32006836 C-2.08752159 40.17300193 -2.09323191 38.02600038 -2.09765625 35.87890625 C-2.10289307 34.5854126 -2.10812988 33.29191895 -2.11352539 31.95922852 C-2 29 -2 29 -1 28 C-0.84259395 26.29436222 -0.74906608 24.58272756 -0.68359375 22.87109375 C-0.64169922 21.83662109 -0.59980469 20.80214844 -0.55664062 19.73632812 C-0.51732422 18.64771484 -0.47800781 17.55910156 -0.4375 16.4375 C-0.37272461 14.7987793 -0.37272461 14.7987793 -0.30664062 13.12695312 C-0.20017932 10.41810436 -0.09816484 7.70916008 0 5 C-0.66 5 -1.32 5 -2 5 C-1.34 3.35 -0.68 1.7 0 0 Z " fill="#3E2E28" transform="translate(367,85)"/>
<path d="M0 0 C4.46573511 -0.02479481 8.9314333 -0.04290486 13.3972168 -0.05493164 C14.91512755 -0.05994766 16.4330335 -0.06676203 17.95092773 -0.07543945 C20.13787016 -0.08762497 22.32474846 -0.09325572 24.51171875 -0.09765625 C25.82615967 -0.10289307 27.14060059 -0.10812988 28.49487305 -0.11352539 C31.48205125 -0.01677552 34.10592611 0.29656236 37 1 C35 3 35 3 31.9609375 3.1953125 C26.98046875 3.09765625 26.98046875 3.09765625 22 3 C28.6 3.99 35.2 4.98 42 6 C42 6.33 42 6.66 42 7 C29.60677392 7.43569935 17.32722863 6.13339967 5 5 C5.33 4.01 5.66 3.02 6 2 C3.03 1.505 3.03 1.505 0 1 C0 0.67 0 0.34 0 0 Z " fill="#5D3B33" transform="translate(309,36)"/>
<path d="M0 0 C0.66 0 1.32 0 2 0 C2.0270043 1.45823212 2.04639787 2.91660675 2.0625 4.375 C2.07410156 5.18710938 2.08570313 5.99921875 2.09765625 6.8359375 C2 9 2 9 1 11 C0.01 11 -0.98 11 -2 11 C-4.445727 19.11443344 -5.93889097 27.17908139 -7.125 35.5625 C-7.4579647 37.87673175 -7.79375304 40.19055959 -8.1328125 42.50390625 C-8.34768311 44.01706421 -8.34768311 44.01706421 -8.56689453 45.56079102 C-9 48 -9 48 -10 50 C-10.22950319 52.204364 -10.41075933 54.41392173 -10.5625 56.625 C-10.64628906 57.81351563 -10.73007812 59.00203125 -10.81640625 60.2265625 C-10.90728516 61.59941406 -10.90728516 61.59941406 -11 63 C-11.33 63 -11.66 63 -12 63 C-12.05785647 59.04172765 -12.09354717 55.0835633 -12.125 51.125 C-12.14175781 49.99707031 -12.15851563 48.86914062 -12.17578125 47.70703125 C-12.18222656 46.63066406 -12.18867188 45.55429688 -12.1953125 44.4453125 C-12.20578613 43.45031738 -12.21625977 42.45532227 -12.22705078 41.43017578 C-12 39 -12 39 -10 37 C-9.50919711 34.81153187 -9.11951736 32.59998534 -8.78125 30.3828125 C-8.67784302 29.72924774 -8.57443604 29.07568298 -8.46789551 28.40231323 C-8.1375059 26.31099938 -7.81771623 24.21827412 -7.5 22.125 C-7.18177507 20.03896579 -6.86107313 17.95347852 -6.53210449 15.86911011 C-6.23290301 13.97252586 -5.94335872 12.07442563 -5.65429688 10.17626953 C-5.08403975 7.40796909 -4.42139626 5.41532187 -3 3 C-2.34 3 -1.68 3 -1 3 C-0.67 2.01 -0.34 1.02 0 0 Z " fill="#613D33" transform="translate(372,197)"/>
<path d="M0 0 C3.97915085 -0.02934144 7.95827337 -0.04691265 11.9375 -0.0625 C13.05447266 -0.07087891 14.17144531 -0.07925781 15.32226562 -0.08789062 C21.63992667 -0.10641749 27.73763227 0.15660583 34 1 C32.68 2.32 31.36 3.64 30 5 C31.09054687 4.98259766 31.09054687 4.98259766 32.203125 4.96484375 C39.52631959 4.89912277 46.71366686 5.2765343 54 6 C54 6.33 54 6.66 54 7 C47.67324721 7.7365866 41.36916997 8.12555063 35 8.1875 C33.1128125 8.20876953 33.1128125 8.20876953 31.1875 8.23046875 C28 8 28 8 25 6 C25 5.34 25 4.68 25 4 C21.7 3.67 18.4 3.34 15 3 C15 2.67 15 2.34 15 2 C10.38 2 5.76 2 1 2 C0.67 1.34 0.34 0.68 0 0 Z " fill="#412B24" transform="translate(284,36)"/>
<path d="M0 0 C0.66 0.33 1.32 0.66 2 1 C4.54080324 9.07724488 4.21977647 17.63628453 4 26 C4.66 26 5.32 26 6 26 C6 28.31 6 30.62 6 33 C3.9656541 31.58480285 3.09589607 30.45017877 2.578125 28.01953125 C2.33726048 26.01823046 2.16467259 24.0090056 2 22 C1.67 24.31 1.34 26.62 1 29 C-0.453125 28.0234375 -0.453125 28.0234375 -2 26 C-2.40732247 23.1429238 -2.64829183 20.49220181 -2.75 17.625 C-2.79253906 16.86960938 -2.83507813 16.11421875 -2.87890625 15.3359375 C-3.14684307 9.65964628 -2.81065814 5.05918466 0 0 Z " fill="#4C362E" transform="translate(57,151)"/>
<path d="M0 0 C0.33 0 0.66 0 1 0 C1 34.65 1 69.3 1 105 C0.67 105 0.34 105 0 105 C-0.33 82.89 -0.66 60.78 -1 38 C-1.66 38 -2.32 38 -3 38 C-3.15510466 34.74280217 -3.09756422 32.28007868 -2.01806641 29.18115234 C-0.96243392 25.88261726 -0.68847234 23.17856877 -0.5859375 19.7265625 C-0.54726562 18.57285156 -0.50859375 17.41914063 -0.46875 16.23046875 C-0.4378125 15.04066406 -0.406875 13.85085938 -0.375 12.625 C-0.33632812 11.41199219 -0.29765625 10.19898438 -0.2578125 8.94921875 C-0.16386214 5.96629479 -0.07819193 2.98337175 0 0 Z " fill="#3B302C" transform="translate(67,314)"/>
<path d="M0 0 C1.79457676 3.08782978 2.24576692 5.30428435 2.22705078 8.86035156 C2.22689972 9.82104553 2.22674866 10.7817395 2.22659302 11.77154541 C2.21627045 12.80084167 2.20594788 13.83013794 2.1953125 14.890625 C2.1924826 15.95037537 2.18965271 17.01012573 2.18673706 18.10198975 C2.17554734 21.48477497 2.1504447 24.86729487 2.125 28.25 C2.11496865 30.54426701 2.10584307 32.83853817 2.09765625 35.1328125 C2.07561196 40.75529877 2.04214627 46.37763043 2 52 C1.67 52 1.34 52 1 52 C-0.0938788 47.41306287 -0.33786584 42.87939581 -0.5625 38.1875 C-0.6042334 37.330354 -0.6459668 36.47320801 -0.68896484 35.59008789 C-1.00512892 28.37315903 -1.10698114 21.16087754 -1.125 13.9375 C-1.12959229 12.89682373 -1.13418457 11.85614746 -1.13891602 10.78393555 C-1.13690186 9.81238525 -1.1348877 8.84083496 -1.1328125 7.83984375 C-1.13168457 6.97738037 -1.13055664 6.11491699 -1.12939453 5.22631836 C-1 3 -1 3 0 0 Z " fill="#674B3D" transform="translate(360,101)"/>
<path d="M0 0 C4.35757561 6.53636342 1.60882125 16.83650516 0.6875 24.3125 C0.56955078 25.38306641 0.45160156 26.45363281 0.33007812 27.55664062 C0.20439453 28.58595703 0.07871094 29.61527344 -0.05078125 30.67578125 C-0.21574097 32.0666394 -0.21574097 32.0666394 -0.3840332 33.4855957 C-1.06842943 36.27933205 -2.13425019 37.84083961 -4 40 C-5 39 -5 39 -5.1328125 36.99609375 C-5.11624524 31.57031481 -4.79527078 26.36807773 -4 21 C-3.34 21 -2.68 21 -2 21 C-2.04125 19.7625 -2.0825 18.525 -2.125 17.25 C-2.14371192 11.38381252 -1.08918033 5.74737122 0 0 Z " fill="#352826" transform="translate(60,43)"/>
<path d="M0 0 C1.43739513 -0.02712066 2.87493863 -0.04645067 4.3125 -0.0625 C5.51326172 -0.07990234 5.51326172 -0.07990234 6.73828125 -0.09765625 C9 0 9 0 12 1 C13.40207916 1.06949587 14.80730982 1.08452249 16.2109375 1.0625 C17.03787109 1.05404053 17.86480469 1.04558105 18.71679688 1.03686523 C19.59400391 1.02469971 20.47121094 1.01253418 21.375 1 C40.52715987 0.86383904 40.52715987 0.86383904 49 3 C49.99 3 50.98 3 52 3 C52 3.66 52 4.32 52 5 C40.85116376 5.26864666 29.81344136 4.83190969 18.6875 4.0625 C17.41817627 3.97564941 16.14885254 3.88879883 14.84106445 3.79931641 C4.87362265 3.07633109 4.87362265 3.07633109 0 2 C0 1.34 0 0.68 0 0 Z " fill="#392A25" transform="translate(162,580)"/>
<path d="M0 0 C0.33 0 0.66 0 1 0 C1 2.97 1 5.94 1 9 C1.66 9 2.32 9 3 9 C3.86963087 11.99706695 4.11763099 14.64956526 4.09765625 17.765625 C4.09443359 18.65507812 4.09121094 19.54453125 4.08789062 20.4609375 C4.07951172 21.38132813 4.07113281 22.30171875 4.0625 23.25 C4.05798828 24.18585938 4.05347656 25.12171875 4.04882812 26.0859375 C4.03706918 28.39069041 4.02063426 30.69531227 4 33 C3.01 33.495 3.01 33.495 2 34 C1.59270772 36.32156597 1.25561323 38.6568787 1 41 C0.67 41 0.34 41 0 41 C0 27.47 0 13.94 0 0 Z " fill="#543D34" transform="translate(365,159)"/>
<path d="M0 0 C0.33 0 0.66 0 1 0 C1.54050279 13.49255121 1.54050279 13.49255121 -2 19 C-2.58337498 20.28237384 -3.14564134 21.57453923 -3.6875 22.875 C-4.120625 23.90625 -4.55375 24.9375 -5 26 C-5.33 26 -5.66 26 -6 26 C-6.30221599 17.53795229 -5.14920797 9.36254017 -4 1 C-2.68 1.33 -1.36 1.66 0 2 C0 1.34 0 0.68 0 0 Z " fill="#442B25" transform="translate(373,206)"/>
<path d="M0 0 C0.33 0 0.66 0 1 0 C1.85453433 3.69576905 2.12178203 7.1020461 2.11352539 10.8918457 C2.11344986 12.05267166 2.11337433 13.21349762 2.11329651 14.40950012 C2.10813522 15.65237289 2.10297394 16.89524567 2.09765625 18.17578125 C2.09553383 20.09622505 2.09553383 20.09622505 2.09336853 22.0554657 C2.08956397 25.4469704 2.07975143 28.83843177 2.06866455 32.22991943 C2.05840597 35.69559137 2.05386141 39.16127036 2.04882812 42.62695312 C2.03780755 49.41798748 2.0210757 56.20898981 2 63 C1.34 62.67 0.68 62.34 0 62 C-1.01573985 57.14757002 -0.98543012 52.76151035 -0.56640625 47.84375 C0.17064497 38.06195185 0.11072771 28.30387391 0.0625 18.5 C0.05746804 16.69401168 0.05290817 14.88802197 0.04882812 13.08203125 C0.03797283 8.72131916 0.02080475 4.36067551 0 0 Z " fill="#6B4C3E" transform="translate(66,53)"/>
<path d="M0 0 C0 5.94 0 11.88 0 18 C-0.99 18 -1.98 18 -3 18 C-3 17.34 -3 16.68 -3 16 C-4.65 17.32 -6.3 18.64 -8 20 C-8.5780118 13.49736726 -6.89481485 7.83803797 -4 2 C-1 0 -1 0 0 0 Z " fill="#382621" transform="translate(374,236)"/>
<path d="M0 0 C1.32 0 2.64 0 4 0 C4.92188461 2.76565382 5.11785222 4.38283702 5.09765625 7.23046875 C5.09443359 8.03291016 5.09121094 8.83535156 5.08789062 9.66210938 C5.07532227 10.91217773 5.07532227 10.91217773 5.0625 12.1875 C5.05798828 13.03248047 5.05347656 13.87746094 5.04882812 14.74804688 C5.03705403 16.83206155 5.0191189 18.91603977 5 21 C4.01 21 3.02 21 2 21 C2 20.34 2 19.68 2 19 C1.34 19 0.68 19 0 19 C0 12.73 0 6.46 0 0 Z " fill="#2E2120" transform="translate(369,139)"/>
<path d="M0 0 C3 3 3 3 3.33625793 4.89709473 C3.31786362 5.60974487 3.2994693 6.32239502 3.28051758 7.05664062 C3.26672562 7.86758179 3.25293365 8.67852295 3.23872375 9.51403809 C3.20764023 10.38596802 3.1765567 11.25789795 3.14453125 12.15625 C3.12283371 13.05492798 3.10113617 13.95360596 3.07878113 14.8795166 C3.02951024 16.77942016 2.97270102 18.67914095 2.90893555 20.57861328 C2.81288233 23.48841777 2.74344877 26.39796277 2.67773438 29.30859375 C2.6265807 31.15369033 2.57389765 32.99874528 2.51953125 34.84375 C2.48808769 36.1516449 2.48808769 36.1516449 2.45600891 37.48596191 C2.42645615 38.29690308 2.39690338 39.10784424 2.36645508 39.94335938 C2.34408279 40.65600952 2.32171051 41.36865967 2.29866028 42.10290527 C2 44 2 44 0 47 C0 31.49 0 15.98 0 0 Z " fill="#432B27" transform="translate(360,385)"/>
<path d="M0 0 C0.33 0 0.66 0 1 0 C1.10787818 2.77186988 1.18723327 5.53955537 1.25 8.3125 C1.30027344 9.49102539 1.30027344 9.49102539 1.3515625 10.69335938 C1.45047515 16.50447734 1.45047515 16.50447734 -0.875 19.0625 C-3 20 -3 20 -5.25 19.6875 C-5.8275 19.460625 -6.405 19.23375 -7 19 C-5.93830861 12.2051751 -3.17832501 6.05395241 0 0 Z " fill="#5A382E" transform="translate(373,219)"/>
<path d="M0 0 C0.66 0 1.32 0 2 0 C2.38767027 9.77790574 1.1929947 19.31756984 0 29 C-0.33 29 -0.66 29 -1 29 C-1 26.69 -1 24.38 -1 22 C-1.66 22 -2.32 22 -3 22 C-4.16305683 17.73545831 -3.87922808 14.31621055 -3 10 C-2.34 9.01 -1.68 8.02 -1 7 C-0.60612212 4.67612053 -0.26513915 2.34206251 0 0 Z " fill="#684A3A" transform="translate(372,80)"/>
<path d="M0 0 C1.51538086 1.26977539 1.51538086 1.26977539 3 3 C2.75390625 6.68359375 2.75390625 6.68359375 2.39501953 9.09326172 C1.91744169 12.60750263 1.68223209 16.12261669 1.46484375 19.66015625 C1.42154938 20.3402475 1.378255 21.02033875 1.33364868 21.72103882 C1.19963795 23.83474094 1.06851724 25.94861044 0.9375 28.0625 C0.84589884 29.51498631 0.7541035 30.9674604 0.66210938 32.41992188 C0.4391679 35.9464764 0.21885278 39.47318909 0 43 C-0.66 43 -1.32 43 -2 43 C-2.02685412 40.68756208 -2.04632841 38.3750373 -2.0625 36.0625 C-2.07410156 34.77472656 -2.08570313 33.48695312 -2.09765625 32.16015625 C-2 29 -2 29 -1 28 C-0.84259395 26.29436222 -0.74906608 24.58272756 -0.68359375 22.87109375 C-0.64169922 21.83662109 -0.59980469 20.80214844 -0.55664062 19.73632812 C-0.51732422 18.64771484 -0.47800781 17.55910156 -0.4375 16.4375 C-0.37272461 14.7987793 -0.37272461 14.7987793 -0.30664062 13.12695312 C-0.20017932 10.41810436 -0.09816484 7.70916008 0 5 C-0.66 5 -1.32 5 -2 5 C-1.34 3.35 -0.68 1.7 0 0 Z " fill="#483028" transform="translate(367,85)"/>
<path d="M0 0 C1.02787125 0.00212242 1.02787125 0.00212242 2.07650757 0.00428772 C4.26719511 0.0098895 6.4577808 0.02244219 8.6484375 0.03515625 C10.13281102 0.04017103 11.61718615 0.04473397 13.1015625 0.04882812 C16.74222065 0.05985948 20.38281914 0.07712526 24.0234375 0.09765625 C24.0234375 0.42765625 24.0234375 0.75765625 24.0234375 1.09765625 C22.41662109 1.17113281 22.41662109 1.17113281 20.77734375 1.24609375 C19.38018111 1.32110919 17.983047 1.39665755 16.5859375 1.47265625 C15.87888672 1.50359375 15.17183594 1.53453125 14.44335938 1.56640625 C12.63104562 1.67046254 10.82525762 1.87685517 9.0234375 2.09765625 C8.6934375 2.75765625 8.3634375 3.41765625 8.0234375 4.09765625 C5.94017619 4.12475069 3.85681309 4.14409498 1.7734375 4.16015625 C0.03320312 4.17755859 0.03320312 4.17755859 -1.7421875 4.1953125 C-4.38633378 4.11547717 -6.47482341 3.88409403 -8.9765625 3.09765625 C-8.9765625 2.43765625 -8.9765625 1.77765625 -8.9765625 1.09765625 C-6.00296801 -0.389141 -3.31357071 -0.0134698 0 0 Z " fill="#2B211A" transform="translate(230.9765625,577.90234375)"/>
<path d="M0 0 C0.33 0 0.66 0 1 0 C1 20.79 1 41.58 1 63 C0.67 63 0.34 63 0 63 C-0.33 53.76 -0.66 44.52 -1 35 C-1.33 35 -1.66 35 -2 35 C-2.125 28.25 -2.125 28.25 -1 26 C-0.84621148 24.04225931 -0.75028537 22.07982648 -0.68359375 20.1171875 C-0.62075195 18.36728516 -0.62075195 18.36728516 -0.55664062 16.58203125 C-0.51732422 15.35871094 -0.47800781 14.13539063 -0.4375 12.875 C-0.39431641 11.64394531 -0.35113281 10.41289062 -0.30664062 9.14453125 C-0.20031296 6.09647147 -0.09828219 3.0483281 0 0 Z " fill="#2E1913" transform="translate(373,337)"/>
<path d="M0 0 C4.46573511 -0.02479481 8.9314333 -0.04290486 13.3972168 -0.05493164 C14.91512755 -0.05994766 16.4330335 -0.06676203 17.95092773 -0.07543945 C20.13787016 -0.08762497 22.32474846 -0.09325572 24.51171875 -0.09765625 C25.82615967 -0.10289307 27.14060059 -0.10812988 28.49487305 -0.11352539 C31.48205125 -0.01677552 34.10592611 0.29656236 37 1 C35 3 35 3 32.66162109 3.13525391 C31.70852051 3.08288574 30.75541992 3.03051758 29.7734375 2.9765625 C28.7421875 2.925 27.7109375 2.8734375 26.6484375 2.8203125 C25.02808594 2.72363281 25.02808594 2.72363281 23.375 2.625 C22.28703125 2.56828125 21.1990625 2.5115625 20.078125 2.453125 C17.38477613 2.3113698 14.6923207 2.15993358 12 2 C11.67 2.66 11.34 3.32 11 4 C9.02 4 7.04 4 5 4 C5.33 3.34 5.66 2.68 6 2 C3.03 1.505 3.03 1.505 0 1 C0 0.67 0 0.34 0 0 Z " fill="#653E36" transform="translate(309,36)"/>
<path d="M0 0 C2.72234602 2.72234602 2.25788057 4.22762873 2.265625 8.03125 C2.26820313 9.23394531 2.27078125 10.43664062 2.2734375 11.67578125 C2.26570313 12.93777344 2.25796875 14.19976562 2.25 15.5 C2.25773437 16.76199219 2.26546875 18.02398437 2.2734375 19.32421875 C2.27085937 20.52691406 2.26828125 21.72960937 2.265625 22.96875 C2.26336914 24.07669922 2.26111328 25.18464844 2.25878906 26.32617188 C2 29 2 29 0 31 C0 24.07 0 17.14 0 10 C-0.66 10 -1.32 10 -2 10 C-1.34 6.7 -0.68 3.4 0 0 Z " fill="#4D3331" transform="translate(372,158)"/>
<path d="M0 0 C0.33 0 0.66 0 1 0 C1 5.94 1 11.88 1 18 C0.67 18 0.34 18 0 18 C-0.66 22.29 -1.32 26.58 -2 31 C-2.33 31 -2.66 31 -3 31 C-3.0292483 27.79168609 -3.04688189 24.58340693 -3.0625 21.375 C-3.07087891 20.47136719 -3.07925781 19.56773438 -3.08789062 18.63671875 C-3.10491895 13.97095711 -2.96829423 9.58986715 -2 5 C-1.67 5 -1.34 5 -1 5 C-0.67 3.35 -0.34 1.7 0 0 Z " fill="#402C28" transform="translate(65,63)"/>
<path d="M0 0 C3.97915085 -0.02934144 7.95827337 -0.04691265 11.9375 -0.0625 C13.05447266 -0.07087891 14.17144531 -0.07925781 15.32226562 -0.08789062 C21.63992667 -0.10641749 27.73763227 0.15660583 34 1 C31.35684192 3.64997034 30.14884659 3.9969914 26.328125 4.07421875 C24.96727774 3.96191582 23.60775103 3.832515 22.25 3.6875 C21.55261719 3.62626953 20.85523438 3.56503906 20.13671875 3.50195312 C18.42310319 3.34937092 16.7113005 3.17666411 15 3 C15 2.67 15 2.34 15 2 C10.38 2 5.76 2 1 2 C0.67 1.34 0.34 0.68 0 0 Z " fill="#49332F" transform="translate(284,36)"/>
<path d="M0 0 C0.66 0.33 1.32 0.66 2 1 C2.02937438 4.33331439 2.04692334 7.66659483 2.0625 11 C2.07087891 11.93457031 2.07925781 12.86914062 2.08789062 13.83203125 C2.10708892 19.32274401 1.8134193 24.56866481 1 30 C-4.06943711 22.39584434 -0.73583831 8.7643599 0 0 Z " fill="#2D1F19" transform="translate(367,300)"/>
<path d="M0 0 C0.33 0 0.66 0 1 0 C3.38297872 20.53191489 3.38297872 20.53191489 3 30 C2.01 30.33 1.02 30.66 0 31 C0 20.77 0 10.54 0 0 Z " fill="#3C312E" transform="translate(360,538)"/>
<path d="M0 0 C7.59762024 -0.38999191 13.84466021 0.39241413 21 3 C21.061875 3.94875 21.12375 4.8975 21.1875 5.875 C21.455625 6.90625 21.72375 7.9375 22 9 C24.46255685 10.45291273 24.46255685 10.45291273 27 11 C27 11.66 27 12.32 27 13 C24.69 13 22.38 13 20 13 C19.67 10.36 19.34 7.72 19 5 C14.93126728 3.14845433 11.10917594 2.45353704 6.6875 1.875 C5.43324219 1.70742188 4.17898438 1.53984375 2.88671875 1.3671875 C1.93410156 1.24601562 0.98148437 1.12484375 0 1 C0 0.67 0 0.34 0 0 Z " fill="#432D27" transform="translate(340,43)"/>
<path d="M0 0 C2.5627992 0.31018604 5.1252211 0.62306891 7.6875 0.9375 C8.40873047 1.02451172 9.12996094 1.11152344 9.87304688 1.20117188 C13.62010584 1.66313805 17.30792911 2.19167679 21 3 C21 3.66 21 4.32 21 5 C22.65 5 24.3 5 26 5 C26 5.33 26 5.66 26 6 C24.22950311 6.05410687 22.45853151 6.09284119 20.6875 6.125 C19.20830078 6.15980469 19.20830078 6.15980469 17.69921875 6.1953125 C15 6 15 6 12 4 C9.03157342 3.54084493 9.03157342 3.54084493 5.8125 3.375 C4.72582031 3.30023437 3.63914063 3.22546875 2.51953125 3.1484375 C1.68808594 3.09945312 0.85664063 3.05046875 0 3 C0 2.01 0 1.02 0 0 Z " fill="#472E2B" transform="translate(162,585)"/>
<path d="M0 0 C0.33 0 0.66 0 1 0 C1 1.98 1 3.96 1 6 C1.66 6 2.32 6 3 6 C3.33 5.01 3.66 4.02 4 3 C4.99 3 5.98 3 7 3 C7 5.97 7 8.94 7 12 C6.67 11.01 6.34 10.02 6 9 C4.68 9 3.36 9 2 9 C2 11.64 2 14.28 2 17 C1.01 16.67 0.02 16.34 -1 16 C-0.67 10.72 -0.34 5.44 0 0 Z " fill="#3F3532" transform="translate(367,130)"/>
<path d="M0 0 C4.52867864 9.05735728 4.76395028 18.92621495 4 29 C3.34 29.99 2.68 30.98 2 32 C1.97494385 31.44538086 1.9498877 30.89076172 1.92407227 30.31933594 C1.80772073 27.79601157 1.68517246 25.27302464 1.5625 22.75 C1.52318359 21.87730469 1.48386719 21.00460938 1.44335938 20.10546875 C1.40146484 19.26113281 1.35957031 18.41679688 1.31640625 17.546875 C1.26141968 16.38430176 1.26141968 16.38430176 1.20532227 15.19824219 C1.0037187 13.03981351 0.5463467 11.09323193 0 9 C-0.06548492 7.41788427 -0.08578381 5.83329919 -0.0625 4.25 C-0.05347656 3.45078125 -0.04445313 2.6515625 -0.03515625 1.828125 C-0.02355469 1.22484375 -0.01195312 0.6215625 0 0 Z " fill="#5C3F31" transform="translate(360,92)"/>
<path d="M0 0 C2.475 0.99 2.475 0.99 5 2 C4.58578031 6.83256305 2.53586014 8.82679218 -1 12 C-1.2226746 10.56465159 -1.42761906 9.12654475 -1.625 7.6875 C-1.74101562 6.88699219 -1.85703125 6.08648437 -1.9765625 5.26171875 C-2 3 -2 3 0 0 Z " fill="#4D322C" transform="translate(369,252)"/>
<path d="M0 0 C1.65 0.33 3.3 0.66 5 1 C5 1.66 5 2.32 5 3 C4.34 3 3.68 3 3 3 C0.38103911 5.82847776 -0.4739075 8.21213403 -1 12 C-2.32 12.33 -3.64 12.66 -5 13 C-5.25532751 9.93606987 -5.21861333 8.36766788 -3.625 5.6875 C-2.820625 4.8521875 -2.820625 4.8521875 -2 4 C-1.34 4 -0.68 4 0 4 C0 2.68 0 1.36 0 0 Z " fill="#5B4137" transform="translate(366,40)"/>
<path d="M0 0 C0.33 0 0.66 0 1 0 C1.35485379 5.9142299 1.07097206 9.76797352 -2 15 C-2.57943712 16.28415795 -3.14195429 17.57608164 -3.6875 18.875 C-4.120625 19.90625 -4.55375 20.9375 -5 22 C-5.33 22 -5.66 22 -6 22 C-6 19.36 -6 16.72 -6 14 C-5.01 14 -4.02 14 -3 14 C-3.061875 12.576875 -3.061875 12.576875 -3.125 11.125 C-3 8 -3 8 -1 6 C-0.60235737 4.01178687 -0.26224651 2.01055661 0 0 Z " fill="#38241E" transform="translate(373,210)"/>
<path d="M0 0 C0.33 0 0.66 0 1 0 C2.38529821 5.45461169 3.2396943 10.36718401 3 16 C2.34 16 1.68 16 1 16 C0.67 17.32 0.34 18.64 0 20 C0 13.4 0 6.8 0 0 Z " fill="#5A3A2C" transform="translate(360,148)"/>
<path d="M0 0 C0.33 0 0.66 0 1 0 C1.25086347 3.51208858 1.21312487 5.59228285 -0.4375 8.75 C-2.53011654 13.1026424 -2.72641635 17.22643698 -3 22 C-3.33 22 -3.66 22 -4 22 C-4 16.72 -4 11.44 -4 6 C-3.01 6.33 -2.02 6.66 -1 7 C-1.020625 6.030625 -1.04125 5.06125 -1.0625 4.0625 C-1 1 -1 1 0 0 Z " fill="#392B29" transform="translate(58,426)"/>
<path d="M0 0 C0.66 0.33 1.32 0.66 2 1 C2 2.65 2 4.3 2 6 C1.34 6 0.68 6 0 6 C-0.33 9.3 -0.66 12.6 -1 16 C-1.33 16 -1.66 16 -2 16 C-3.52940159 5.35619163 -3.52940159 5.35619163 -1 1 C-0.67 0.67 -0.34 0.34 0 0 Z " fill="#463632" transform="translate(368,64)"/>
<path d="M0 0 C0.33 0 0.66 0 1 0 C1.44032071 7.51806849 0.28612778 13.84224277 -2 21 C-2.66 21 -3.32 21 -4 21 C-3.52259783 18.24968307 -3.04314736 15.49975 -2.5625 12.75 C-2.42779297 11.97269531 -2.29308594 11.19539063 -2.15429688 10.39453125 C-2.02216797 9.64042969 -1.89003906 8.88632813 -1.75390625 8.109375 C-1.63345947 7.41811523 -1.5130127 6.72685547 -1.38891602 6.01464844 C-0.99755584 3.98733883 -0.51910249 1.99805485 0 0 Z " fill="#5C4B45" transform="translate(372,56)"/>
<path d="M0 0 C0.99 0.33 1.98 0.66 3 1 C4.0748291 7.27467799 3.88341198 11.90660831 2 18 C1.34 17.67 0.68 17.34 0 17 C0.08378906 16.27554687 0.16757812 15.55109375 0.25390625 14.8046875 C0.79527805 9.6650818 1.23721798 5.08634058 0 0 Z " fill="#442E29" transform="translate(365,256)"/>
<path d="M0 0 C1.52634923 3.05269846 0.83794444 5.75845689 0.5625 9.125 C0.46066406 10.40632813 0.35882813 11.68765625 0.25390625 13.0078125 C0.17011719 13.99523437 0.08632813 14.98265625 0 16 C-0.99 16.33 -1.98 16.66 -3 17 C-3 16.01 -3 15.02 -3 14 C-2.34 14 -1.68 14 -1 14 C-1.12375 12.700625 -1.2475 11.40125 -1.375 10.0625 C-1.44460938 9.33160156 -1.51421875 8.60070312 -1.5859375 7.84765625 C-1.72257812 7.23792969 -1.85921875 6.62820313 -2 6 C-2.66 5.67 -3.32 5.34 -4 5 C-2.68 3.35 -1.36 1.7 0 0 Z " fill="#3E2C26" transform="translate(373,258)"/>
<path d="M0 0 C0.25 2.3125 0.25 2.3125 0 5 C-1.75 6.875 -1.75 6.875 -4 8 C-6.25 7.6875 -6.25 7.6875 -8 7 C-7.67 5.35 -7.34 3.7 -7 2 C-6.34 2.66 -5.68 3.32 -5 4 C-4.360625 3.34 -3.72125 2.68 -3.0625 2 C-1 0 -1 0 0 0 Z " fill="#654336" transform="translate(374,231)"/>
<path d="M0 0 C0.33 0 0.66 0 1 0 C1.08121924 1.60332791 1.13929134 3.20784026 1.1875 4.8125 C1.22230469 5.70582031 1.25710938 6.59914062 1.29296875 7.51953125 C1 10 1 10 -0.32421875 11.82421875 C-2 13 -2 13 -5 13 C-3.58192622 8.52761347 -1.88695626 4.28853694 0 0 Z " fill="#2E211D" transform="translate(373,187)"/>
<path d="M0 0 C2.4294516 3.6441774 2.16179575 5.71241272 2 10 C3.32 9.67 4.64 9.34 6 9 C6 10.65 6 12.3 6 14 C5.67 13.34 5.34 12.68 5 12 C4.01 12 3.02 12 2 12 C1.67 12.66 1.34 13.32 1 14 C0.06380187 10.84493858 -0.1057123 8.03413498 -0.0625 4.75 C-0.05347656 3.85796875 -0.04445313 2.9659375 -0.03515625 2.046875 C-0.02355469 1.37140625 -0.01195312 0.6959375 0 0 Z " fill="#694939" transform="translate(360,82)"/>
<path d="M0 0 C0.66 0 1.32 0 2 0 C3.0625 2.375 3.0625 2.375 4 5 C3.67 5.66 3.34 6.32 3 7 C3.66 7 4.32 7 5 7 C5 9.31 5 11.62 5 14 C4.67 14 4.34 14 4 14 C4 12.02 4 10.04 4 8 C2.68 8.33 1.36 8.66 0 9 C-0.87890625 2.84765625 -0.87890625 2.84765625 -1 1 C-0.67 0.67 -0.34 0.34 0 0 Z " fill="#593F35" transform="translate(362,83)"/>
<path d="M0 0 C2 2 2 2 2.1953125 4.3828125 C2.17210937 5.28773438 2.14890625 6.19265625 2.125 7.125 C2.10695313 8.03507813 2.08890625 8.94515625 2.0703125 9.8828125 C2.04710937 10.58148438 2.02390625 11.28015625 2 12 C0.68 11.34 -0.64 10.68 -2 10 C-1.34 6.7 -0.68 3.4 0 0 Z " fill="#3F302D" transform="translate(372,158)"/>
<path d="M0 0 C0.33 0 0.66 0 1 0 C1.08333357 4.8333472 0.95261487 9.23692563 0 14 C-2.08940868 10.86588698 -2.27364412 10.02549528 -2.25 6.4375 C-2.25515625 5.65246094 -2.2603125 4.86742187 -2.265625 4.05859375 C-2 2 -2 2 0 0 Z " fill="#382C2A" transform="translate(56,46)"/>
<path d="M0 0 C0.66 0 1.32 0 2 0 C2 2.64 2 5.28 2 8 C1.01 8.33 0.02 8.66 -1 9 C-1 11.64 -1 14.28 -1 17 C-1.33 17 -1.66 17 -2 17 C-2.25287193 10.93107371 -1.69832609 5.83799592 0 0 Z " fill="#482A23" transform="translate(363,239)"/>
<path d="M0 0 C2.0357824 4.07156479 3.12165065 6.51124928 3.0625 11.125 C3.05347656 12.03507812 3.04445313 12.94515625 3.03515625 13.8828125 C3.02355469 14.58148438 3.01195312 15.28015625 3 16 C0.30717525 11.96076287 -0.13300939 9.04463848 -0.0625 4.25 C-0.05347656 3.45078125 -0.04445313 2.6515625 -0.03515625 1.828125 C-0.02355469 1.22484375 -0.01195312 0.6215625 0 0 Z " fill="#57382B" transform="translate(360,92)"/>
<path d="M0 0 C0.66 0.33 1.32 0.66 2 1 C2 3.31 2 5.62 2 8 C1.01 8 0.02 8 -1 8 C-1 7.34 -1 6.68 -1 6 C-1.99 6.33 -2.98 6.66 -4 7 C-4 6.34 -4 5.68 -4 5 C-3.34 5 -2.68 5 -2 5 C-2 4.01 -2 3.02 -2 2 C-1.34 2 -0.68 2 0 2 C0 1.34 0 0.68 0 0 Z " fill="#422A24" transform="translate(372,246)"/>
<path d="M0 0 C0 1.32 0 2.64 0 4 C-0.99 4.33 -1.98 4.66 -3 5 C-3.33 5.66 -3.66 6.32 -4 7 C-4.66 7 -5.32 7 -6 7 C-6 5.02 -6 3.04 -6 1 C-3.92446352 0.4465236 -2.15634036 0 0 0 Z " fill="#332520" transform="translate(374,129)"/>
<path d="M0 0 C-2.51822275 2.42472438 -3.67533206 2.99254989 -7.234375 3.07421875 C-8.39453125 2.94660156 -9.5546875 2.81898437 -10.75 2.6875 C-11.92046875 2.56761719 -13.0909375 2.44773438 -14.296875 2.32421875 C-15.18890625 2.21722656 -16.0809375 2.11023437 -17 2 C-17 1.67 -17 1.34 -17 1 C-11.27959989 0.1679418 -5.77759884 -0.12036664 0 0 Z " fill="#58372E" transform="translate(318,37)"/>
<path d="M0 0 C1.65 0 3.3 0 5 0 C5 0.33 5 0.66 5 1 C6.65 1.33 8.3 1.66 10 2 C10 2.33 10 2.66 10 3 C4.72 3 -0.56 3 -6 3 C-6 2.67 -6 2.34 -6 2 C-4.02 1.67 -2.04 1.34 0 1 C0 0.67 0 0.34 0 0 Z " fill="#241E1A" transform="translate(109,588)"/>
<path d="M0 0 C0.33 0 0.66 0 1 0 C2.19937786 6.37259801 2.06475363 10.23826317 -1 16 C-2.22602512 12.32192463 -1.70295577 10.11756073 -1.0625 6.3125 C-0.86785156 5.13300781 -0.67320312 3.95351562 -0.47265625 2.73828125 C-0.31667969 1.83464844 -0.16070312 0.93101562 0 0 Z " fill="#553B33" transform="translate(367,204)"/>
<path d="M0 0 C2.04119788 1.61594832 4.04072937 3.2856382 6 5 C6 5.66 6 6.32 6 7 C4.68 7.33 3.36 7.66 2 8 C0.23537317 4.91190305 0 3.76687864 0 0 Z " fill="#49342F" transform="translate(359,76)"/>
<path d="M0 0 C3.465 1.485 3.465 1.485 7 3 C7 3.66 7 4.32 7 5 C4.69 5 2.38 5 0 5 C-0.5625 3.0625 -0.5625 3.0625 -1 1 C-0.67 0.67 -0.34 0.34 0 0 Z " fill="#493934" transform="translate(360,51)"/>
<path d="M0 0 C0.99 0 1.98 0 3 0 C3 2.97 3 5.94 3 9 C0.9375 6.75 0.9375 6.75 -1 4 C-0.75 1.6875 -0.75 1.6875 0 0 Z " fill="#4F413C" transform="translate(371,133)"/>
<path d="M0 0 C0.33 0 0.66 0 1 0 C0.67 2.31 0.34 4.62 0 7 C0.66 7 1.32 7 2 7 C1.01 10.465 1.01 10.465 0 14 C-0.33 14 -0.66 14 -1 14 C-1.027193 12.41676312 -1.04648306 10.83338938 -1.0625 9.25 C-1.07410156 8.36828125 -1.08570313 7.4865625 -1.09765625 6.578125 C-1.00826198 4.2181162 -0.66912821 2.25501476 0 0 Z " fill="#4F403A" transform="translate(368,70)"/>
<path d="M0 0 C0.33 0.99 0.66 1.98 1 3 C-0.65 4.65 -2.3 6.3 -4 8 C-4 6.02 -4 4.04 -4 2 C-2.68 1.34 -1.36 0.68 0 0 Z " fill="#583D35" transform="translate(372,256)"/>
<path d="M0 0 C0 1.98 0 3.96 0 6 C-1.32 6.33 -2.64 6.66 -4 7 C-4.1875 4.625 -4.1875 4.625 -4 2 C-1 0 -1 0 0 0 Z " fill="#584740" transform="translate(365,46)"/>
<path d="M0 0 C0.66 0 1.32 0 2 0 C2 2.31 2 4.62 2 7 C1.01 7.495 1.01 7.495 0 8 C0 7.34 0 6.68 0 6 C-0.66 5.67 -1.32 5.34 -2 5 C-1.34 3.35 -0.68 1.7 0 0 Z " fill="#674438" transform="translate(371,198)"/>
<path d="M0 0 C6.625 -0.25 6.625 -0.25 10 2 C9.67 2.33 9.34 2.66 9 3 C7.30858344 2.91036938 5.62040398 2.75422324 3.9375 2.5625 C2.55884766 2.40974609 2.55884766 2.40974609 1.15234375 2.25390625 C0.44207031 2.17011719 -0.26820313 2.08632813 -1 2 C-0.67 1.34 -0.34 0.68 0 0 Z " fill="#5B352A" transform="translate(321,37)"/>
<path d="M0 0 C0.66 0 1.32 0 2 0 C2 2.97 2 5.94 2 9 C1.34 8.01 0.68 7.02 0 6 C-0.66 6 -1.32 6 -2 6 C-1.34 4.02 -0.68 2.04 0 0 Z " fill="#2D1F19" transform="translate(64,501)"/>
<path d="M0 0 C-4.8 3.2 -4.8 3.2 -7 4 C-9.25 3.125 -9.25 3.125 -11 2 C-7.17679443 0.57741188 -4.08718695 -0.24042276 0 0 Z " fill="#412D28" transform="translate(219,41)"/>
<path d="M0 0 C0.33 1.32 0.66 2.64 1 4 C0.01 4.33 -0.98 4.66 -2 5 C-2.66 5.66 -3.32 6.32 -4 7 C-4 5.02 -4 3.04 -4 1 C-2.68 1.33 -1.36 1.66 0 2 C0 1.34 0 0.68 0 0 Z " fill="#503026" transform="translate(373,206)"/>
</svg>
