<?xml version="1.0" encoding="UTF-8"?>
<svg version="1.1" xmlns="http://www.w3.org/2000/svg" width="427" height="626">
<path d="M0 0 C140.91 0 281.82 0 427 0 C427 206.58 427 413.16 427 626 C286.09 626 145.18 626 0 626 C0 419.42 0 212.84 0 0 Z " fill="#FEFEFE" transform="translate(0,0)"/>
<path d="M0 0 C140.91 0 281.82 0 427 0 C427 206.58 427 413.16 427 626 C286.09 626 145.18 626 0 626 C0 419.42 0 212.84 0 0 Z M70 55 C69.90101726 57.76140136 69.86824455 60.49781189 69.87695217 63.25969791 C69.87579833 64.14049445 69.87464448 65.02129098 69.87345567 65.92877832 C69.87078119 68.91901369 69.87531796 71.90919661 69.87974548 74.89942932 C69.87930995 77.0493135 69.87843538 79.19919762 69.87715632 81.34908146 C69.87490782 87.28704877 69.87893746 93.22499823 69.88393438 99.16296327 C69.88823364 105.55496178 69.88679283 111.94695919 69.8860321 118.33895874 C69.88550653 129.42357693 69.88862204 140.50818917 69.89426994 151.59280586 C69.9001804 163.22243846 69.90403456 174.85206872 69.90512276 186.4817028 C69.9051915 187.20392074 69.90526024 187.92613867 69.90533106 188.67024199 C69.90566938 192.33779643 69.90597077 196.00535087 69.90625793 199.67290532 C69.90836016 225.67215657 69.91510258 251.67140477 69.92456055 277.6706543 C69.9337401 302.93367497 69.9408092 328.1966948 69.94506836 353.4597168 C69.945339 355.04744516 69.94560971 356.63517352 69.94588047 358.22290188 C69.94806914 371.12318539 69.95011176 384.02346891 69.95211896 396.92375245 C69.96151202 456.61583786 69.98158094 516.3079153 70 576 C165.37 576 260.74 576 359 576 C359.02869561 485.74723823 359.02869561 485.74723823 359.04816496 395.4944756 C359.05020626 382.43520304 359.05229424 369.37593048 359.05452599 356.31665795 C359.05479583 354.73694958 359.0550642 353.15724121 359.05533109 351.57753284 C359.05960134 326.37378512 359.06710765 301.17003964 359.07629722 275.96629327 C359.08572127 250.07254825 359.09188346 224.17880448 359.09391499 198.28505778 C359.09420316 194.63150453 359.0945288 190.97795128 359.09487724 187.32439804 C359.09494467 186.60529464 359.09501209 185.88619123 359.09508156 185.14529682 C359.09626533 173.5488112 359.10090893 161.9523294 359.10683203 150.35584535 C359.11270696 138.71013293 359.11488986 127.06442526 359.11350138 115.41871132 C359.11285791 109.1036782 359.11387653 102.78865633 359.11920547 96.47362518 C359.12404106 90.70142871 359.12433758 84.92925113 359.12089889 79.15705381 C359.12047336 77.06012727 359.12176775 74.96319959 359.12488318 72.86627533 C359.12885024 70.03320267 359.12676141 67.20019978 359.12304783 64.36712837 C359.12567484 63.53812277 359.12830186 62.70911717 359.13100848 61.85499018 C359.21667844 57.79635877 359.21667844 57.79635877 358 54 C321.45491939 53.9771349 284.90984004 53.95950242 248.36475376 53.94893467 C244.05493674 53.94768389 239.74511973 53.94638958 235.43530273 53.94506836 C234.14823654 53.94467489 234.14823654 53.94467489 232.83516901 53.94427348 C218.92311072 53.93991652 205.01105654 53.93202883 191.0990007 53.9228472 C176.8348496 53.91351138 162.57070066 53.90794454 148.30654663 53.90591151 C139.49753433 53.90453613 130.68853366 53.90018475 121.87952494 53.89208353 C115.84727242 53.88681696 109.81502595 53.8851955 103.7827713 53.88649862 C100.29715579 53.88714214 96.81156065 53.88612293 93.32594872 53.88079453 C89.55591065 53.87586501 85.78592349 53.87699896 82.0158844 53.87974548 C80.34520042 53.87537622 80.34520042 53.87537622 78.64076525 53.87091869 C77.13817688 53.87390526 77.13817688 53.87390526 75.60523319 53.87695217 C74.73377503 53.87657245 73.86231688 53.87619273 72.9644509 53.8758015 C70.99674239 53.78289712 70.99674239 53.78289712 70 55 Z " fill="#FEFEFE" transform="translate(0,0)"/>
<path d="M0 0 C105.93 0 211.86 0 321 0 C321.67927752 3.39638759 322.12495332 5.83054363 322.1241985 9.15402061 C322.12756944 10.35559462 322.12756944 10.35559462 322.13100848 11.58144286 C322.12838146 12.45230213 322.12575445 13.3231614 322.12304783 14.22041035 C322.12420167 15.15647347 322.12535552 16.09253659 322.12654433 17.05696526 C322.12920296 20.21111566 322.12469497 23.36521558 322.12025452 26.5193634 C322.12069037 28.7964438 322.12156554 31.07352415 322.12284368 33.35060424 C322.12508583 39.62158103 322.12107115 45.89254082 322.11606562 52.16351545 C322.11219949 58.22729874 322.11302551 64.29107969 322.11374746 70.35486386 C322.11506181 82.76044612 322.11171824 95.16602306 322.10573006 107.57160378 C322.09981525 119.85662678 322.09596456 132.14164756 322.09487724 144.42667198 C322.0948085 145.19020536 322.09473976 145.95373874 322.09466894 146.74040949 C322.09433061 150.61792944 322.09402923 154.4954494 322.09374207 158.37296935 C322.09164104 185.84524605 322.08490198 213.31751985 322.07543945 240.78979492 C322.06625672 267.48054998 322.05918918 294.17130423 322.05493164 320.86206055 C322.054661 322.54014558 322.05439029 324.21823061 322.05411953 325.89631563 C322.05193079 339.53121953 322.0498882 353.16612345 322.04788104 366.80102738 C322.03849184 429.86735433 322.01842189 492.93367372 322 556 C215.74 556 109.48 556 0 556 C0 372.52 0 189.04 0 0 Z M17 20 C16.90101726 22.76140136 16.86824455 25.49781189 16.87695217 28.25969791 C16.87579833 29.14049445 16.87464448 30.02129098 16.87345567 30.92877832 C16.87078119 33.91901369 16.87531796 36.90919661 16.87974548 39.89942932 C16.87930995 42.0493135 16.87843538 44.19919762 16.87715632 46.34908146 C16.87490782 52.28704877 16.87893746 58.22499823 16.88393438 64.16296327 C16.88823364 70.55496178 16.88679283 76.94695919 16.8860321 83.33895874 C16.88550653 94.42357693 16.88862204 105.50818917 16.89426994 116.59280586 C16.9001804 128.22243846 16.90403456 139.85206872 16.90512276 151.4817028 C16.9051915 152.20392074 16.90526024 152.92613867 16.90533106 153.67024199 C16.90566938 157.33779643 16.90597077 161.00535087 16.90625793 164.67290532 C16.90836016 190.67215657 16.91510258 216.67140477 16.92456055 242.6706543 C16.9337401 267.93367497 16.9408092 293.1966948 16.94506836 318.4597168 C16.945339 320.04744516 16.94560971 321.63517352 16.94588047 323.22290188 C16.94806914 336.12318539 16.95011176 349.02346891 16.95211896 361.92375245 C16.96151202 421.61583786 16.98158094 481.3079153 17 541 C112.37 541 207.74 541 306 541 C306.02869561 450.74723823 306.02869561 450.74723823 306.04816496 360.4944756 C306.05020626 347.43520304 306.05229424 334.37593048 306.05452599 321.31665795 C306.05479583 319.73694958 306.0550642 318.15724121 306.05533109 316.57753284 C306.05960134 291.37378512 306.06710765 266.17003964 306.07629722 240.96629327 C306.08572127 215.07254825 306.09188346 189.17880448 306.09391499 163.28505778 C306.09420316 159.63150453 306.0945288 155.97795128 306.09487724 152.32439804 C306.09494467 151.60529464 306.09501209 150.88619123 306.09508156 150.14529682 C306.09626533 138.5488112 306.10090893 126.9523294 306.10683203 115.35584535 C306.11270696 103.71013293 306.11488986 92.06442526 306.11350138 80.41871132 C306.11285791 74.1036782 306.11387653 67.78865633 306.11920547 61.47362518 C306.12404106 55.70142871 306.12433758 49.92925113 306.12089889 44.15705381 C306.12047336 42.06012727 306.12176775 39.96319959 306.12488318 37.86627533 C306.12885024 35.03320267 306.12676141 32.20019978 306.12304783 29.36712837 C306.12567484 28.53812277 306.12830186 27.70911717 306.13100848 26.85499018 C306.21667844 22.79635877 306.21667844 22.79635877 305 19 C268.45491939 18.9771349 231.90984004 18.95950242 195.36475376 18.94893467 C191.05493674 18.94768389 186.74511973 18.94638958 182.43530273 18.94506836 C181.14823654 18.94467489 181.14823654 18.94467489 179.83516901 18.94427348 C165.92311072 18.93991652 152.01105654 18.93202883 138.0990007 18.9228472 C123.8348496 18.91351138 109.57070066 18.90794454 95.30654663 18.90591151 C86.49753433 18.90453613 77.68853366 18.90018475 68.87952494 18.89208353 C62.84727242 18.88681696 56.81502595 18.8851955 50.7827713 18.88649862 C47.29715579 18.88714214 43.81156065 18.88612293 40.32594872 18.88079453 C36.55591065 18.87586501 32.78592349 18.87699896 29.0158844 18.87974548 C27.34520042 18.87537622 27.34520042 18.87537622 25.64076525 18.87091869 C24.13817688 18.87390526 24.13817688 18.87390526 22.60523319 18.87695217 C21.73377503 18.87657245 20.86231688 18.87619273 19.9644509 18.8758015 C17.99674239 18.78289712 17.99674239 18.78289712 17 20 Z " fill="#3B2A26" transform="translate(53,35)"/>
<path d="M0 0 C105.93 0 211.86 0 321 0 C321 2.97 321 5.94 321 9 C320.67 9 320.34 9 320 9 C320 6.36 320 3.72 320 1 C214.73 1 109.46 1 1 1 C1.33 64.69 1.66 128.38 2 194 C2.66 185.42 3.32 176.84 4 168 C4.66 167.67 5.32 167.34 6 167 C7.15927528 170.47782583 7.11313066 173.18803257 7.09765625 176.85546875 C7.0962413 177.51710526 7.09482635 178.17874176 7.09336853 178.86042786 C7.08777996 180.96949828 7.07522965 183.07846177 7.0625 185.1875 C7.05748352 186.61913909 7.05292087 188.05077985 7.04882812 189.48242188 C7.0378143 192.98831588 7.02055755 196.4941475 7 200 C7.33 200 7.66 200 8 200 C8.07347656 201.06541016 8.07347656 201.06541016 8.1484375 202.15234375 C8.22320312 203.07144531 8.29796875 203.99054688 8.375 204.9375 C8.44460937 205.85402344 8.51421875 206.77054688 8.5859375 207.71484375 C8.72257812 208.46894531 8.85921875 209.22304687 9 210 C9.66 210.33 10.32 210.66 11 211 C11.33 202.09 11.66 193.18 12 184 C12.33 184 12.66 184 13 184 C13.33 214.03 13.66 244.06 14 275 C13.34 275 12.68 275 12 275 C12 275.66 12 276.32 12 277 C12.66 277 13.32 277 14 277 C14.74609209 294.2822722 15.14354457 311.52359973 15.11352539 328.82104492 C15.11321787 331.1972494 15.11335455 333.57345396 15.11389065 335.94965839 C15.11411317 342.21960306 15.1083868 348.489528 15.10128021 354.75946808 C15.09551565 360.67839102 15.09531336 366.59730956 15.09460449 372.51623535 C15.08939119 389.73999277 15.07542997 406.96374665 15.0625 424.1875 C15.041875 462.735625 15.02125 501.28375 15 541 C111.03 541 207.06 541 306 541 C306 445.63 306 350.26 306 252 C306.33 252 306.66 252 307 252 C307.33 299.85 307.66 347.7 308 397 C308.33 385.12 308.66 373.24 309 361 C309.66 357.37 310.32 353.74 311 350 C311.66 350.33 312.32 350.66 313 351 C313.66 349.68 314.32 348.36 315 347 C315.33 347.66 315.66 348.32 316 349 C316.04898437 347.90300781 316.09796875 346.80601562 316.1484375 345.67578125 C316.22350591 344.22133075 316.29905197 342.76690484 316.375 341.3125 C316.42140625 340.2306543 316.42140625 340.2306543 316.46875 339.12695312 C316.50742187 338.42119141 316.54609375 337.71542969 316.5859375 336.98828125 C316.6173584 336.34415283 316.6487793 335.70002441 316.68115234 335.03637695 C317 333 317 333 318 330.91882324 C319.33084177 327.03433134 319.30808014 323.32105257 319.31884766 319.26245117 C319.32889328 318.39365326 319.3389389 317.52485535 319.34928894 316.62973022 C319.3800984 313.76748292 319.3971499 310.90532907 319.4140625 308.04296875 C319.43277594 306.05470477 319.45234949 304.06644871 319.4727478 302.07820129 C319.52405634 296.85206782 319.56368899 291.6259086 319.60089111 286.3996582 C319.6409387 281.06390013 319.69202763 275.72824903 319.7421875 270.39257812 C319.8389317 259.92846058 319.92334139 249.46428261 320 239 C320.33 239 320.66 239 321 239 C321 343.61 321 448.22 321 556 C215.07 556 109.14 556 0 556 C0 372.52 0 189.04 0 0 Z " fill="#2D211D" transform="translate(53,35)"/>
<path d="M0 0 C106.59 0 213.18 0 323 0 C323 1.32 323 2.64 323 4 C324.98 4.99 324.98 4.99 327 6 C327.05133757 58.7601861 327.09910168 111.52037437 327.12702942 164.28057861 C327.12744359 165.06102098 327.12785776 165.84146335 327.12828448 166.64555549 C327.13726249 183.60527549 327.14557314 200.56499576 327.15319599 217.52471642 C327.15693811 225.84134747 327.16082776 234.15797844 327.16479492 242.47460938 C327.1651872 243.30222919 327.16557948 244.12984901 327.16598364 244.98254821 C327.17877548 271.82460164 327.20131522 298.66663617 327.22889166 325.50867813 C327.25717061 353.08449738 327.27565195 380.66030616 327.28174497 408.23613966 C327.28260948 412.12797954 327.28358639 416.0198194 327.28463173 419.91165924 C327.284834 420.67765491 327.28503627 421.44365059 327.28524467 422.23285825 C327.28879453 434.58026742 327.30272139 446.92764429 327.3204961 459.27504027 C327.3381306 471.67805313 327.34491078 484.08103386 327.34050413 496.48405883 C327.33841843 503.20847801 327.34161429 509.93279641 327.35761642 516.65719986 C327.37214215 522.80579847 327.37300028 528.95423746 327.36269668 535.1028432 C327.36142195 537.33439674 327.36528929 539.56595998 327.37464955 541.79749426 C327.38658523 544.81712333 327.38026348 547.83616644 327.36914349 550.85578537 C327.37702453 551.73408469 327.38490557 552.61238401 327.39302543 553.51729846 C327.36416693 556.95496418 327.28045972 559.40097925 325.810673 562.54022771 C323.34158614 564.53081606 321.81828463 564.50022023 318.66008854 564.50057125 C317.545379 564.51038554 316.43066946 564.52019983 315.28218085 564.53031152 C313.43756259 564.51590402 313.43756259 564.51590402 311.55567932 564.50120544 C310.25328511 564.50673984 308.95089089 564.51227424 307.60903019 564.51797634 C303.98627996 564.53278136 300.36396215 564.52252026 296.7412256 564.50823963 C292.83725774 564.49716202 288.93335215 564.50906179 285.02938843 564.51808167 C277.37822234 564.53203854 269.72722092 564.52443979 262.07606263 564.50940608 C253.17113096 564.49257288 244.26624062 564.49575288 235.36129796 564.49950016 C219.47480006 564.50538331 203.58838133 564.49118982 187.7019043 564.46655273 C172.27739493 564.44263467 156.85299138 564.43554632 141.4284668 564.44604492 C124.64424656 564.45744848 107.86007531 564.45939084 91.07585567 564.44494683 C89.28682165 564.44342094 87.49778762 564.44190059 85.70875359 564.44038582 C84.82845022 564.439628 83.94814686 564.43887019 83.04116764 564.43808941 C76.83034565 564.43334191 70.61954549 564.43520135 64.40872383 564.43945122 C56.84154236 564.44437271 49.27446103 564.43841679 41.70730252 564.41855692 C37.84455472 564.40866981 33.98195957 564.40359497 30.11920357 564.41144943 C25.93642514 564.41978072 21.75405524 564.40495548 17.57130432 564.38768005 C16.34378954 564.3936901 15.11627476 564.39970014 13.85156256 564.40589231 C12.73424527 564.39745237 11.61692799 564.38901243 10.4657526 564.38031673 C9.01690083 564.37877304 9.01690083 564.37877304 7.53877932 564.37719816 C4.5294757 563.93009203 3.17448138 563.10225487 1 561 C-0.34074086 556.97777743 -0.13546357 553.11010955 -0.12304783 548.91636372 C-0.12420167 547.97078967 -0.12535552 547.02521562 -0.12654433 546.05098781 C-0.12921114 542.85244076 -0.12468827 539.6539431 -0.12025452 536.45539856 C-0.12069021 534.15117067 -0.12156507 531.84694283 -0.12284368 529.54271525 C-0.12508911 523.18740884 -0.12106669 516.83211915 -0.11606562 510.47681487 C-0.11171551 504.33440258 -0.11302515 498.19199019 -0.11374746 492.04957683 C-0.11506268 479.48087725 -0.11171498 466.91218293 -0.10573006 454.34348488 C-0.0998175 441.89492581 -0.09596501 429.44636892 -0.09487724 416.99780846 C-0.0948085 416.22443317 -0.09473976 415.45105789 -0.09466894 414.65424699 C-0.09433062 410.72682881 -0.09402923 406.79941062 -0.09374207 402.87199243 C-0.09164042 375.03811391 -0.08489962 347.20423824 -0.07543945 319.37036133 C-0.06625836 292.32641617 -0.05919002 265.28247179 -0.05493164 238.23852539 C-0.054661 236.53856307 -0.05439029 234.83860075 -0.05411953 233.13863844 C-0.05193083 219.32622326 -0.04988822 205.51380807 -0.04788104 191.70139287 C-0.03848984 127.80092587 -0.01842043 63.90046633 0 0 Z M1 1 C1 184.48 1 367.96 1 557 C107.26 557 213.52 557 323 557 C323.0286981 461.43616114 323.0286981 461.43616114 323.04816496 365.87232149 C323.05020623 352.04062359 323.05229419 338.20892569 323.05452599 324.37722782 C323.05479583 322.70411763 323.0550642 321.03100744 323.05533109 319.35789724 C323.05960008 292.67175141 323.06710547 265.98560769 323.07629722 239.29946313 C323.08572479 211.87897011 323.09188428 184.45847825 323.09391499 157.03798364 C323.09420316 153.16754641 323.09452879 149.2971092 323.09487724 145.42667198 C323.09494467 144.66489318 323.09501209 143.90311438 323.09508156 143.11825138 C323.09626457 130.84172049 323.10090614 118.56519321 323.10683203 106.28866379 C323.11271198 93.95509242 323.11496981 81.62152465 323.11350138 69.28795192 C323.11280642 62.60192337 323.11386865 55.91590672 323.11920547 49.22987938 C323.12405081 43.11519801 323.12433111 37.00053447 323.12089889 30.8858523 C323.12047433 28.66774266 323.1217605 26.44963193 323.12488318 24.23152445 C323.12886773 21.22779762 323.12675039 18.22413606 323.12304783 15.22041035 C323.12567484 14.34955108 323.12830186 13.47869181 323.13100848 12.58144286 C323.12763754 11.37986885 323.12763754 11.37986885 323.1241985 10.15402061 C323.12435448 9.46723792 323.12451046 8.78045523 323.12467116 8.07286095 C323.01685522 5.49107641 323.01685522 5.49107641 322 1 C216.07 1 110.14 1 1 1 Z " fill="#B3B1B0" transform="translate(52,34)"/>
<path d="M0 0 C96.69 0.33 193.38 0.66 293 1 C293 2.98 293 4.96 293 7 C292.67 6.34 292.34 5.68 292 5 C149.935 5.495 149.935 5.495 5 6 C4.67 177.93 4.34 349.86 4 527 C3.34 527 2.68 527 2 527 C1.67 439.88 1.34 352.76 1 263 C0.34 263 -0.32 263 -1 263 C-1 262.34 -1 261.68 -1 261 C-0.34 261 0.32 261 1 261 C0.93941406 260.10667969 0.87882812 259.21335937 0.81640625 258.29296875 C-0.24266256 241.5481746 -0.56501459 224.77001631 -1 208 C-1.33 208 -1.66 208 -2 208 C-2.04898438 207.30132812 -2.09796875 206.60265625 -2.1484375 205.8828125 C-2.22320312 204.97273437 -2.29796875 204.06265625 -2.375 203.125 C-2.44460937 202.22007812 -2.51421875 201.31515625 -2.5859375 200.3828125 C-2.79568132 197.82058097 -2.79568132 197.82058097 -5 196 C-5.4140625 193.8359375 -5.4140625 193.8359375 -5.625 191.375 C-5.69976562 190.55773437 -5.77453125 189.74046875 -5.8515625 188.8984375 C-5.90054688 188.27195313 -5.94953125 187.64546875 -6 187 C-6.33 187 -6.66 187 -7 187 C-6.99476318 186.0713916 -6.98952637 185.1427832 -6.98413086 184.18603516 C-6.96710407 180.74576195 -6.95455727 177.30553341 -6.94506836 173.86523438 C-6.94003486 172.37531834 -6.93320758 170.88540726 -6.92456055 169.39550781 C-6.91245195 167.25584696 -6.90676193 165.11625132 -6.90234375 162.9765625 C-6.89710693 161.68830566 -6.89187012 160.40004883 -6.88647461 159.07275391 C-6.78457369 156.08594772 -6.78457369 156.08594772 -8 154 C-8.0501123 154.77714355 -8.10022461 155.55428711 -8.15185547 156.35498047 C-8.38337082 159.86235925 -8.62900186 163.36860854 -8.875 166.875 C-8.99294922 168.70998047 -8.99294922 168.70998047 -9.11328125 170.58203125 C-9.19707031 171.74863281 -9.28085937 172.91523438 -9.3671875 174.1171875 C-9.44050293 175.19597168 -9.51381836 176.27475586 -9.58935547 177.38623047 C-10 180 -10 180 -12 182 C-12 138.11 -12 94.22 -12 49 C-11.67 49 -11.34 49 -11 49 C-10.34 44.71 -9.68 40.42 -9 36 C-8.67 36 -8.34 36 -8 36 C-6.16895116 44.40539636 -5.5971707 52.60152809 -5.375 61.1875 C-5.33632813 62.42564453 -5.29765625 63.66378906 -5.2578125 64.93945312 C-5.16452931 67.95949626 -5.07873594 70.9795486 -5 74 C-4.34 74 -3.68 74 -3 74 C-2.8546329 69.96567641 -2.71238319 65.93125485 -2.57275391 61.89672852 C-2.52506275 60.53048901 -2.47658822 59.16427658 -2.42724609 57.7980957 C-2.10513421 48.86113428 -1.93129003 39.94279366 -2 31 C-1.67 31 -1.34 31 -1 31 C-0.67 20.77 -0.34 10.54 0 0 Z " fill="#56433C" transform="translate(66,49)"/>
<path d="M0 0 C26.13805378 -0.04668392 52.27610133 -0.08197113 78.41418839 -0.10362434 C90.55006553 -0.11394473 102.6859168 -0.12801963 114.82177734 -0.15087891 C125.39719241 -0.17078944 135.97258874 -0.18371089 146.54802203 -0.18817699 C152.1496047 -0.19078833 157.75113376 -0.19694195 163.35269928 -0.21146011 C168.62211259 -0.22500711 173.89145006 -0.22922848 179.16087914 -0.22621536 C181.09749704 -0.22676682 183.03411741 -0.23076137 184.97072029 -0.23841095 C187.60998904 -0.24832707 190.24896953 -0.24598108 192.88824463 -0.24050903 C193.65867387 -0.24633472 194.42910311 -0.2521604 195.22287869 -0.25816262 C198.96931645 -0.23709481 201.82133653 -0.09701964 205 2 C204 3 204 3 201.22436523 3.11352539 C200.01466064 3.10828857 198.80495605 3.10305176 197.55859375 3.09765625 C196.25341797 3.09443359 194.94824219 3.09121094 193.60351562 3.08789062 C192.2148431 3.07953401 190.82617123 3.07106905 189.4375 3.0625 C188.04492344 3.05748666 186.65234519 3.05292347 185.25976562 3.04882812 C181.8398013 3.03699434 178.41992156 3.0205088 175 3 C175 3.66 175 4.32 175 5 C169.06 5.33 163.12 5.66 157 6 C172.18 6.33 187.36 6.66 203 7 C203 7.33 203 7.66 203 8 C216.86 8.33 230.72 8.66 245 9 C245 8.34 245 7.68 245 7 C249.75 6.875 249.75 6.875 252 8 C253.66619446 8.0396713 255.33391013 8.04384447 257 8 C257.33 7.01 257.66 6.02 258 5 C258 5.66 258 6.32 258 7 C258.70326416 6.67169189 259.40652832 6.34338379 260.13110352 6.00512695 C263.29491133 4.89667688 265.5625063 4.80857444 268.90234375 4.91796875 C270.03438232 4.95414307 271.1664209 4.99031738 272.33276367 5.02758789 C274.11710815 5.10674438 274.11710815 5.10674438 275.9375 5.1875 C277.14704346 5.23575928 278.35658691 5.28401855 279.6027832 5.33374023 C288.00373939 5.73642136 295.90312445 6.62032678 304 9 C303.67 10.32 303.34 11.64 303 13 C206.64 13 110.28 13 11 13 C10.67 17.29 10.34 21.58 10 26 C9.34 27.32 8.68 28.64 8 30 C8.00523682 29.43490723 8.01047363 28.86981445 8.01586914 28.28759766 C8.03662422 25.7334097 8.0496554 23.17923947 8.0625 20.625 C8.07087891 19.73554687 8.07925781 18.84609375 8.08789062 17.9296875 C8.09111328 17.07890625 8.09433594 16.228125 8.09765625 15.3515625 C8.10289307 14.56604004 8.10812988 13.78051758 8.11352539 12.97119141 C8.12573953 10.92227332 8.12573953 10.92227332 7 9 C6.96261719 9.60328125 6.92523438 10.2065625 6.88671875 10.828125 C6.82097656 11.62734375 6.75523438 12.4265625 6.6875 13.25 C6.62949219 14.03890625 6.57148437 14.8278125 6.51171875 15.640625 C5.9150147 18.39184062 4.81336211 19.88035957 3 22 C3.03480469 20.74703125 3.06960937 19.4940625 3.10546875 18.203125 C3.13361128 16.55209676 3.16091094 14.90105399 3.1875 13.25 C3.21263672 12.425 3.23777344 11.6 3.26367188 10.75 C3.27333984 9.95078125 3.28300781 9.1515625 3.29296875 8.328125 C3.3086792 7.5949707 3.32438965 6.86181641 3.34057617 6.10644531 C2.90813419 3.4318149 1.66039787 2.09790378 0 0 Z " fill="#2F231F" transform="translate(56,37)"/>
<path d="M0 0 C0.87145816 0.00037972 1.74291632 0.00075944 2.6407823 0.00115067 C4.14337067 -0.00183591 4.14337067 -0.00183591 5.67631435 -0.00488281 C7.34699833 -0.00051355 7.34699833 -0.00051355 9.0514335 0.00394398 C10.22426746 0.00308955 11.39710141 0.00223513 12.60547578 0.00135481 C15.87548269 -0.00001336 19.1454505 0.00313407 22.41545278 0.00813287 C25.93625884 0.01243411 29.45706293 0.01099119 32.97787088 0.0102306 C39.0827547 0.00970516 45.18762788 0.01285408 51.29250902 0.01846844 C60.11924243 0.02658069 68.94597066 0.02919838 77.7727074 0.03045643 C92.09201367 0.03264738 106.41131427 0.03930864 120.73061746 0.04875904 C134.64402863 0.05793204 148.55743826 0.06501342 162.47085184 0.06926686 C163.32785685 0.06952958 164.18486185 0.0697923 165.06783671 0.07006299 C169.36699452 0.07136798 173.66615233 0.0726317 177.96531016 0.07387489 C213.65539386 0.08424885 249.34547096 0.10186835 285.0355491 0.1241985 C286.65736533 3.36783094 286.16988952 6.92773068 286.15859693 10.49132687 C286.15975078 11.37158887 286.16090462 12.25185088 286.16209343 13.15878749 C286.16476364 16.14118297 286.16023461 19.12352566 286.15580362 22.10591847 C286.15623924 24.2525409 286.15711397 26.39916327 286.15839279 28.54578537 C286.16063957 34.47009178 286.15661396 40.39438027 286.15161473 46.3186844 C286.14731304 52.69771361 286.14875645 59.07674173 286.149517 65.45577198 C286.15004241 76.51636331 286.14692855 87.57694867 286.14127916 98.63753849 C286.13536754 110.24122479 286.13151431 121.84490874 286.13042635 133.44859654 C286.13035761 134.16935938 286.13028887 134.89012223 286.13021805 135.63272637 C286.12987972 139.29293181 286.12957834 142.95313725 286.12929117 146.61334269 C286.12718927 172.55657877 286.12044775 198.49981179 286.11098856 224.44304615 C286.10180814 249.65072828 286.09473947 274.85840957 286.09048074 300.06609303 C286.0902101 301.6505027 286.0899394 303.23491238 286.08966863 304.81932205 C286.08747995 317.69276145 286.08543733 330.56620087 286.08343015 343.4396403 C286.07403812 403.0011626 286.05396893 462.56267691 286.0355491 522.1241985 C190.6655491 522.1241985 95.2955491 522.1241985 -2.9644509 522.1241985 C-3.00482954 391.26599134 -3.00482954 391.26599134 -3.01261586 341.22319788 C-3.01465717 328.13668283 -3.01674515 315.05016779 -3.01897689 301.96365277 C-3.01924673 300.3806371 -3.0195151 298.79762144 -3.01978198 297.21460577 C-3.02405269 271.95537372 -3.03155935 246.6961439 -3.04074812 221.4369132 C-3.05017087 195.48747734 -3.05633405 169.53804272 -3.05836589 143.58860518 C-3.05865406 139.92770389 -3.0589797 136.26680259 -3.05932814 132.6059013 C-3.05939556 131.88534732 -3.05946298 131.16479335 -3.05953245 130.4224044 C-3.06071651 118.79968597 -3.06536085 107.17697134 -3.07128293 95.55425446 C-3.07715601 83.88391479 -3.07934119 72.21357984 -3.07795227 60.54323865 C-3.07730854 54.21415257 -3.07833032 47.88507772 -3.08365637 41.55599362 C-3.08848838 35.77213014 -3.08879087 29.98828552 -3.08534979 24.20442121 C-3.0849239 22.10212892 -3.0862213 19.9998355 -3.08933408 17.89754546 C-3.09329472 15.05963873 -3.09121638 12.22180186 -3.08749872 9.38389641 C-3.09012574 8.55065945 -3.09275275 7.71742249 -3.09545937 6.85893592 C-3.07546481 0.19444014 -3.07546481 0.19444014 0 0 Z M-0.9644509 4.1241985 C-0.9644509 174.7341985 -0.9644509 345.3441985 -0.9644509 521.1241985 C93.4155491 521.1241985 187.7955491 521.1241985 285.0355491 521.1241985 C285.0355491 350.1841985 285.0355491 179.2441985 285.0355491 3.1241985 C238.2167991 3.1035735 191.3980491 3.0829485 143.1605491 3.0616985 C128.35196024 3.05259449 113.54337137 3.04349049 98.28603739 3.03411061 C85.06556326 3.03076714 85.06556326 3.03076714 71.8450889 3.02875477 C65.93517278 3.02781933 60.02526603 3.02413896 54.11535257 3.01862293 C47.3068767 3.01227758 40.49840988 3.00935785 33.68993103 3.01075355 C30.20379046 3.01135848 26.71767012 3.01036973 23.23153323 3.00498337 C19.50693745 3.00005389 15.78239323 3.00119217 12.05779642 3.00394398 C10.95890526 3.00103132 9.86001409 2.99811865 8.7278232 2.99511772 C7.23745483 2.99810403 7.23745483 2.99810403 5.71697801 3.00115067 C4.85501286 3.00077095 3.99304771 3.00039123 3.10496241 3 C0.97258549 2.99200257 0.97258549 2.99200257 -0.9644509 4.1241985 Z " fill="#C2C0C0" transform="translate(72.96445089578629,53.875801503658295)"/>
<path d="M0 0 C96.03 0 192.06 0 291 0 C291 1.65 291 3.3 291 5 C290.67 4.34 290.34 3.68 290 3 C147.935 3.495 147.935 3.495 3 4 C2.67 175.93 2.34 347.86 2 525 C1.34 525 0.68 525 0 525 C0 351.75 0 178.5 0 0 Z " fill="#878787" transform="translate(68,51)"/>
<path d="M0 0 C0.33 0 0.66 0 1 0 C1 182.16 1 364.32 1 552 C-1.55702473 553.27851237 -3.34827434 553.12417456 -6.21241951 553.12304783 C-7.3241214 553.12503888 -8.43582329 553.12702993 -9.58121312 553.12908131 C-11.42845693 553.12471205 -11.42845693 553.12471205 -13.3130188 553.12025452 C-14.6132973 553.12110894 -15.9135758 553.12196337 -17.25325668 553.12284368 C-20.87444948 553.1250883 -24.49561292 553.1210678 -28.11680198 553.11606562 C-32.01728044 553.11176084 -35.91775714 553.11320756 -39.8182373 553.1139679 C-46.58008341 553.11449311 -53.34191989 553.11134654 -60.10376358 553.10573006 C-69.88034272 553.09761476 -79.65691718 553.09499981 -89.43349932 553.09374207 C-105.29404776 553.09155159 -121.15459107 553.08489163 -137.01513672 553.07543945 C-152.42529271 553.06626521 -167.8354473 553.05918444 -183.24560547 553.05493164 C-184.19494462 553.05466892 -185.14428376 553.05440619 -186.12239076 553.05413551 C-190.88478414 553.0528305 -195.64717753 553.05156679 -200.40957093 553.05032361 C-239.93971755 553.03995114 -279.46985844 553.02233295 -319 553 C-319.66 551.68 -320.32 550.36 -321 549 C-215.07 549 -109.14 549 0 549 C0 367.83 0 186.66 0 0 Z " fill="#797776" transform="translate(375,42)"/>
<path d="M0 0 C0.33 0 0.66 0 1 0 C1 181.83 1 363.66 1 551 C0.67 551 0.34 551 0 551 C-0.33 389.3 -0.66 227.6 -1 61 C-1.33 64.3 -1.66 67.6 -2 71 C-2.804375 71.28875 -3.60875 71.5775 -4.4375 71.875 C-7.1326468 72.73262568 -7.1326468 72.73262568 -8 75 C-8.09051069 76.69543591 -8.11754872 78.39443978 -8.11352539 80.09228516 C-8.11344986 81.15323395 -8.11337433 82.21418274 -8.11329651 83.30728149 C-8.10813522 84.45626923 -8.10297394 85.60525696 -8.09765625 86.7890625 C-8.09553383 88.54940323 -8.09553383 88.54940323 -8.09336853 90.3453064 C-8.08775689 94.10522985 -8.07520238 97.86509445 -8.0625 101.625 C-8.0574865 104.16926998 -8.05292333 106.71354088 -8.04882812 109.2578125 C-8.03778368 115.50522853 -8.02103418 121.75261006 -8 128 C-7.34 128 -6.68 128 -6 128 C-5.10250178 131.0682638 -4.88288232 133.79269976 -4.90234375 136.984375 C-4.90556641 137.91894531 -4.90878906 138.85351562 -4.91210938 139.81640625 C-4.92048828 140.78449219 -4.92886719 141.75257813 -4.9375 142.75 C-4.94201172 143.73355469 -4.94652344 144.71710938 -4.95117188 145.73046875 C-4.96293517 148.15370791 -4.97937316 150.57682273 -5 153 C-5.66 153 -6.32 153 -7 153 C-7.03738281 153.92039063 -7.07476562 154.84078125 -7.11328125 155.7890625 C-7.58251785 164.82416717 -8.84114412 173.18806626 -11 182 C-11.33 182 -11.66 182 -12 182 C-12 177.71 -12 173.42 -12 169 C-12.33 170.98 -12.66 172.96 -13 175 C-13.33 175 -13.66 175 -14 175 C-14.1320774 164.07112578 -14.26256527 153.14223376 -14.39115143 142.21331787 C-14.45093847 137.13585497 -14.51122607 132.05839916 -14.57275391 126.98095703 C-14.71026645 115.608501 -14.83833714 104.23602002 -14.95019531 92.86328125 C-14.98038438 89.82414908 -15.01429215 86.78511993 -15.05371094 83.74609375 C-15.09714539 80.28906628 -15.12902486 76.83218581 -15.15625 73.375 C-15.1711145 72.42802246 -15.185979 71.48104492 -15.20129395 70.50537109 C-15.22937513 64.3440627 -15.22937513 64.3440627 -13 61 C-12.07702887 64.15486949 -11.85470984 67.02037725 -11.81054688 70.30224609 C-11.7937941 71.36723328 -11.77704132 72.43222046 -11.75978088 73.52947998 C-11.74624069 74.68248596 -11.7327005 75.83549194 -11.71875 77.0234375 C-11.70065781 78.22575012 -11.68256561 79.42806274 -11.66392517 80.66680908 C-11.62543583 83.23920969 -11.58891429 85.81164034 -11.5541687 88.38409424 C-11.464357 95.00101564 -11.359699 101.61769238 -11.25390625 108.234375 C-11.23344742 109.5250589 -11.21298859 110.8157428 -11.19190979 112.14553833 C-10.9680921 125.77050187 -10.56382679 139.38476145 -10 153 C-9.97507779 148.32267637 -9.95703585 143.64539233 -9.94506836 138.96801758 C-9.94007346 137.38044561 -9.93327525 135.79287817 -9.92456055 134.20532227 C-9.91228078 131.9090055 -9.90672314 129.61275013 -9.90234375 127.31640625 C-9.89718246 126.61914932 -9.89202118 125.9218924 -9.88670349 125.20350647 C-9.886306 121.62477532 -10.06442704 118.15869094 -10.5065918 114.60595703 C-11.0961429 109.71494292 -11.07439485 104.90791122 -10.9921875 99.98828125 C-10.97466263 98.07617726 -10.95775518 96.16406753 -10.94140625 94.25195312 C-10.91061066 91.28799965 -10.87518614 88.32434544 -10.82861328 85.3605957 C-10.67344841 74.90265806 -10.58389161 65.11226396 -13.32983398 54.94946289 C-14.45469757 49.99883376 -14.24949917 45.04542773 -14 40 C-10.83884224 41.36983503 -10.0072908 41.9890638 -8 45 C-7.505 44.505 -7.505 44.505 -7 44 C-7.20689453 43.18208984 -7.20689453 43.18208984 -7.41796875 42.34765625 C-8.1620535 39.34634796 -8.24570542 36.52762824 -8.3125 33.4375 C-8.36857422 31.73400391 -8.36857422 31.73400391 -8.42578125 29.99609375 C-8 27 -8 27 -6.05859375 25.359375 C-5.37925781 24.91078125 -4.69992187 24.4621875 -4 24 C-3.10594825 21.97993559 -3.10594825 21.97993559 -2.75 19.8125 C-2.5025 18.554375 -2.255 17.29625 -2 16 C-1.67 16 -1.34 16 -1 16 C-1 19.96 -1 23.92 -1 28 C-0.67 18.76 -0.34 9.52 0 0 Z " fill="#594D48" transform="translate(374,40)"/>
<path d="M0 0 C0.33 0 0.66 0 1 0 C1.09343242 18.68886903 1.16397383 37.37769067 1.20724869 56.0667448 C1.22787585 64.74436436 1.25599932 73.42183881 1.30175781 82.09936523 C1.34162095 89.66251513 1.3674317 97.22555995 1.37635398 104.78881198 C1.38156965 108.79371925 1.39383129 112.79832589 1.42292023 116.80313683 C1.45008126 120.57308771 1.45844374 124.34261429 1.45243073 128.11265373 C1.45353067 129.49576371 1.46148091 130.87888796 1.4768219 132.2619133 C1.49675608 134.15181444 1.48954683 136.04194352 1.48101807 137.93193054 C1.48470524 138.98922709 1.48839241 140.04652365 1.49219131 141.13585949 C0.87854359 144.70677442 -0.59706585 146.34751067 -3 149 C-6.76007561 156.61147716 -7.64647989 165.77466872 -9.1875 174.0625 C-9.46232153 175.51508174 -9.7377078 176.96755676 -10.01367188 178.41992188 C-10.68229377 181.94540848 -11.3432717 185.47227606 -12 189 C-12.33 189 -12.66 189 -13 189 C-14.04038078 154.10573918 -14.0883496 119.21916026 -14.0625 84.3125 C-14.06164398 83.1484174 -14.06078796 81.98433479 -14.05990601 80.78497696 C-14.04838787 66.18996975 -14.02813144 51.59498428 -14 37 C-13.67 37 -13.34 37 -13 37 C-12.67 63.73 -12.34 90.46 -12 118 C-11.67 115.36 -11.34 112.72 -11 110 C-10.67 110 -10.34 110 -10 110 C-10 115.94 -10 121.88 -10 128 C-8.68 119.42 -7.36 110.84 -6 102 C-5.34 102 -4.68 102 -4 102 C-4.33 93.75 -4.66 85.5 -5 77 C-5.66 77 -6.32 77 -7 77 C-7.7859802 65.80560088 -8.16055289 54.66835651 -8.13037109 43.4465332 C-8.12488582 41.01182159 -8.13042439 38.57728508 -8.13671875 36.14257812 C-8.13605987 34.58593709 -8.13478268 33.02929617 -8.1328125 31.47265625 C-8.13584885 30.38695091 -8.13584885 30.38695091 -8.13894653 29.27931213 C-8.11503877 24.23007755 -8.11503877 24.23007755 -7 22 C-6.77141886 19.9625237 -6.58975722 17.91959697 -6.4375 15.875 C-6.35371094 14.77929688 -6.26992188 13.68359375 -6.18359375 12.5546875 C-6.12300781 11.71164063 -6.06242187 10.86859375 -6 10 C-5.67 10 -5.34 10 -5 10 C-4.67 13.63 -4.34 17.26 -4 21 C-3.87625 19.55625 -3.7525 18.1125 -3.625 16.625 C-3.25 12.25 -3.25 12.25 -1 10 C-0.53837573 7.56747339 -0.53837573 7.56747339 -0.375 4.875 C-0.30023438 3.96492188 -0.22546875 3.05484375 -0.1484375 2.1171875 C-0.09945313 1.41851562 -0.05046875 0.71984375 0 0 Z " fill="#3F2B28" transform="translate(373,91)"/>
<path d="M0 0 C0.99 0 1.98 0 3 0 C5.65514317 3.98271475 5.27744717 7.43614371 5.25447559 12.05963898 C5.25768207 13.00262586 5.26088855 13.94561275 5.26419219 14.91717499 C5.27255615 18.10699381 5.26654566 21.29662798 5.26069641 24.4864502 C5.26371418 26.78441635 5.26760176 29.08238151 5.27228898 31.38034487 C5.28262597 37.71846874 5.28037273 44.0565364 5.27610838 50.394665 C5.27293321 56.52060485 5.28104057 62.64653512 5.28786864 68.77247028 C5.30313261 82.85467225 5.30481128 96.93685628 5.30234561 111.01906478 C5.3005151 121.89044339 5.30226746 132.7618161 5.30657005 143.63319397 C5.30717244 145.1933996 5.30777364 146.75360523 5.30837366 148.31381086 C5.30928088 150.66469425 5.31018954 153.01557764 5.31110601 155.36646103 C5.31953909 177.23174201 5.32386874 199.09702078 5.31969929 220.96230316 C5.31954291 221.78708262 5.31938654 222.61186208 5.31922542 223.46163486 C5.3184196 227.64223645 5.31757383 231.82283803 5.31671212 236.00343961 C5.31645549 237.24892978 5.31645549 237.24892978 5.31619367 238.51958137 C5.31584702 240.19870442 5.31549849 241.87782747 5.31514808 243.55695052 C5.30978923 269.69211446 5.3177245 295.82724469 5.33618164 321.96240234 C5.35687909 351.30440245 5.36762874 380.64638167 5.36360615 409.98838949 C5.36321079 413.11452834 5.36284924 416.24066718 5.36250877 419.36680603 C5.36241804 420.13657908 5.36232731 420.90635213 5.36223383 421.69945163 C5.36106595 433.33976872 5.36773057 444.98006476 5.37832069 456.62037659 C5.39034587 469.85180272 5.39196268 483.08318238 5.37953053 496.31460917 C5.37346677 503.07132451 5.37261672 509.82794332 5.38453293 516.58465385 C5.39530026 522.76146146 5.39239862 528.93810109 5.37827124 535.11490053 C5.37559888 537.35778335 5.37806929 539.60067895 5.38600711 541.84354931 C5.39600035 544.87602713 5.38778857 547.90790818 5.37473011 550.94036102 C5.38203946 551.82524285 5.3893488 552.71012468 5.39687964 553.62182111 C5.34324777 559.56871893 5.34324777 559.56871893 3.62875442 561.7229311 C1.28353729 563.56176194 -0.43539179 563.3737459 -3.3923502 563.3719368 C-5.08193988 563.38182156 -5.08193988 563.38182156 -6.80566269 563.39190602 C-8.04844528 563.38384962 -9.29122787 563.37579321 -10.57167053 563.36749268 C-11.88772654 563.37076152 -13.20378254 563.37403036 -14.55971903 563.37739825 C-18.22047801 563.38606998 -21.88098444 563.3759591 -25.54172146 563.36285591 C-29.48653464 563.35198241 -33.43132384 563.35836693 -37.37614441 563.36264038 C-45.10683203 563.36828177 -52.83742071 563.35794397 -60.56809146 563.34235242 C-69.5634736 563.32484211 -78.55883636 563.32339378 -87.55423289 563.32273683 C-103.59940911 563.32104768 -119.64454016 563.30521908 -135.68969727 563.28125 C-151.27335993 563.25798709 -166.85699394 563.24382488 -182.44067383 563.24023438 C-183.40056743 563.24001161 -184.36046103 563.23978884 -185.34944231 563.23955932 C-187.28305313 563.23911673 -189.21666396 563.23867471 -191.15027478 563.23823325 C-192.58089362 563.2379039 -192.58089362 563.2379039 -194.04041386 563.2375679 C-194.99169043 563.23735192 -195.942967 563.23713593 -196.92307014 563.2369134 C-211.75472397 563.23321554 -226.58637316 563.22185594 -241.41802191 563.2094375 C-246.80108121 563.20499726 -252.18414007 563.20156105 -257.56720049 563.19881538 C-266.10421285 563.194389 -274.64120807 563.18663716 -283.17820961 563.17204097 C-287.08116987 563.16541979 -290.98411496 563.16036578 -294.88708115 563.15958023 C-299.10984627 563.15865261 -303.33255869 563.14998648 -307.55531311 563.14044189 C-308.80032642 563.14130838 -310.04533973 563.14217486 -311.32808071 563.1430676 C-312.45186609 563.13922645 -313.57565147 563.13538531 -314.73349094 563.13142776 C-315.70926486 563.13018127 -316.68503877 563.12893477 -317.69038159 563.1276505 C-320 563 -320 563 -322 562 C-321.67 561.01 -321.34 560.02 -321 559 C-320.01 559.66 -319.02 560.32 -318 561 C-315.5034099 561.3021182 -315.5034099 561.3021182 -312.65450191 561.25447559 C-311.53855898 561.26030779 -310.42261604 561.26613998 -309.27285665 561.27214891 C-308.04174691 561.26836958 -306.81063717 561.26459026 -305.54222107 561.26069641 C-303.58651305 561.26643473 -303.58651305 561.26643473 -301.59129578 561.27228898 C-297.96480296 561.28260961 -294.33840855 561.28037689 -290.71190751 561.27610838 C-286.80389905 561.27364856 -282.89591474 561.28264596 -278.98791504 561.29014587 C-271.3294477 561.30291489 -263.67101539 561.30468389 -256.0125392 561.30234561 C-249.79075053 561.30056503 -243.56897253 561.30230649 -237.34718513 561.30657005 C-236.46282881 561.30716524 -235.57847249 561.30776043 -234.6673175 561.30837366 C-232.87097056 561.30958536 -231.07462362 561.31079949 -229.27827669 561.31201603 C-212.42145954 561.3228997 -195.56466237 561.32072495 -178.70784409 561.31463119 C-163.27052885 561.3094592 -147.83327667 561.32072342 -132.39597391 561.33972941 C-116.55986951 561.35907758 -100.72379499 561.36736926 -84.88767868 561.36360615 C-75.99085259 561.36168977 -67.0940802 561.36422415 -58.19726372 561.37832069 C-50.62491385 561.39019693 -43.05265074 561.39168173 -35.48029976 561.37953053 C-31.61374095 561.37361574 -27.74734112 561.37261357 -23.88079262 561.38453293 C-19.69733237 561.3972799 -15.51425528 561.38698957 -11.33079529 561.3742218 C-10.09745482 561.38159609 -8.86411436 561.38897037 -7.59339994 561.39656812 C-5.92339716 561.3857583 -5.92339716 561.3857583 -4.21965694 561.37473011 C-3.25299632 561.37478513 -2.2863357 561.37484014 -1.29038233 561.37489682 C-0.53455616 561.25118087 0.22127001 561.12746492 1 561 C3.64869707 557.0269544 3.27750702 553.59624678 3.25447559 548.98441982 C3.25768207 548.04619846 3.26088855 547.1079771 3.26419219 546.14132479 C3.27255594 542.96772655 3.26654574 539.79431393 3.26069641 536.62071228 C3.26371418 534.33440782 3.26760177 532.04810438 3.27228898 529.76180273 C3.28262583 523.45595288 3.28037278 517.15015952 3.27610838 510.84430492 C3.27293319 504.7495794 3.28104057 498.6548635 3.28786864 492.56014268 C3.30313228 478.55002602 3.30481134 464.53992739 3.30234561 450.52980416 C3.30051515 439.71467172 3.30226735 428.89954522 3.30657005 418.08441353 C3.30717244 416.53232645 3.30777364 414.98023936 3.30837366 413.42815228 C3.30928088 411.08951441 3.31018954 408.75087653 3.31110601 406.41223866 C3.31953896 384.66127182 3.32386881 362.91030721 3.31969929 341.15933895 C3.31954291 340.33888285 3.31938654 339.51842675 3.31922542 338.67310835 C3.3184196 334.51440845 3.31757383 330.35570855 3.31671212 326.19700866 C3.31654103 325.3710295 3.31636994 324.54505034 3.31619367 323.69404151 C3.31584702 322.02371079 3.31549849 320.35338008 3.31514808 318.68304936 C3.30978871 292.68215948 3.31772606 266.68130349 3.33618164 240.68041992 C3.35687645 211.49041658 3.36762929 182.30043424 3.36360615 153.11042315 C3.36321079 150.00087234 3.36284924 146.89132152 3.36250877 143.78177071 C3.36237268 142.63323418 3.36237268 142.63323418 3.36223383 141.46149489 C3.36106571 129.88042298 3.36773236 118.29937221 3.37832069 106.71830559 C3.39034252 93.55565465 3.39196654 80.39305042 3.37953053 67.23039883 C3.37346446 60.50823674 3.3726227 53.78617171 3.38453293 47.06401443 C3.3952929 40.91994962 3.39240768 34.77605375 3.37827124 28.63199718 C3.37559681 26.39989924 3.37807555 24.16778848 3.38600711 21.93570303 C3.39598544 18.92017258 3.3878018 15.90524413 3.37473011 12.88973904 C3.38203946 12.00704323 3.3893488 11.12434743 3.39687964 10.21490327 C3.40870688 7.56230627 3.40870688 7.56230627 3 4 C2.01 3.34 1.02 2.68 0 2 C0 1.34 0 0.68 0 0 Z " fill="#E9E9E8" transform="translate(375,36)"/>
<path d="M0 0 C96.03 0 192.06 0 291 0 C291 1.65 291 3.3 291 5 C290.67 4.34 290.34 3.68 290 3 C253.48891373 3.05883806 216.97789328 3.13335182 180.46688442 3.22898628 C176.15964524 3.24025489 171.85240574 3.25139327 167.54516602 3.26245117 C166.25888675 3.2657567 166.25888675 3.2657567 164.94662205 3.269129 C151.04885959 3.30453315 137.15109718 3.32937966 123.25330629 3.35034702 C109.00040921 3.37208428 94.74757081 3.40511485 80.49472362 3.44870156 C71.69492334 3.47525415 62.89519624 3.49292291 54.09535787 3.49934604 C48.06678275 3.50458893 42.03829982 3.52076869 36.00977405 3.54566566 C32.52792425 3.55971858 29.04623962 3.56883745 25.56435966 3.56500816 C21.79484182 3.56336874 18.02584073 3.57994099 14.25639343 3.60127258 C12.59444798 3.59400122 12.59444798 3.59400122 10.89892787 3.58658296 C9.89322019 3.5960395 8.88751252 3.60549604 7.85132885 3.61523914 C6.54528077 3.61808705 6.54528077 3.61808705 5.21284789 3.62099248 C2.55593723 4.07605725 1.67103272 4.93918665 0 7 C0 4.69 0 2.38 0 0 Z " fill="#7A7977" transform="translate(68,51)"/>
<path d="M0 0 C0.33 0 0.66 0 1 0 C2.36097007 10.4306825 2.0676428 20.87540553 1.94921875 31.3671875 C1.92995413 33.33488772 1.91089945 35.30259001 1.89204407 37.27029419 C1.85127122 41.37360726 1.8060724 45.47684371 1.75805664 49.58007812 C1.69718714 54.83558739 1.6503967 60.09111928 1.60722637 65.34679985 C1.57188119 69.40119623 1.52764912 73.45545975 1.48087502 77.50973892 C1.45985974 79.44817136 1.44194853 81.38664006 1.4272213 83.32513046 C1.4056419 86.0292892 1.37173425 88.73302624 1.3347168 91.43701172 C1.32911995 92.6324485 1.32911995 92.6324485 1.32341003 93.85203552 C1.25195818 98.04461023 0.71538392 101.18950782 -1 105 C-1.18035319 108.38509071 -1.27110014 111.72930289 -1.21484375 115.1171875 C-1.265625 117.1875 -1.265625 117.1875 -2 121 C-3.97520052 122.69598369 -5.97528687 124.36344431 -8 126 C-9.10225399 131.13862039 -9.1999249 136.3220569 -9.31640625 141.55859375 C-9.33718735 142.34774673 -9.35796844 143.13689972 -9.37937927 143.94996643 C-9.44423305 146.44573109 -9.50345805 148.94159178 -9.5625 151.4375 C-9.60574642 153.13998348 -9.64936256 154.84245762 -9.69335938 156.54492188 C-9.79984763 160.69651873 -9.90129147 164.84821118 -10 169 C-10.66 169.33 -11.32 169.66 -12 170 C-12 140.96 -12 111.92 -12 82 C-11.34 82.33 -10.68 82.66 -10 83 C-9.34 81.68 -8.68 80.36 -8 79 C-7.34 79 -6.68 79 -6 79 C-5.95101563 78.39414062 -5.90203125 77.78828125 -5.8515625 77.1640625 C-5.77679688 76.32617188 -5.70203125 75.48828125 -5.625 74.625 C-5.55539062 73.81289063 -5.48578125 73.00078125 -5.4140625 72.1640625 C-5.07216303 69.55143451 -4.57914743 67.11061682 -4 64.546875 C-2.82538564 58.71476506 -2.65172407 53.02078049 -2.5859375 47.0859375 C-2.56657135 45.99028473 -2.5472052 44.89463196 -2.5272522 43.76577759 C-2.46797306 40.30226165 -2.42127924 36.83871153 -2.375 33.375 C-2.33677261 31.01170509 -2.29771819 28.64842341 -2.2578125 26.28515625 C-2.16231465 20.5235558 -2.07711951 14.76187421 -2 9 C-1.34 9 -0.68 9 0 9 C0 6.03 0 3.06 0 0 Z " fill="#3A2824" transform="translate(372,263)"/>
<path d="M0 0 C0.99 0.33 1.98 0.66 3 1 C3.33 2.32 3.66 3.64 4 5 C109.93 4.67 215.86 4.34 325 4 C324.67 4.99 324.34 5.98 324 7 C283.42938532 7.06862383 242.85877819 7.12150727 202.2881171 7.15319599 C197.50148552 7.15694824 192.71485406 7.16083119 187.92822266 7.16479492 C186.97526579 7.16558185 186.02230892 7.16636878 185.04047456 7.16717956 C169.59786064 7.18024365 154.15528012 7.203903 138.71268603 7.23145839 C122.874415 7.25948471 107.03616149 7.27617038 91.19786668 7.28226548 C81.41994337 7.28638769 71.64211448 7.29942064 61.86422023 7.3237494 C55.1647503 7.33957237 48.46532938 7.34440818 41.76584211 7.34050413 C37.89702268 7.33857721 34.02836857 7.34159007 30.15957832 7.35761642 C25.97010695 7.37484499 21.78099025 7.36898579 17.5914917 7.36076355 C16.36193056 7.36950207 15.13236942 7.3782406 13.86554885 7.38724393 C12.18679778 7.37828421 12.18679778 7.37828421 10.47413254 7.36914349 C9.50660514 7.37028265 8.53907773 7.37142181 7.54223132 7.37259549 C4.54738424 6.93366355 3.18207101 6.06547005 1 4 C0.25 1.8125 0.25 1.8125 0 0 Z " fill="#CECECC" transform="translate(52,591)"/>
<path d="M0 0 C0.66 0 1.32 0 2 0 C2.09906509 5.32017615 2.17156072 10.63981247 2.21972656 15.96069336 C2.23981053 17.7697078 2.26708341 19.57865757 2.30175781 21.38745117 C2.35041892 23.99153621 2.37300051 26.59476115 2.390625 29.19921875 C2.41127014 30.00461594 2.43191528 30.81001312 2.45318604 31.63981628 C2.45523732 36.80265603 1.66871959 39.12686241 -2 43 C-5.76007561 50.61147716 -6.64647989 59.77466872 -8.1875 68.0625 C-8.46232153 69.51508174 -8.7377078 70.96755676 -9.01367188 72.41992188 C-9.68229377 75.94540848 -10.3432717 79.47227606 -11 83 C-11.33 83 -11.66 83 -12 83 C-12 68.15 -12 53.3 -12 38 C-11.01 37.505 -11.01 37.505 -10 37 C-9.27543972 34.06050128 -9.27543972 34.06050128 -8.78125 30.48046875 C-8.67784302 29.82548904 -8.57443604 29.17050934 -8.46789551 28.49568176 C-8.13678122 26.3941716 -7.81735673 24.29112862 -7.5 22.1875 C-7.18188565 20.09473108 -6.86109245 18.00254178 -6.53210449 15.91145325 C-6.23260124 14.00608698 -5.94320248 12.09914061 -5.65429688 10.19213867 C-5.0850492 7.4149322 -4.4269192 5.42131295 -3 3 C-2.34 3 -1.68 3 -1 3 C-0.67 2.01 -0.34 1.02 0 0 Z " fill="#50342C" transform="translate(372,197)"/>
<path d="M0 0 C0.33 0 0.66 0 1 0 C1 54.45 1 108.9 1 165 C0.67 165 0.34 165 0 165 C0 156.09 0 147.18 0 138 C-0.66 138 -1.32 138 -2 138 C-2 137.34 -2 136.68 -2 136 C-1.34 136 -0.68 136 0 136 C-0.06058594 135.10667969 -0.12117188 134.21335937 -0.18359375 133.29296875 C-1.24266256 116.5481746 -1.56501459 99.77001631 -2 83 C-2.33 83 -2.66 83 -3 83 C-3.07347656 81.95199219 -3.07347656 81.95199219 -3.1484375 80.8828125 C-3.22320312 79.97273438 -3.29796875 79.06265625 -3.375 78.125 C-3.44460937 77.22007812 -3.51421875 76.31515625 -3.5859375 75.3828125 C-3.79568132 72.82058097 -3.79568132 72.82058097 -6 71 C-6.24050903 68.21591187 -6.24050903 68.21591187 -6.22705078 64.62255859 C-6.22748886 63.64188667 -6.22748886 63.64188667 -6.22793579 62.6414032 C-6.22654065 60.47694704 -6.2109712 58.31283364 -6.1953125 56.1484375 C-6.19158302 54.64914132 -6.18873574 53.1498427 -6.18673706 51.65054321 C-6.17909548 47.70163257 -6.1594426 43.75286871 -6.1373291 39.80401611 C-6.1168819 35.77561428 -6.10773776 31.74718876 -6.09765625 27.71875 C-6.07619711 19.81243259 -6.04205495 11.90623455 -6 4 C-5.01 4.495 -5.01 4.495 -4 5 C-4 10.94 -4 16.88 -4 23 C-3.01 23 -2.02 23 -1 23 C-1.01160156 22.01 -1.02320312 21.02 -1.03515625 20 C-1.0897219 13.26199467 -1.08898024 6.67000397 0 0 Z " fill="#4B342D" transform="translate(67,174)"/>
<path d="M0 0 C1.30112228 0.00022659 2.60224457 0.00045319 3.9427948 0.00068665 C5.36331526 0.01600665 6.78383221 0.03165464 8.2043457 0.04760742 C9.65736961 0.05320342 11.11039919 0.0574735 12.56343079 0.06047058 C16.38583025 0.07191922 20.20788715 0.10138618 24.03015137 0.13458252 C27.93126796 0.16528322 31.83243997 0.17897589 35.73364258 0.1940918 C43.38679345 0.22625619 51.03966219 0.27745235 58.69262695 0.34057617 C58.36262695 1.00057617 58.03262695 1.66057617 57.69262695 2.34057617 C54.72262695 2.01057617 51.75262695 1.68057617 48.69262695 1.34057617 C48.69262695 2.00057617 48.69262695 2.66057617 48.69262695 3.34057617 C51.66262695 3.34057617 54.63262695 3.34057617 57.69262695 3.34057617 C57.69262695 5.65057617 57.69262695 7.96057617 57.69262695 10.34057617 C57.03262695 10.34057617 56.37262695 10.34057617 55.69262695 10.34057617 C55.69262695 9.35057617 55.69262695 8.36057617 55.69262695 7.34057617 C55.03262695 7.34057617 54.37262695 7.34057617 53.69262695 7.34057617 C51.78476855 10.51548557 51.53172285 12.44642829 52.06762695 16.09057617 C52.17848633 16.88979492 52.2893457 17.68901367 52.40356445 18.51245117 C52.49895508 19.11573242 52.5943457 19.71901367 52.69262695 20.34057617 C51.0265079 20.38329717 49.3587981 20.38121449 47.69262695 20.34057617 C46.69262695 19.34057617 46.69262695 19.34057617 46.5949707 17.27416992 C46.60657227 16.45045898 46.61817383 15.62674805 46.63012695 14.77807617 C46.63915039 13.95178711 46.64817383 13.12549805 46.6574707 12.27416992 C46.66907227 11.63608398 46.68067383 10.99799805 46.69262695 10.34057617 C45.70262695 10.38182617 44.71262695 10.42307617 43.69262695 10.46557617 C40.22101268 10.47295243 37.19299732 9.72410903 33.83374023 8.84838867 C30.46174682 8.04864565 27.07137454 7.65360272 23.63012695 7.27807617 C22.53474609 7.15239258 22.53474609 7.15239258 21.41723633 7.02416992 C16.51229157 6.48153126 11.61906671 6.12336274 6.69262695 5.84057617 C1.14218976 5.51477676 -3.93471111 4.75443458 -9.30737305 3.34057617 C-6.64604569 -0.21827758 -4.27646556 -0.02481508 0 0 Z " fill="#573229" transform="translate(314.307373046875,35.659423828125)"/>
<path d="M0 0 C0.33 0 0.66 0 1 0 C1 17.49 1 34.98 1 53 C0.34 52.67 -0.32 52.34 -1 52 C-1 50.68 -1 49.36 -1 48 C-1.99 48 -2.98 48 -4 48 C-4 50.97 -4 53.94 -4 57 C-4.66 56.01 -5.32 55.02 -6 54 C-6.33 55.98 -6.66 57.96 -7 60 C-7.33 60 -7.66 60 -8 60 C-8.02468084 54.90967159 -8.04285082 49.81937785 -8.05493164 44.72900391 C-8.05996682 42.99657586 -8.06679532 41.26415208 -8.07543945 39.53173828 C-8.08754065 37.04458567 -8.09323638 34.55748913 -8.09765625 32.0703125 C-8.10281754 31.29317902 -8.10797882 30.51604553 -8.11329651 29.71536255 C-8.11387171 24.22774341 -8.11387171 24.22774341 -7 22 C-6.77141886 19.9625237 -6.58975722 17.91959697 -6.4375 15.875 C-6.35371094 14.77929688 -6.26992188 13.68359375 -6.18359375 12.5546875 C-6.12300781 11.71164063 -6.06242187 10.86859375 -6 10 C-5.67 10 -5.34 10 -5 10 C-4.67 13.63 -4.34 17.26 -4 21 C-3.87625 19.55625 -3.7525 18.1125 -3.625 16.625 C-3.25 12.25 -3.25 12.25 -1 10 C-0.53837573 7.56747339 -0.53837573 7.56747339 -0.375 4.875 C-0.26285156 3.50988281 -0.26285156 3.50988281 -0.1484375 2.1171875 C-0.09945313 1.41851562 -0.05046875 0.71984375 0 0 Z " fill="#3D3432" transform="translate(373,91)"/>
<path d="M0 0 C0.54806234 0.32460217 1.09612468 0.64920434 1.66079497 0.98364294 C4.42768563 2.18582438 6.41419621 2.25455039 9.42728043 2.26171303 C10.53599762 2.26917852 11.64471482 2.27664401 12.7870295 2.28433573 C14.61386195 2.28143363 14.61386195 2.28143363 16.4776001 2.2784729 C17.77142034 2.2842653 19.06524059 2.2900577 20.39826751 2.29602563 C23.99214325 2.31184827 27.58594087 2.31525755 31.17984724 2.31667423 C35.05440981 2.32036434 38.92892932 2.33551786 42.8034668 2.34928894 C49.51725057 2.37157785 56.23101906 2.38658132 62.94483185 2.39665604 C72.6519084 2.41123293 82.35893172 2.43676697 92.06597707 2.46498732 C107.81447844 2.51047332 123.56298747 2.54708065 139.31152344 2.578125 C154.61101629 2.60830314 169.91049039 2.64265003 185.20996094 2.68261719 C186.6242205 2.68630951 186.6242205 2.68630951 188.06705096 2.69007643 C192.79693512 2.70245088 197.52681906 2.71490745 202.2567029 2.72740483 C241.50444263 2.83099969 280.75220511 2.92019401 320 3 C320 3.33 320 3.66 320 4 C215.06 4 110.12 4 2 4 C1.34 2.68 0.68 1.36 0 0 Z " fill="#8E8E8C" transform="translate(54,591)"/>
<path d="M0 0 C0.33 0 0.66 0 1 0 C1.04955872 4.89297012 1.0857946 9.78579305 1.10986328 14.67895508 C1.11990057 16.34239244 1.13353331 18.00581225 1.15087891 19.66918945 C1.17522749 22.06466005 1.18650588 24.45989668 1.1953125 26.85546875 C1.20563507 27.5952446 1.21595764 28.33502045 1.22659302 29.09721375 C1.22748532 33.23406667 0.687831 36.24461704 -1 40 C-1.24230982 43.47195352 -1.36584802 46.90279127 -1.390625 50.38085938 C-1.4609375 52.48046875 -1.4609375 52.48046875 -2 56 C-4.03369141 57.2199707 -4.03369141 57.2199707 -6 58 C-6.33108145 41.05542128 -6.3014764 24.70389845 -3 8 C-2.34 8 -1.68 8 -1 8 C-0.67 5.36 -0.34 2.72 0 0 Z " fill="#483029" transform="translate(372,328)"/>
<path d="M0 0 C0.99 0 1.98 0 3 0 C4.9442359 4.08020441 5.23494474 7.3337717 5.1953125 11.83203125 C5.18886719 13.12431641 5.18242187 14.41660156 5.17578125 15.74804688 C5.15907327 17.1028673 5.14214342 18.45768501 5.125 19.8125 C5.11496003 21.18684251 5.10583596 22.56119203 5.09765625 23.93554688 C5.07411242 27.29054317 5.04122567 30.64518199 5 34 C3.35 34.66 1.7 35.32 0 36 C-0.33 33.69 -0.66 31.38 -1 29 C-1.66 29 -2.32 29 -3 29 C-3 21.41 -3 13.82 -3 6 C-2.34 5.67 -1.68 5.34 -1 5 C-0.34444881 2.47266765 -0.34444881 2.47266765 0 0 Z " fill="#342B29" transform="translate(369,139)"/>
<path d="M0 0 C0.33 0 0.66 0 1 0 C1.10829314 2.89684158 1.18743954 5.78961019 1.25 8.6875 C1.30027344 9.91243164 1.30027344 9.91243164 1.3515625 11.16210938 C1.41795968 15.26213508 1.42579625 17.36435325 -0.91015625 20.8515625 C-1.59980469 21.56054688 -2.28945313 22.26953125 -3 23 C-5.72790518 28.08717452 -6.42350393 33.29512074 -6.7890625 38.99609375 C-7 41 -7 41 -8 42 C-8.3773881 44.41764253 -8.70735161 46.82193288 -9 49.25 C-9.52815763 53.5330283 -10.08378171 57.77885143 -11 62 C-11.33 62 -11.66 62 -12 62 C-12.38060368 51.27261484 -11.78968607 41.42157334 -9 31 C-8.67 30.67 -8.34 30.34 -8 30 C-7.837629 27.9192457 -7.72143583 25.83485081 -7.625 23.75 C-7.16542085 16.74859885 -6.46919299 9.61617097 -4 3 C-3.01 2.67 -2.02 2.34 -1 2 C-0.67 1.34 -0.34 0.68 0 0 Z " fill="#503127" transform="translate(373,203)"/>
<path d="M0 0 C0 0.66 0 1.32 0 2 C-4.07440459 2.95697414 -7.95711586 3.18002419 -12.13671875 3.28125 C-12.81620071 3.29965942 -13.49568268 3.31806885 -14.195755 3.33703613 C-16.35958709 3.39543305 -18.52349776 3.44832089 -20.6875 3.5 C-23.52486935 3.56860208 -26.36209401 3.64065546 -29.19921875 3.71875 C-30.23828369 3.74733849 -30.23828369 3.74733849 -31.29833984 3.77650452 C-34.83333537 3.88713242 -38.31438601 4.09700044 -41.82421875 4.52734375 C-49.87326157 5.43945015 -58.03721202 5.10333963 -66.125 5.0625 C-67.86197788 5.05747515 -69.59895716 5.05291398 -71.3359375 5.04882812 C-75.55732688 5.03790014 -79.77864764 5.02068978 -84 5 C-83.67 4.34 -83.34 3.68 -83 3 C-77.06 3 -71.12 3 -65 3 C-65 2.34 -65 1.68 -65 1 C-57.11567689 0.86922885 -49.23134802 0.73881268 -41.34701157 0.60884857 C-37.68592798 0.54848874 -34.02484649 0.48800704 -30.36376953 0.42724609 C-26.83005486 0.36860341 -23.29633502 0.31028182 -19.76261139 0.25218201 C-17.75960427 0.21916586 -15.75660263 0.18581796 -13.75360107 0.15246582 C-12.53263733 0.13244507 -11.31167358 0.11242432 -10.05371094 0.09179688 C-8.97893494 0.07403198 -7.90415894 0.05626709 -6.79681396 0.03796387 C-4.53138266 0.00721297 -2.26564 0 0 0 Z " fill="#4C2E28" transform="translate(296,39)"/>
<path d="M0 0 C3 1 3 1 4 3 C4.0716735 5.55157655 4.09308442 8.07472971 4.0625 10.625 C4.05798828 11.33140625 4.05347656 12.0378125 4.04882812 12.765625 C4.03703875 14.51045275 4.01910324 16.255237 4 18 C4.33 18 4.66 18 5 18 C3.56357388 41.43642612 3.56357388 41.43642612 0 45 C-1.32911876 41.01264372 -1.14267413 37.1839236 -1.1328125 33.02734375 C-1.13376923 32.14849014 -1.13472595 31.26963654 -1.13571167 30.364151 C-1.13639192 28.50733366 -1.1345484 26.65051394 -1.13037109 24.79370117 C-1.12501428 21.94509571 -1.13032458 19.09664747 -1.13671875 16.24804688 C-1.13605807 14.44531215 -1.13477711 12.64257752 -1.1328125 10.83984375 C-1.13483673 9.98462631 -1.13686096 9.12940887 -1.13894653 8.24827576 C-1.11496309 2.22992618 -1.11496309 2.22992618 0 0 Z " fill="#38292A" transform="translate(56,38)"/>
<path d="M0 0 C4.08655464 7.52046971 4.28793646 15.90611137 4.16015625 24.28515625 C4.15495468 25.22628769 4.14975311 26.16741913 4.14439392 27.1370697 C4.1267617 30.11237931 4.09563004 33.08732597 4.0625 36.0625 C4.03470678 39.0412083 4.00999625 42.01986213 3.99131775 44.99864197 C3.97924399 46.8419193 3.96182981 48.68517269 3.93800354 50.52833557 C3.90067747 55.37465256 4.17224465 60.04241311 4.76945496 64.85023499 C5.13611917 68.26927139 5.14306296 71.66995815 5.1328125 75.10546875 C5.13376923 75.83316971 5.13472595 76.56087067 5.13571167 77.31062317 C5.13638577 78.83232715 5.13458588 80.35403413 5.13037109 81.87573242 C5.12498812 84.19261139 5.13035439 86.50929862 5.13671875 88.82617188 C5.13605829 90.31510459 5.13477779 91.80403719 5.1328125 93.29296875 C5.13483673 93.97747604 5.13686096 94.66198334 5.13894653 95.36723328 C5.11968621 99.34621274 4.76238169 103.09534901 4 107 C3.67 107 3.34 107 3 107 C2.84741463 102.20852498 2.70295759 97.41684307 2.5625 92.625 C2.54010254 91.86477539 2.51770508 91.10455078 2.49462891 90.32128906 C2.16157265 78.82730498 1.92645758 67.33332152 1.74609375 55.8359375 C1.72535294 54.53153717 1.70461212 53.22713684 1.6832428 51.88320923 C1.57972996 45.30714446 1.48251695 38.73105258 1.39282227 32.15478516 C1.35577259 29.70735463 1.31858792 27.25992614 1.28125 24.8125 C1.26770981 23.67855804 1.25416962 22.54461609 1.24021912 21.37631226 C1.22346634 20.33044952 1.20671356 19.28458679 1.18945312 18.20703125 C1.17692505 17.2941333 1.16439697 16.38123535 1.15148926 15.44067383 C1.00969691 13.1562289 0.59690415 11.20039303 0 9 C-0.06548492 7.41788427 -0.08578381 5.83329919 -0.0625 4.25 C-0.05347656 3.45078125 -0.04445313 2.6515625 -0.03515625 1.828125 C-0.02355469 1.22484375 -0.01195312 0.6215625 0 0 Z " fill="#4F3428" transform="translate(360,92)"/>
<path d="M0 0 C1.90464929 3.23117243 2.26648872 5.66774744 2.31884766 9.39746094 C2.33871735 10.48089783 2.35858704 11.56433472 2.37905884 12.68060303 C2.39638565 14.43972015 2.39638565 14.43972015 2.4140625 16.234375 C2.43342865 17.45916565 2.4527948 18.6839563 2.4727478 19.94586182 C2.53252043 23.88050306 2.57873067 27.81517926 2.625 31.75 C2.66321824 34.32292935 2.70227216 36.89584642 2.7421875 39.46875 C2.97122509 54.97956134 3.0535742 70.48766028 3 86 C2.67 86 2.34 86 2 86 C1.24614278 82.58873096 0.83558468 79.34543893 0.70288086 75.85620117 C0.66291489 74.85292282 0.62294891 73.84964447 0.58177185 72.81596375 C0.54318558 71.7358754 0.5045993 70.65578705 0.46484375 69.54296875 C0.42186661 68.40837723 0.37888947 67.27378571 0.33460999 66.10481262 C0.24441313 63.69324067 0.15628714 61.2815905 0.07006836 58.86987305 C-0.05965598 55.26649881 -0.19825477 51.66354886 -0.33789062 48.06054688 C-0.7705717 36.51586077 -1.08985938 24.97915135 -1.12109375 13.42578125 C-1.12593277 12.41509079 -1.13077179 11.40440033 -1.13575745 10.36308289 C-1.13406052 9.43542618 -1.13236359 8.50776947 -1.13061523 7.55200195 C-1.12952003 6.33647392 -1.12952003 6.33647392 -1.12840271 5.09638977 C-1 3 -1 3 0 0 Z " fill="#66483A" transform="translate(360,101)"/>
<path d="M0 0 C0.33 0 0.66 0 1 0 C1.1243417 15.37054735 0.90363196 30.65439298 0 46 C0.66 46 1.32 46 2 46 C2 66.46 2 86.92 2 108 C1.67 108 1.34 108 1 108 C0.34 88.53 -0.32 69.06 -1 49 C-1.33 49 -1.66 49 -2 49 C-2 37.45 -2 25.9 -2 14 C-1.67 14 -1.34 14 -1 14 C-0.67 9.38 -0.34 4.76 0 0 Z " fill="#5A3C35" transform="translate(66,66)"/>
<path d="M0 0 C0.33 0 0.66 0 1 0 C1.0871747 3.74985325 1.14045003 7.49944555 1.1875 11.25 C1.22520508 12.84521484 1.22520508 12.84521484 1.26367188 14.47265625 C1.27817383 16.00986328 1.27817383 16.00986328 1.29296875 17.578125 C1.31653442 18.99206543 1.31653442 18.99206543 1.34057617 20.43457031 C0.93977988 23.45361509 0.10269958 24.82604954 -2 27 C-2.66 27 -3.32 27 -4 27 C-4.12375 27.94875 -4.2475 28.8975 -4.375 29.875 C-5 33 -5 33 -7 35 C-7.09978121 31.50765756 -6.77842938 28.40562852 -6 25 C-6.99 25 -7.98 25 -9 25 C-6.01565412 6.21617592 -6.01565412 6.21617592 0 0 Z " fill="#3C2720" transform="translate(373,235)"/>
<path d="M0 0 C0.83920486 0.00424484 1.67840973 0.00848969 2.54304504 0.01286316 C5.2230337 0.02965411 7.90226995 0.06730645 10.58203125 0.10546875 C12.39907768 0.12051508 14.2161359 0.13420357 16.03320312 0.14648438 C20.48726901 0.17955893 24.94077257 0.23134362 29.39453125 0.29296875 C29.39453125 0.95296875 29.39453125 1.61296875 29.39453125 2.29296875 C30.05453125 2.62296875 30.71453125 2.95296875 31.39453125 3.29296875 C24.46453125 3.29296875 17.53453125 3.29296875 10.39453125 3.29296875 C15.62886639 3.90646836 15.62886639 3.90646836 20.86328125 4.51928711 C25.70994552 5.08842064 30.55292676 5.68226637 35.39453125 6.29296875 C35.39453125 6.62296875 35.39453125 6.95296875 35.39453125 7.29296875 C26.76609579 7.6017398 18.24446198 7.08177886 9.64453125 6.41796875 C8.57984619 6.33949707 7.51516113 6.26102539 6.41821289 6.18017578 C0.24029982 5.6785483 -5.58962029 4.79063814 -11.60546875 3.29296875 C-8.28438904 -0.60243936 -4.81783009 -0.09145125 0 0 Z " fill="#623B34" transform="translate(316.60546875,35.70703125)"/>
<path d="M0 0 C0.33 0 0.66 0 1 0 C4.07561041 16.75109241 4.34743933 33.00398077 4 50 C3.01 50 2.02 50 1 50 C0.92652344 48.39898437 0.92652344 48.39898437 0.8515625 46.765625 C0.3905872 37.38429855 -0.31450237 28.06508953 -1.33935547 18.72753906 C-1.79886822 14.45902171 -2.1040822 10.30206424 -2 6 C-1.67 6 -1.34 6 -1 6 C-0.67 4.02 -0.34 2.04 0 0 Z " fill="#5F433D" transform="translate(62,147)"/>
<path d="M0 0 C0.66 0 1.32 0 2 0 C2.19622241 4.21878192 1.80230168 7.17010894 0 11 C-0.33 10.34 -0.66 9.68 -1 9 C-1.66 9 -2.32 9 -3 9 C-3.2165625 10.8253125 -3.2165625 10.8253125 -3.4375 12.6875 C-3.70454058 14.93827064 -4.02527256 17.11605936 -4.5078125 19.33203125 C-5.31821204 23.7249113 -5.39544347 28.16960729 -5.62109375 32.625 C-6 36 -6 36 -6.97045898 38.39331055 C-8.0055872 41.0141462 -8.47563301 43.29673547 -8.8515625 46.08203125 C-8.98046875 47.01337891 -9.109375 47.94472656 -9.2421875 48.90429688 C-9.36851562 49.86400391 -9.49484375 50.82371094 -9.625 51.8125 C-9.7590625 52.79154297 -9.893125 53.77058594 -10.03125 54.77929688 C-10.35989962 57.18548162 -10.68262087 59.59230719 -11 62 C-11.33 62 -11.66 62 -12 62 C-12 54.08 -12 46.16 -12 38 C-11.01 37.505 -11.01 37.505 -10 37 C-9.27543972 34.06050128 -9.27543972 34.06050128 -8.78125 30.48046875 C-8.67784302 29.82548904 -8.57443604 29.17050934 -8.46789551 28.49568176 C-8.13678122 26.3941716 -7.81735673 24.29112862 -7.5 22.1875 C-7.18188565 20.09473108 -6.86109245 18.00254178 -6.53210449 15.91145325 C-6.23260124 14.00608698 -5.94320248 12.09914061 -5.65429688 10.19213867 C-5.0850492 7.4149322 -4.4269192 5.42131295 -3 3 C-2.34 3 -1.68 3 -1 3 C-0.67 2.01 -0.34 1.02 0 0 Z " fill="#633E33" transform="translate(372,197)"/>
<path d="M0 0 C0.33 0 0.66 0 1 0 C1 12.54 1 25.08 1 38 C-0.98 38 -2.96 38 -5 38 C-5.625 36.1875 -5.625 36.1875 -6 34 C-5.34 33.01 -4.68 32.02 -4 31 C-4.66 31 -5.32 31 -6 31 C-5.85950482 29.52031676 -5.71245174 28.04125484 -5.5625 26.5625 C-5.48128906 25.73878906 -5.40007812 24.91507813 -5.31640625 24.06640625 C-5 22 -5 22 -4 21 C-3.7180604 18.71315662 -3.55222995 16.42636727 -3.37890625 14.12890625 C-3 12 -3 12 -1 10 C-0.53837573 7.56747339 -0.53837573 7.56747339 -0.375 4.875 C-0.26285156 3.50988281 -0.26285156 3.50988281 -0.1484375 2.1171875 C-0.09945313 1.41851562 -0.05046875 0.71984375 0 0 Z " fill="#573A28" transform="translate(373,91)"/>
<path d="M0 0 C0.89203125 0.00902344 1.7840625 0.01804688 2.703125 0.02734375 C3.37859375 0.03894531 4.0540625 0.05054688 4.75 0.0625 C4.75 2.3725 4.75 4.6825 4.75 7.0625 C4.09 7.0625 3.43 7.0625 2.75 7.0625 C2.75 6.0725 2.75 5.0825 2.75 4.0625 C2.09 4.0625 1.43 4.0625 0.75 4.0625 C-1.1578584 7.2374094 -1.4109041 9.16835211 -0.875 12.8125 C-0.76414062 13.61171875 -0.65328125 14.4109375 -0.5390625 15.234375 C-0.44367188 15.83765625 -0.34828125 16.4409375 -0.25 17.0625 C-1.91611905 17.105221 -3.58382885 17.10313832 -5.25 17.0625 C-6.25 16.0625 -6.25 16.0625 -6.34765625 13.99609375 C-6.33605469 13.17238281 -6.32445312 12.34867188 -6.3125 11.5 C-6.30347656 10.67371094 -6.29445313 9.84742188 -6.28515625 8.99609375 C-6.27355469 8.35800781 -6.26195312 7.71992187 -6.25 7.0625 C-7.920625 7.124375 -7.920625 7.124375 -9.625 7.1875 C-13.25 7.0625 -13.25 7.0625 -15.25 5.0625 C-12.61 5.0625 -9.97 5.0625 -7.25 5.0625 C-7.91 4.7325 -8.57 4.4025 -9.25 4.0625 C-9.25 3.0725 -9.25 2.0825 -9.25 1.0625 C-6.09493858 0.12630187 -3.28413498 -0.0432123 0 0 Z " fill="#52352A" transform="translate(367.25,38.9375)"/>
<path d="M0 0 C2.62386487 3.06117568 3 3.73173127 3 8 C3.99 8 4.98 8 6 8 C7.15242762 12.58227173 7.14886949 16.99714567 7.125 21.6875 C7.12886719 22.45900391 7.13273437 23.23050781 7.13671875 24.02539062 C7.12672546 29.74654908 7.12672546 29.74654908 6 32 C5.77141886 34.0374763 5.58975722 36.08040303 5.4375 38.125 C5.35371094 39.22070312 5.26992188 40.31640625 5.18359375 41.4453125 C5.12300781 42.28835937 5.06242187 43.13140625 5 44 C4.34 44 3.68 44 3 44 C3.01571045 43.43716309 3.0314209 42.87432617 3.04760742 42.29443359 C3.30072899 31.81285096 3.26118776 22.17899222 0.66796875 11.9765625 C-0.25161114 7.87878546 -0.21620653 4.17999301 0 0 Z " fill="#67493B" transform="translate(360,83)"/>
<path d="M0 0 C0.99 0.495 0.99 0.495 2 1 C3.30625446 23.32295563 3.09945432 45.64878831 3 68 C2.01 68.495 2.01 68.495 1 69 C0.20030473 64.78825015 -0.12212867 60.82007889 -0.11352539 56.53564453 C-0.11344986 55.27479034 -0.11337433 54.01393616 -0.11329651 52.71487427 C-0.10819109 51.3541866 -0.10297511 49.99349935 -0.09765625 48.6328125 C-0.09578912 47.22891287 -0.09436661 45.82501258 -0.09336853 44.42111206 C-0.08956658 40.74192478 -0.07975633 37.06277752 -0.06866455 33.38360596 C-0.05840031 29.62293031 -0.0538602 25.86224814 -0.04882812 22.1015625 C-0.03813179 14.73435683 -0.02108352 7.36718404 0 0 Z " fill="#402C26" transform="translate(61,178)"/>
<path d="M0 0 C0.33 0 0.66 0 1 0 C1 27.72 1 55.44 1 84 C0.67 84 0.34 84 0 84 C-0.33 60.24 -0.66 36.48 -1 12 C-1.66 12 -2.32 12 -3 12 C-3.33 10.02 -3.66 8.04 -4 6 C-3.34 6 -2.68 6 -2 6 C-1.34 4.02 -0.68 2.04 0 0 Z " fill="#39312B" transform="translate(67,340)"/>
<path d="M0 0 C0.99 0 1.98 0 3 0 C4.6057579 5.28396414 3.91783091 10.67278334 3.6875 16.125 C3.63432617 17.76082031 3.63432617 17.76082031 3.58007812 19.4296875 C3.31148839 26.13240454 2.55521672 32.47231542 1 39 C0.67 39 0.34 39 0 39 C0 26.13 0 13.26 0 0 Z " fill="#43302C" transform="translate(54,192)"/>
<path d="M0 0 C0.66 0 1.32 0 2 0 C2.29793908 7.2167466 1.85480299 14.37420463 1.25 21.5625 C1.18828613 22.45549805 1.12657227 23.34849609 1.06298828 24.26855469 C0.9854834 25.1093457 0.90797852 25.95013672 0.828125 26.81640625 C0.7652832 27.57381104 0.70244141 28.33121582 0.63769531 29.11157227 C0 31 0 31 -2.05175781 32.26147461 C-3.0161377 32.62704468 -3.0161377 32.62704468 -4 33 C-4.0272367 30.47909222 -4.04695207 27.95848543 -4.0625 25.4375 C-4.07087891 24.73302734 -4.07925781 24.02855469 -4.08789062 23.30273438 C-4.14130435 11.71195652 -4.14130435 11.71195652 -1 7 C-0.60612212 4.67612053 -0.26513915 2.34206251 0 0 Z " fill="#664937" transform="translate(372,80)"/>
<path d="M0 0 C2.91672884 -0.02700675 5.83320677 -0.04684237 8.75 -0.0625 C9.9875 -0.07506836 9.9875 -0.07506836 11.25 -0.08789062 C12.04921875 -0.09111328 12.8484375 -0.09433594 13.671875 -0.09765625 C14.4050293 -0.10289307 15.13818359 -0.10812988 15.89355469 -0.11352539 C18 0 18 0 19.80859375 0.47265625 C22.96993638 1.23340715 26.15538833 1.3513894 29.390625 1.53515625 C30.09523865 1.57813339 30.79985229 1.62111053 31.52581787 1.66539001 C33.76701648 1.80128098 36.00848391 1.93196126 38.25 2.0625 C39.77345819 2.15395281 41.296896 2.24574586 42.8203125 2.33789062 C46.54664695 2.56253607 50.27324025 2.78251071 54 3 C54 3.33 54 3.66 54 4 C35.85533589 4.25420911 18.07044395 3.80824669 0 2 C0 1.34 0 0.68 0 0 Z " fill="#3A2B27" transform="translate(152,580)"/>
<path d="M0 0 C3 3 3 3 3.32279968 4.99320984 C3.29837296 5.75043839 3.27394623 6.50766693 3.2487793 7.2878418 C3.22853195 8.14850754 3.20828461 9.00917328 3.18742371 9.8959198 C3.15006607 10.82100845 3.11270844 11.74609711 3.07421875 12.69921875 C3.04777786 13.64940384 3.02133698 14.59958893 2.99409485 15.5785675 C2.90627477 18.61551342 2.79714493 21.65127126 2.6875 24.6875 C2.6242472 26.74540004 2.56238095 28.8033432 2.50195312 30.86132812 C2.35072443 35.90819337 2.18038009 40.95409594 2 46 C1.01 46.495 1.01 46.495 0 47 C0 31.49 0 15.98 0 0 Z " fill="#422A29" transform="translate(360,386)"/>
<path d="M0 0 C0.33 0 0.66 0 1 0 C1.10853983 2.22808159 1.18583307 4.45769932 1.25 6.6875 C1.29640625 7.92886719 1.3428125 9.17023438 1.390625 10.44921875 C0.93477748 14.59287267 -0.23369421 15.98221187 -3 19 C-4.25556887 22.17921787 -4.25556887 22.17921787 -5 25 C-5.33 25 -5.66 25 -6 25 C-5.88562349 22.27001324 -5.75888594 19.5415418 -5.625 16.8125 C-5.5940625 16.04357422 -5.563125 15.27464844 -5.53125 14.48242188 C-5.31383889 10.26102289 -4.90256928 6.85927672 -3 3 C-2.01 3 -1.02 3 0 3 C0 2.01 0 1.02 0 0 Z " fill="#452B22" transform="translate(373,207)"/>
<path d="M0 0 C2.47250024 3.78262984 2.33226071 7.63683606 2.3125 12 C2.32861328 12.7115625 2.34472656 13.423125 2.36132812 14.15625 C2.36434734 17.39285081 2.19587424 19.6488529 0.60546875 22.5 C-1 24 -1 24 -3 24 C-3 18.06 -3 12.12 -3 6 C-2.34 5.67 -1.68 5.34 -1 5 C-0.34444881 2.47266765 -0.34444881 2.47266765 0 0 Z " fill="#41302E" transform="translate(372,169)"/>
<path d="M0 0 C0.33 0 0.66 0 1 0 C1.59322601 9.73330081 -0.18369839 19.02339491 -4 28 C-6.16100568 24.48188275 -6.32849075 21.52566342 -6.375 17.4375 C-6.40335937 16.30183594 -6.43171875 15.16617188 -6.4609375 13.99609375 C-6 11 -6 11 -4.0546875 9.359375 C-3.37664062 8.91078125 -2.69859375 8.4621875 -2 8 C-1.10594825 5.97993559 -1.10594825 5.97993559 -0.75 3.8125 C-0.5025 2.554375 -0.255 1.29625 0 0 Z " fill="#483B35" transform="translate(372,56)"/>
<path d="M0 0 C0.33 0 0.66 0 1 0 C1.10853983 2.22808159 1.18583307 4.45769932 1.25 6.6875 C1.29640625 7.92886719 1.3428125 9.17023438 1.390625 10.44921875 C0.93889287 14.5554638 -0.06293296 16.15539619 -3 19 C-3.66 19 -4.32 19 -5 19 C-7 16 -7 16 -6.7109375 14.0625 C-6.47632813 13.381875 -6.24171875 12.70125 -6 12 C-5.78601563 11.34 -5.57203125 10.68 -5.3515625 10 C-3.99067222 6.25389342 -2.7394828 2.98852669 0 0 Z " fill="#5B3429" transform="translate(373,221)"/>
<path d="M0 0 C0.33 0 0.66 0 1 0 C1.02719556 2.37507855 1.04693247 4.74983964 1.0625 7.125 C1.07087891 7.79015625 1.07925781 8.4553125 1.08789062 9.140625 C1.10782292 13.20681354 0.78890161 17.0120092 0 21 C0.66 21 1.32 21 2 21 C1.67 21.99 1.34 22.98 1 24 C0.78323842 25.98968251 0.61090121 27.98435019 0.46484375 29.98046875 C0.37783203 31.14384766 0.29082031 32.30722656 0.20117188 33.50585938 C0.11416016 34.72080078 0.02714844 35.93574219 -0.0625 37.1875 C-0.15337891 38.41404297 -0.24425781 39.64058594 -0.33789062 40.90429688 C-0.56202158 43.93596295 -0.7825812 46.96784637 -1 50 C-1.33 50 -1.66 50 -2 50 C-2.02468084 44.90967159 -2.04285082 39.81937785 -2.05493164 34.72900391 C-2.05996682 32.99657586 -2.06679532 31.26415208 -2.07543945 29.53173828 C-2.08754065 27.04458567 -2.09323638 24.55748913 -2.09765625 22.0703125 C-2.10281754 21.29317902 -2.10797882 20.51604553 -2.11329651 19.71536255 C-2.11387171 14.22774341 -2.11387171 14.22774341 -1 12 C-0.77141886 9.9625237 -0.58975722 7.91959697 -0.4375 5.875 C-0.35371094 4.77929688 -0.26992188 3.68359375 -0.18359375 2.5546875 C-0.12300781 1.71164063 -0.06242187 0.86859375 0 0 Z " fill="#3B2B25" transform="translate(367,101)"/>
<path d="M0 0 C3.39650382 3.39650382 2.82372408 7.93126643 3.11328125 12.5546875 C2.96491056 17.06720298 2.0882406 18.81817636 -1 22 C-3 20 -3 20 -3.23046875 17.609375 C-3.03424179 4.55136268 -3.03424179 4.55136268 0 0 Z " fill="#4C352D" transform="translate(57,151)"/>
<path d="M0 0 C0.99 0.33 1.98 0.66 3 1 C3 1.66 3 2.32 3 3 C2.01 3 1.02 3 0 3 C-1.9078584 6.1749094 -2.1609041 8.10585211 -1.625 11.75 C-1.51414062 12.54921875 -1.40328125 13.3484375 -1.2890625 14.171875 C-1.19367188 14.77515625 -1.09828125 15.3784375 -1 16 C-2.66611905 16.042721 -4.33382885 16.04063832 -6 16 C-7 15 -7 15 -7.375 11.75 C-6.90720493 7.07204933 -5.49106457 5.99234106 -2 3 C-1.34 2.01 -0.68 1.02 0 0 Z " fill="#5A463D" transform="translate(368,40)"/>
<path d="M0 0 C4.19915307 -0.09907258 8.39768252 -0.17156173 12.59765625 -0.21972656 C14.02551121 -0.23980982 15.45328425 -0.26708252 16.88085938 -0.30175781 C18.93640368 -0.35042669 20.99085855 -0.37299967 23.046875 -0.390625 C24.28276367 -0.41157227 25.51865234 -0.43251953 26.79199219 -0.45410156 C30.54827491 0.07760969 31.68359893 1.07668162 34 4 C32.37536158 4.05395478 30.75021459 4.09277195 29.125 4.125 C27.76761719 4.15980469 27.76761719 4.15980469 26.3828125 4.1953125 C24 4 24 4 22 2 C20.01323276 1.75581636 20.01323276 1.75581636 17.75390625 1.875 C16.91666016 1.89046875 16.07941406 1.9059375 15.21679688 1.921875 C13.45116849 1.97384346 11.68554347 2.02592628 9.91992188 2.078125 C9.08138672 2.09359375 8.24285156 2.1090625 7.37890625 2.125 C6.6113501 2.14820313 5.84379395 2.17140625 5.05297852 2.1953125 C3 2 3 2 0 0 Z " fill="#48332E" transform="translate(278,36)"/>
<path d="M0 0 C0.33 0 0.66 0 1 0 C1 1.98 1 3.96 1 6 C1.66 6 2.32 6 3 6 C2.45276317 9.37462715 1.9451 11.08235 0 14 C-0.66 14 -1.32 14 -2 14 C-2.12375 14.94875 -2.2475 15.8975 -2.375 16.875 C-3 20 -3 20 -5 22 C-5.042721 20.33388095 -5.04063832 18.66617115 -5 17 C-4.67 16.67 -4.34 16.34 -4 16 C-3.46037396 13.00258143 -3.03451931 9.99445673 -2.59765625 6.98046875 C-2.0577456 4.28797313 -1.3648608 2.35852514 0 0 Z " fill="#543A34" transform="translate(371,248)"/>
<path d="M0 0 C7.04440079 -0.21133202 13.24112575 -0.07965362 20 2 C20 2.66 20 3.32 20 4 C21.65 4 23.3 4 25 4 C25 4.33 25 4.66 25 5 C19.55306686 5.09688221 14.36095333 5.12862175 9 4 C9 3.34 9 2.68 9 2 C6.03 2 3.06 2 0 2 C0 1.34 0 0.68 0 0 Z " fill="#452A28" transform="translate(162,586)"/>
<path d="M0 0 C0.33 0 0.66 0 1 0 C1 5.94 1 11.88 1 18 C0.01 17.67 -0.98 17.34 -2 17 C-2.33 16.01 -2.66 15.02 -3 14 C-3.66 14.66 -4.32 15.32 -5 16 C-4.91253716 14.56138706 -4.80434652 13.12402492 -4.6875 11.6875 C-4.62949219 10.88699219 -4.57148437 10.08648437 -4.51171875 9.26171875 C-3.9105539 6.60466191 -2.99124292 5.78382178 -1 4 C-0.28552357 1.89667109 -0.28552357 1.89667109 0 0 Z " fill="#3F2C28" transform="translate(65,63)"/>
<path d="M0 0 C0.99 0 1.98 0 3 0 C5.20949832 4.41029783 5.2370648 8.48940324 5.125 13.3125 C5.11597656 14.05306641 5.10695313 14.79363281 5.09765625 15.55664062 C5.07424213 17.37123467 5.03837615 19.18566071 5 21 C4.67 21 4.34 21 4 21 C3.90912109 19.93458984 3.90912109 19.93458984 3.81640625 18.84765625 C3.73261719 17.92855469 3.64882813 17.00945312 3.5625 16.0625 C3.48128906 15.14597656 3.40007812 14.22945312 3.31640625 13.28515625 C3.23955024 11.03840268 3.23955024 11.03840268 2 10 C1.34 10.66 0.68 11.32 0 12 C0 8.04 0 4.08 0 0 Z " fill="#2C1F1F" transform="translate(369,139)"/>
<path d="M0 0 C0.33 0 0.66 0 1 0 C0.22095672 17.85649203 0.22095672 17.85649203 -2 26 C-2.33 26 -2.66 26 -3 26 C-3.30659554 16.84755529 -3.49409003 8.65203245 0 0 Z " fill="#3F2824" transform="translate(364,239)"/>
<path d="M0 0 C0.33 0 0.66 0 1 0 C1.63402607 9.0700951 1.63402607 9.0700951 -0.875 12.75 C-1.926875 13.86375 -1.926875 13.86375 -3 15 C-4.25556887 18.17921787 -4.25556887 18.17921787 -5 21 C-5.33 21 -5.66 21 -6 21 C-6 18.36 -6 15.72 -6 13 C-5.01 13 -4.02 13 -3 13 C-2.87625 11.96875 -2.7525 10.9375 -2.625 9.875 C-2.06110186 6.37883154 -1.21317941 3.31602373 0 0 Z " fill="#3A261B" transform="translate(373,211)"/>
<path d="M0 0 C0.33 0 0.66 0 1 0 C1.19504458 2.10348074 1.38078496 4.20782585 1.5625 6.3125 C1.66691406 7.48425781 1.77132813 8.65601562 1.87890625 9.86328125 C2 13 2 13 1 16 C2.32 16.33 3.64 16.66 5 17 C3.02 17 1.04 17 -1 17 C-1.625 15.1875 -1.625 15.1875 -2 13 C-1.34 12.01 -0.68 11.02 0 10 C-0.66 10 -1.32 10 -2 10 C-1.85950482 8.52031676 -1.71245174 7.04125484 -1.5625 5.5625 C-1.48128906 4.73878906 -1.40007812 3.91507812 -1.31640625 3.06640625 C-1 1 -1 1 0 0 Z " fill="#4F382C" transform="translate(369,112)"/>
<path d="M0 0 C1.98 0 3.96 0 6 0 C6 0.33 6 0.66 6 1 C11.94 1.33 17.88 1.66 24 2 C24 2.33 24 2.66 24 3 C12.78 3 1.56 3 -10 3 C-10 2.67 -10 2.34 -10 2 C-6.7 1.67 -3.4 1.34 0 1 C0 0.67 0 0.34 0 0 Z " fill="#221D1B" transform="translate(109,588)"/>
<path d="M0 0 C1.98 0.99 1.98 0.99 4 2 C3.48446121 8.49850211 2.53332291 14.66226532 1 21 C0.67 21 0.34 21 0 21 C0 14.07 0 7.14 0 0 Z " fill="#44302D" transform="translate(360,259)"/>
<path d="M0 0 C0.33 0 0.66 0 1 0 C1.02719556 2.37507855 1.04693247 4.74983964 1.0625 7.125 C1.07087891 7.79015625 1.07925781 8.4553125 1.08789062 9.140625 C1.10782292 13.20681354 0.78890161 17.0120092 0 21 C0.66 21 1.32 21 2 21 C1.67 21.99 1.34 22.98 1 24 C0.01 24 -0.98 24 -2 24 C-2.02698189 22.37509046 -2.04638757 20.75005367 -2.0625 19.125 C-2.07410156 18.22007813 -2.08570313 17.31515625 -2.09765625 16.3828125 C-2 14 -2 14 -1 12 C-0.77141886 9.9625237 -0.58975722 7.91959697 -0.4375 5.875 C-0.35371094 4.77929688 -0.26992188 3.68359375 -0.18359375 2.5546875 C-0.12300781 1.71164063 -0.06242187 0.86859375 0 0 Z " fill="#492F26" transform="translate(367,101)"/>
<path d="M0 0 C2 2 2 2 2.1953125 5.6953125 C2.182009 7.17200108 2.15814835 8.64862358 2.125 10.125 C2.11597656 10.87910156 2.10695313 11.63320312 2.09765625 12.41015625 C2.0740687 14.27357254 2.03819719 16.13682593 2 18 C1.34 17.67 0.68 17.34 0 17 C-1.66119986 11.68416045 -1.75499656 5.26498969 0 0 Z " fill="#715446" transform="translate(364,94)"/>
<path d="M0 0 C0.36601307 7.4422658 0.36601307 7.4422658 -1.3125 10 C-3 11 -3 11 -6 11 C-5.50928382 4.62068966 -5.50928382 4.62068966 -3 1.5625 C-1 0 -1 0 0 0 Z " fill="#2F221E" transform="translate(374,189)"/>
<path d="M0 0 C0.33 0 0.66 0 1 0 C1.4301119 7.3437624 0.72717355 14.1070063 -2 21 C-2.66 21.33 -3.32 21.66 -4 22 C-3.01701938 14.55444468 -2.02712214 7.23972193 0 0 Z " fill="#5C4B44" transform="translate(372,56)"/>
<path d="M0 0 C0.33 0 0.66 0 1 0 C1.4025937 3.52269485 1.13372795 4.79940808 -0.875 7.8125 C-1.57625 8.534375 -2.2775 9.25625 -3 10 C-3.66 10 -4.32 10 -5 10 C-7 7 -7 7 -6.625 4.8125 C-6.41875 4.214375 -6.2125 3.61625 -6 3 C-5.34 3.66 -4.68 4.32 -4 5 C-3.360625 4.175 -2.72125 3.35 -2.0625 2.5 C-1.381875 1.675 -0.70125 0.85 0 0 Z " fill="#694435" transform="translate(373,230)"/>
<path d="M0 0 C0.33 0 0.66 0 1 0 C1.05834353 3.22909006 1.09371115 6.45804338 1.125 9.6875 C1.15013672 11.05551758 1.15013672 11.05551758 1.17578125 12.45117188 C1.20936169 17.06848227 1.23556185 20.81932331 -1 25 C-1.33 25 -1.66 25 -2 25 C-1.93941406 24.45214844 -1.87882812 23.90429688 -1.81640625 23.33984375 C-0.99540564 15.57191495 -0.48847094 7.79474902 0 0 Z " fill="#45362F" transform="translate(61,211)"/>
<path d="M0 0 C2.42479736 3.63719605 2.38662577 5.85703482 2.625 10.1875 C2.69976562 11.45980469 2.77453125 12.73210937 2.8515625 14.04296875 C2.92503906 15.50669922 2.92503906 15.50669922 3 17 C2.01 17.66 1.02 18.32 0 19 C0 12.73 0 6.46 0 0 Z " fill="#57423B" transform="translate(54,141)"/>
<path d="M0 0 C0.66 0 1.32 0 2 0 C2.37369729 7.47394574 1.04061541 13.82140651 -1 21 C-1.33 21 -1.66 21 -2 21 C-1.85845864 18.43719792 -1.71191438 15.87484515 -1.5625 13.3125 C-1.52318359 12.59126953 -1.48386719 11.87003906 -1.44335938 11.12695312 C-1.21814322 7.33292718 -0.87160695 3.71348508 0 0 Z " fill="#3E2922" transform="translate(367,193)"/>
<path d="M0 0 C1.32 0 2.64 0 4 0 C4 3.63 4 7.26 4 11 C2 10 2 10 0.875 7.75 C-0.00513321 4.98386705 -0.1645438 2.87951649 0 0 Z " fill="#4A3C3A" transform="translate(370,133)"/>
<path d="M0 0 C0.66 0 1.32 0 2 0 C2.63019694 8.19256018 2.63019694 8.19256018 0 11.5625 C-0.99 12.2740625 -0.99 12.2740625 -2 13 C-2.042721 11.33388095 -2.04063832 9.66617115 -2 8 C-1.67 7.67 -1.34 7.34 -1 7 C-0.63239269 4.67182036 -0.29758419 2.3381615 0 0 Z " fill="#463233" transform="translate(58,43)"/>
<path d="M0 0 C1.98 0.99 1.98 0.99 4 2 C4 3.65 4 5.3 4 7 C4.66 7.33 5.32 7.66 6 8 C6 8.99 6 9.98 6 11 C5.01 11 4.02 11 3 11 C2.49384702 9.73160474 1.99530901 8.46016898 1.5 7.1875 C1.2215625 6.47980469 0.943125 5.77210937 0.65625 5.04296875 C0 3 0 3 0 0 Z " fill="#593D34" transform="translate(360,80)"/>
<path d="M0 0 C0.33 0 0.66 0 1 0 C1 1.98 1 3.96 1 6 C1.66 6 2.32 6 3 6 C2.67 7.32 2.34 8.64 2 10 C-1 10 -1 10 -3 9 C-2.01 6.03 -1.02 3.06 0 0 Z " fill="#4D322E" transform="translate(371,248)"/>
<path d="M0 0 C0 1.32 0 2.64 0 4 C-1.32 4 -2.64 4 -4 4 C-4 4.99 -4 5.98 -4 7 C-4.66 7 -5.32 7 -6 7 C-6 5.02 -6 3.04 -6 1 C-4 0 -4 0 0 0 Z " fill="#34261F" transform="translate(374,129)"/>
<path d="M0 0 C3.3 0 6.6 0 10 0 C10 0.66 10 1.32 10 2 C11.98 2 13.96 2 16 2 C16 2.33 16 2.66 16 3 C10.26157749 3.20413361 5.39460953 3.27141454 0 1 C0 0.67 0 0.34 0 0 Z " fill="#2A1E1A" transform="translate(161,588)"/>
<path d="M0 0 C0.33 0 0.66 0 1 0 C1 2.64 1 5.28 1 8 C0.01 8.33 -0.98 8.66 -2 9 C-2.33 6.69 -2.66 4.38 -3 2 C-2.01 2 -1.02 2 0 2 C0 1.34 0 0.68 0 0 Z " fill="#3F322C" transform="translate(372,403)"/>
<path d="M0 0 C0.33 0 0.66 0 1 0 C2.18609365 5.6932495 1.66251802 9.42567486 0 15 C-0.66 15 -1.32 15 -2 15 C-1.34 10.05 -0.68 5.1 0 0 Z " fill="#543B32" transform="translate(367,204)"/>
<path d="M0 0 C0.66 0 1.32 0 2 0 C2 0.99 2 1.98 2 3 C2.66 3.33 3.32 3.66 4 4 C2.68 4.99 1.36 5.98 0 7 C0 6.34 0 5.68 0 5 C-0.99 4.67 -1.98 4.34 -3 4 C-1.625 2 -1.625 2 0 0 Z " fill="#462F26" transform="translate(368,43)"/>
<path d="M0 0 C2 3 2 3 2 5 C0.35 5 -1.3 5 -3 5 C-3 3.68 -3 2.36 -3 1 C-2.01 0.67 -1.02 0.34 0 0 Z " fill="#4A3A36" transform="translate(365,51)"/>
<path d="M0 0 C1.65 0 3.3 0 5 0 C5 0.66 5 1.32 5 2 C6.65 2 8.3 2 10 2 C10 2.33 10 2.66 10 3 C6.7 3 3.4 3 0 3 C0 2.01 0 1.02 0 0 Z " fill="#4B312E" transform="translate(177,588)"/>
<path d="M0 0 C0.33 0 0.66 0 1 0 C1.22151549 1.79008467 1.42682213 3.58218162 1.625 5.375 C1.74101562 6.37273437 1.85703125 7.37046875 1.9765625 8.3984375 C1.98429687 9.25695312 1.99203125 10.11546875 2 11 C1.34 11.66 0.68 12.32 0 13 C-0.66 12.67 -1.32 12.34 -2 12 C-2 11.01 -2 10.02 -2 9 C-1.34 9 -0.68 9 0 9 C0 6.03 0 3.06 0 0 Z " fill="#402F27" transform="translate(372,263)"/>
<path d="M0 0 C1 3 1 3 -0.4375 6.1875 C-1.2109375 7.5796875 -1.2109375 7.5796875 -2 9 C-2.33 9 -2.66 9 -3 9 C-3.26218749 5.85375007 -3.24754367 4.38162983 -1.5 1.6875 C-1.005 1.130625 -0.51 0.57375 0 0 Z " fill="#5F3D35" transform="translate(373,221)"/>
</svg>
